<?xml version="1.0" encoding="UTF-8"?>
<svg xmlns="http://www.w3.org/2000/svg" viewBox="0 0 1600 600" width="1600" height="600" preserveAspectRatio="xMidYMid slice" role="img">
  <defs>
    <linearGradient id="bg-grad" x1="0" y1="0" x2="0" y2="1">
      <stop offset="0%" stop-color="hsl(258, 50%, 14%)" />
      <stop offset="100%" stop-color="hsl(258, 60%, 8%)" />
    </linearGradient>
    <radialGradient id="glow" cx="30.0%" cy="35%" r="55%">
      <stop offset="0%" stop-color="hsl(271, 100%, 72%)" stop-opacity="0.5" />
      <stop offset="50%" stop-color="hsl(2, 100%, 70%)" stop-opacity="0.18" />
      <stop offset="100%" stop-color="hsl(258, 60%, 8%)" stop-opacity="0" />
    </radialGradient>
    <linearGradient id="vignette" x1="0" y1="1" x2="0" y2="0">
      <stop offset="0%" stop-color="hsl(258, 60%, 8%)" stop-opacity="0.85" />
      <stop offset="65%" stop-color="hsl(258, 60%, 8%)" stop-opacity="0" />
    </linearGradient>
  </defs>
  <rect width="100%" height="100%" fill="url(#bg-grad)" />
  <rect width="100%" height="100%" fill="url(#glow)" />
  <g><path d="M 1560 520 L 1560 560 L 1600 560 L 1600 440 L 1600 520 L 1600 600 L 1640 600 L 1600 600" fill="none" stroke="hsl(271, 100%, 72%)" stroke-opacity="0.28" stroke-width="1.4" stroke-linecap="round" stroke-linejoin="round" /><circle cx="1600" cy="600" r="3.2" fill="hsl(2, 100%, 70%)" fill-opacity="0.85" /><path d="M 400 320 L 400 400 L 520 400 L 520 320 L 520 400 L 520 240 L 520 160 L 680 160" fill="none" stroke="hsl(271, 100%, 72%)" stroke-opacity="0.44" stroke-width="1.4" stroke-linecap="round" stroke-linejoin="round" /><circle cx="680" cy="160" r="3.2" fill="hsl(2, 100%, 70%)" fill-opacity="0.85" /><path d="M 1440 400 L 1440 280 L 1440 360 L 1360 360 L 1360 200 L 1520 200 L 1520 80" fill="none" stroke="hsl(271, 100%, 72%)" stroke-opacity="0.34" stroke-width="1.4" stroke-linecap="round" stroke-linejoin="round" /><circle cx="1520" cy="80" r="3.2" fill="hsl(2, 100%, 70%)" fill-opacity="0.85" /><path d="M 560 200 L 400 200 L 240 200 L 120 200 L 160 200 L 240 200 L 240 360 L 280 360" fill="none" stroke="hsl(271, 100%, 72%)" stroke-opacity="0.26" stroke-width="1.4" stroke-linecap="round" stroke-linejoin="round" /><circle cx="280" cy="360" r="3.2" fill="hsl(2, 100%, 70%)" fill-opacity="0.85" /><path d="M 160 360 L 240 360 L 240 240 L 240 400 L 240 520" fill="none" stroke="hsl(271, 100%, 72%)" stroke-opacity="0.29" stroke-width="1.4" stroke-linecap="round" stroke-linejoin="round" /><circle cx="240" cy="520" r="3.2" fill="hsl(2, 100%, 70%)" fill-opacity="0.85" /><path d="M 480 480 L 520 480 L 640 480 L 520 480 L 520 600 L 680 600 L 680 640 L 680 720" fill="none" stroke="hsl(271, 100%, 72%)" stroke-opacity="0.23" stroke-width="1.4" stroke-linecap="round" stroke-linejoin="round" /><circle cx="680" cy="720" r="3.2" fill="hsl(2, 100%, 70%)" fill-opacity="0.85" /><path d="M 1280 320 L 1280 160 L 1320 160 L 1320 280 L 1320 240 L 1240 240 L 1120 240" fill="none" stroke="hsl(271, 100%, 72%)" stroke-opacity="0.40" stroke-width="1.4" stroke-linecap="round" stroke-linejoin="round" /><circle cx="1120" cy="240" r="3.2" fill="hsl(2, 100%, 70%)" fill-opacity="0.85" /><path d="M 1000 320 L 880 320 L 800 320 L 800 480 L 800 320" fill="none" stroke="hsl(271, 100%, 72%)" stroke-opacity="0.22" stroke-width="1.4" stroke-linecap="round" stroke-linejoin="round" /><circle cx="800" cy="320" r="3.2" fill="hsl(2, 100%, 70%)" fill-opacity="0.85" /><path d="M 480 560 L 600 560 L 440 560 L 440 680 L 440 560 L 400 560 L 400 600 L 520 600 L 520 760" fill="none" stroke="hsl(271, 100%, 72%)" stroke-opacity="0.39" stroke-width="1.4" stroke-linecap="round" stroke-linejoin="round" /><circle cx="520" cy="760" r="3.2" fill="hsl(2, 100%, 70%)" fill-opacity="0.85" /><path d="M 320 40 L 280 40 L 280 160 L 200 160 L 280 160 L 440 160 L 280 160 L 280 120" fill="none" stroke="hsl(271, 100%, 72%)" stroke-opacity="0.45" stroke-width="1.4" stroke-linecap="round" stroke-linejoin="round" /><circle cx="280" cy="120" r="3.2" fill="hsl(2, 100%, 70%)" fill-opacity="0.85" /><path d="M 1520 360 L 1520 320 L 1520 440 L 1640 440 L 1760 440 L 1760 360 L 1760 200" fill="none" stroke="hsl(271, 100%, 72%)" stroke-opacity="0.34" stroke-width="1.4" stroke-linecap="round" stroke-linejoin="round" /><circle cx="1760" cy="200" r="3.2" fill="hsl(2, 100%, 70%)" fill-opacity="0.85" /><path d="M 40 600 L 160 600 L 80 600 L 0 600 L -160 600" fill="none" stroke="hsl(271, 100%, 72%)" stroke-opacity="0.44" stroke-width="1.4" stroke-linecap="round" stroke-linejoin="round" /><circle cx="-160" cy="600" r="3.2" fill="hsl(2, 100%, 70%)" fill-opacity="0.85" /><path d="M 1200 200 L 1360 200 L 1240 200 L 1320 200 L 1320 360 L 1320 200 L 1320 40" fill="none" stroke="hsl(271, 100%, 72%)" stroke-opacity="0.39" stroke-width="1.4" stroke-linecap="round" stroke-linejoin="round" /><circle cx="1320" cy="40" r="3.2" fill="hsl(2, 100%, 70%)" fill-opacity="0.85" /><path d="M 1240 320 L 1400 320 L 1240 320 L 1240 440 L 1080 440 L 1080 280" fill="none" stroke="hsl(271, 100%, 72%)" stroke-opacity="0.34" stroke-width="1.4" stroke-linecap="round" stroke-linejoin="round" /><circle cx="1080" cy="280" r="3.2" fill="hsl(2, 100%, 70%)" fill-opacity="0.85" /><path d="M 1440 160 L 1440 0 L 1440 160 L 1480 160 L 1480 40 L 1360 40 L 1480 40 L 1520 40 L 1360 40" fill="none" stroke="hsl(271, 100%, 72%)" stroke-opacity="0.42" stroke-width="1.4" stroke-linecap="round" stroke-linejoin="round" /><circle cx="1360" cy="40" r="3.2" fill="hsl(2, 100%, 70%)" fill-opacity="0.85" /><path d="M 1480 240 L 1480 360 L 1360 360 L 1360 400 L 1360 520 L 1360 400" fill="none" stroke="hsl(271, 100%, 72%)" stroke-opacity="0.27" stroke-width="1.4" stroke-linecap="round" stroke-linejoin="round" /><circle cx="1360" cy="400" r="3.2" fill="hsl(2, 100%, 70%)" fill-opacity="0.85" /><path d="M 1160 560 L 1160 520 L 1120 520 L 1120 480 L 1120 520" fill="none" stroke="hsl(271, 100%, 72%)" stroke-opacity="0.21" stroke-width="1.4" stroke-linecap="round" stroke-linejoin="round" /><circle cx="1120" cy="520" r="3.2" fill="hsl(2, 100%, 70%)" fill-opacity="0.85" /><path d="M 880 240 L 880 80 L 1040 80 L 1040 240 L 1080 240 L 1200 240 L 1200 200" fill="none" stroke="hsl(271, 100%, 72%)" stroke-opacity="0.23" stroke-width="1.4" stroke-linecap="round" stroke-linejoin="round" /><circle cx="1200" cy="200" r="3.2" fill="hsl(2, 100%, 70%)" fill-opacity="0.85" /><path d="M 1560 520 L 1560 480 L 1560 400 L 1560 520 L 1680 520 L 1640 520" fill="none" stroke="hsl(271, 100%, 72%)" stroke-opacity="0.25" stroke-width="1.4" stroke-linecap="round" stroke-linejoin="round" /><circle cx="1640" cy="520" r="3.2" fill="hsl(2, 100%, 70%)" fill-opacity="0.85" /><path d="M 960 360 L 1120 360 L 1240 360 L 1240 320 L 1360 320 L 1400 320 L 1320 320 L 1320 440" fill="none" stroke="hsl(271, 100%, 72%)" stroke-opacity="0.44" stroke-width="1.4" stroke-linecap="round" stroke-linejoin="round" /><circle cx="1320" cy="440" r="3.2" fill="hsl(2, 100%, 70%)" fill-opacity="0.85" /><path d="M 600 40 L 480 40 L 480 160 L 360 160 L 360 240 L 360 120" fill="none" stroke="hsl(271, 100%, 72%)" stroke-opacity="0.20" stroke-width="1.4" stroke-linecap="round" stroke-linejoin="round" /><circle cx="360" cy="120" r="3.2" fill="hsl(2, 100%, 70%)" fill-opacity="0.85" /><path d="M 240 80 L 240 40 L 160 40 L 40 40 L 40 -40 L 160 -40 L 80 -40 L 80 -80 L -40 -80" fill="none" stroke="hsl(271, 100%, 72%)" stroke-opacity="0.34" stroke-width="1.4" stroke-linecap="round" stroke-linejoin="round" /><circle cx="-40" cy="-80" r="3.2" fill="hsl(2, 100%, 70%)" fill-opacity="0.85" /><path d="M 200 360 L 360 360 L 240 360 L 120 360 L 120 320 L 120 240 L 120 80 L 120 0" fill="none" stroke="hsl(271, 100%, 72%)" stroke-opacity="0.40" stroke-width="1.4" stroke-linecap="round" stroke-linejoin="round" /><circle cx="120" cy="0" r="3.2" fill="hsl(2, 100%, 70%)" fill-opacity="0.85" /><path d="M 360 120 L 360 -40 L 400 -40 L 320 -40 L 480 -40 L 440 -40 L 440 120 L 440 280 L 440 440" fill="none" stroke="hsl(271, 100%, 72%)" stroke-opacity="0.29" stroke-width="1.4" stroke-linecap="round" stroke-linejoin="round" /><circle cx="440" cy="440" r="3.2" fill="hsl(2, 100%, 70%)" fill-opacity="0.85" /><path d="M 1560 400 L 1560 360 L 1640 360 L 1640 520 L 1640 600 L 1520 600" fill="none" stroke="hsl(271, 100%, 72%)" stroke-opacity="0.36" stroke-width="1.4" stroke-linecap="round" stroke-linejoin="round" /><circle cx="1520" cy="600" r="3.2" fill="hsl(2, 100%, 70%)" fill-opacity="0.85" /><path d="M 520 80 L 520 120 L 520 0 L 440 0 L 520 0 L 480 0 L 400 0" fill="none" stroke="hsl(271, 100%, 72%)" stroke-opacity="0.46" stroke-width="1.4" stroke-linecap="round" stroke-linejoin="round" /><circle cx="400" cy="0" r="3.2" fill="hsl(2, 100%, 70%)" fill-opacity="0.85" /></g>
  <rect width="100%" height="100%" fill="url(#vignette)" />
  <text x="1540" y="550" text-anchor="end" font-family="Inter, sans-serif" font-weight="700" font-size="160" fill="hsl(271, 100%, 72%)" fill-opacity="0.18">09</text>
  <text x="60" y="565" font-family="Inter, sans-serif" font-weight="500" font-size="20" fill="hsl(271, 100%, 72%)" fill-opacity="0.45" letter-spacing="3">CHAPTER 9 · SURVEILLANCE & PRIVACY</text>
</svg>
