<?xml version="1.0" encoding="UTF-8"?>
<svg xmlns="http://www.w3.org/2000/svg" viewBox="0 0 1600 600" width="1600" height="600" preserveAspectRatio="xMidYMid slice" role="img">
  <defs>
    <linearGradient id="bg-grad" x1="0" y1="0" x2="0" y2="1">
      <stop offset="0%" stop-color="hsl(242.39999999999998, 50%, 14%)" />
      <stop offset="100%" stop-color="hsl(242.39999999999998, 60%, 8%)" />
    </linearGradient>
    <radialGradient id="glow" cx="50.0%" cy="35%" r="55%">
      <stop offset="0%" stop-color="hsl(193, 100%, 72%)" stop-opacity="0.5" />
      <stop offset="50%" stop-color="hsl(308, 100%, 70%)" stop-opacity="0.18" />
      <stop offset="100%" stop-color="hsl(242.39999999999998, 60%, 8%)" stop-opacity="0" />
    </radialGradient>
    <linearGradient id="vignette" x1="0" y1="1" x2="0" y2="0">
      <stop offset="0%" stop-color="hsl(242.39999999999998, 60%, 8%)" stop-opacity="0.85" />
      <stop offset="65%" stop-color="hsl(242.39999999999998, 60%, 8%)" stop-opacity="0" />
    </linearGradient>
  </defs>
  <rect width="100%" height="100%" fill="url(#bg-grad)" />
  <rect width="100%" height="100%" fill="url(#glow)" />
  <g><line x1="1321.8" y1="503.0" x2="1408.0" y2="477.1" stroke="hsl(193, 100%, 72%)" stroke-opacity="0.21" stroke-width="0.7" /><line x1="1321.8" y1="503.0" x2="1429.9" y2="358.2" stroke="hsl(193, 100%, 72%)" stroke-opacity="0.06" stroke-width="0.7" /><line x1="1321.8" y1="503.0" x2="1437.4" y2="455.3" stroke="hsl(193, 100%, 72%)" stroke-opacity="0.15" stroke-width="0.7" /><line x1="112.1" y1="281.7" x2="261.6" y2="239.7" stroke="hsl(193, 100%, 72%)" stroke-opacity="0.10" stroke-width="0.7" /><line x1="112.1" y1="281.7" x2="151.0" y2="365.8" stroke="hsl(193, 100%, 72%)" stroke-opacity="0.20" stroke-width="0.7" /><line x1="112.1" y1="281.7" x2="84.0" y2="344.0" stroke="hsl(193, 100%, 72%)" stroke-opacity="0.24" stroke-width="0.7" /><line x1="112.1" y1="281.7" x2="232.2" y2="256.5" stroke="hsl(193, 100%, 72%)" stroke-opacity="0.15" stroke-width="0.7" /><line x1="112.1" y1="281.7" x2="38.5" y2="339.0" stroke="hsl(193, 100%, 72%)" stroke-opacity="0.20" stroke-width="0.7" /><line x1="112.1" y1="281.7" x2="99.0" y2="387.9" stroke="hsl(193, 100%, 72%)" stroke-opacity="0.18" stroke-width="0.7" /><line x1="112.1" y1="281.7" x2="115.2" y2="63.3" stroke="hsl(193, 100%, 72%)" stroke-opacity="0.00" stroke-width="0.7" /><line x1="1049.3" y1="403.9" x2="918.0" y2="346.1" stroke="hsl(193, 100%, 72%)" stroke-opacity="0.12" stroke-width="0.7" /><line x1="1049.3" y1="403.9" x2="1090.4" y2="239.1" stroke="hsl(193, 100%, 72%)" stroke-opacity="0.08" stroke-width="0.7" /><line x1="1049.3" y1="403.9" x2="1139.7" y2="321.4" stroke="hsl(193, 100%, 72%)" stroke-opacity="0.16" stroke-width="0.7" /><line x1="1049.3" y1="403.9" x2="1073.9" y2="270.0" stroke="hsl(193, 100%, 72%)" stroke-opacity="0.13" stroke-width="0.7" /><line x1="992.2" y1="100.0" x2="1090.4" y2="239.1" stroke="hsl(193, 100%, 72%)" stroke-opacity="0.08" stroke-width="0.7" /><line x1="992.2" y1="100.0" x2="1073.9" y2="270.0" stroke="hsl(193, 100%, 72%)" stroke-opacity="0.05" stroke-width="0.7" /><line x1="256.6" y1="97.3" x2="372.3" y2="69.8" stroke="hsl(193, 100%, 72%)" stroke-opacity="0.16" stroke-width="0.7" /><line x1="256.6" y1="97.3" x2="261.6" y2="239.7" stroke="hsl(193, 100%, 72%)" stroke-opacity="0.12" stroke-width="0.7" /><line x1="256.6" y1="97.3" x2="434.8" y2="82.4" stroke="hsl(193, 100%, 72%)" stroke-opacity="0.07" stroke-width="0.7" /><line x1="256.6" y1="97.3" x2="201.9" y2="66.8" stroke="hsl(193, 100%, 72%)" stroke-opacity="0.25" stroke-width="0.7" /><line x1="256.6" y1="97.3" x2="425.8" y2="94.3" stroke="hsl(193, 100%, 72%)" stroke-opacity="0.08" stroke-width="0.7" /><line x1="256.6" y1="97.3" x2="232.2" y2="256.5" stroke="hsl(193, 100%, 72%)" stroke-opacity="0.09" stroke-width="0.7" /><line x1="256.6" y1="97.3" x2="318.5" y2="52.7" stroke="hsl(193, 100%, 72%)" stroke-opacity="0.23" stroke-width="0.7" /><line x1="256.6" y1="97.3" x2="397.0" y2="32.8" stroke="hsl(193, 100%, 72%)" stroke-opacity="0.10" stroke-width="0.7" /><line x1="256.6" y1="97.3" x2="115.2" y2="63.3" stroke="hsl(193, 100%, 72%)" stroke-opacity="0.12" stroke-width="0.7" /><line x1="1577.3" y1="83.9" x2="1397.7" y2="28.8" stroke="hsl(193, 100%, 72%)" stroke-opacity="0.05" stroke-width="0.7" /><line x1="372.3" y1="69.8" x2="261.6" y2="239.7" stroke="hsl(193, 100%, 72%)" stroke-opacity="0.03" stroke-width="0.7" /><line x1="372.3" y1="69.8" x2="434.8" y2="82.4" stroke="hsl(193, 100%, 72%)" stroke-opacity="0.25" stroke-width="0.7" /><line x1="372.3" y1="69.8" x2="201.9" y2="66.8" stroke="hsl(193, 100%, 72%)" stroke-opacity="0.08" stroke-width="0.7" /><line x1="372.3" y1="69.8" x2="425.8" y2="94.3" stroke="hsl(193, 100%, 72%)" stroke-opacity="0.26" stroke-width="0.7" /><line x1="372.3" y1="69.8" x2="318.5" y2="52.7" stroke="hsl(193, 100%, 72%)" stroke-opacity="0.26" stroke-width="0.7" /><line x1="372.3" y1="69.8" x2="397.0" y2="32.8" stroke="hsl(193, 100%, 72%)" stroke-opacity="0.28" stroke-width="0.7" /><line x1="1402.5" y1="247.8" x2="1274.2" y2="154.3" stroke="hsl(193, 100%, 72%)" stroke-opacity="0.10" stroke-width="0.7" /><line x1="1402.5" y1="247.8" x2="1429.9" y2="358.2" stroke="hsl(193, 100%, 72%)" stroke-opacity="0.17" stroke-width="0.7" /><line x1="1402.5" y1="247.8" x2="1397.7" y2="28.8" stroke="hsl(193, 100%, 72%)" stroke-opacity="0.00" stroke-width="0.7" /><line x1="1402.5" y1="247.8" x2="1437.4" y2="455.3" stroke="hsl(193, 100%, 72%)" stroke-opacity="0.02" stroke-width="0.7" /><line x1="786.8" y1="399.3" x2="918.0" y2="346.1" stroke="hsl(193, 100%, 72%)" stroke-opacity="0.12" stroke-width="0.7" /><line x1="786.8" y1="399.3" x2="666.3" y2="573.8" stroke="hsl(193, 100%, 72%)" stroke-opacity="0.01" stroke-width="0.7" /><line x1="786.8" y1="399.3" x2="760.9" y2="365.1" stroke="hsl(193, 100%, 72%)" stroke-opacity="0.28" stroke-width="0.7" /><line x1="261.6" y1="239.7" x2="151.0" y2="365.8" stroke="hsl(193, 100%, 72%)" stroke-opacity="0.08" stroke-width="0.7" /><line x1="261.6" y1="239.7" x2="84.0" y2="344.0" stroke="hsl(193, 100%, 72%)" stroke-opacity="0.02" stroke-width="0.7" /><line x1="261.6" y1="239.7" x2="201.9" y2="66.8" stroke="hsl(193, 100%, 72%)" stroke-opacity="0.06" stroke-width="0.7" /><line x1="261.6" y1="239.7" x2="425.8" y2="94.3" stroke="hsl(193, 100%, 72%)" stroke-opacity="0.00" stroke-width="0.7" /><line x1="261.6" y1="239.7" x2="232.2" y2="256.5" stroke="hsl(193, 100%, 72%)" stroke-opacity="0.30" stroke-width="0.7" /><line x1="261.6" y1="239.7" x2="318.5" y2="52.7" stroke="hsl(193, 100%, 72%)" stroke-opacity="0.04" stroke-width="0.7" /><line x1="918.0" y1="346.1" x2="1090.4" y2="239.1" stroke="hsl(193, 100%, 72%)" stroke-opacity="0.03" stroke-width="0.7" /><line x1="918.0" y1="346.1" x2="1073.9" y2="270.0" stroke="hsl(193, 100%, 72%)" stroke-opacity="0.07" stroke-width="0.7" /><line x1="918.0" y1="346.1" x2="760.9" y2="365.1" stroke="hsl(193, 100%, 72%)" stroke-opacity="0.10" stroke-width="0.7" /><line x1="1408.0" y1="477.1" x2="1429.9" y2="358.2" stroke="hsl(193, 100%, 72%)" stroke-opacity="0.16" stroke-width="0.7" /><line x1="1408.0" y1="477.1" x2="1437.4" y2="455.3" stroke="hsl(193, 100%, 72%)" stroke-opacity="0.29" stroke-width="0.7" /><line x1="151.0" y1="365.8" x2="84.0" y2="344.0" stroke="hsl(193, 100%, 72%)" stroke-opacity="0.24" stroke-width="0.7" /><line x1="151.0" y1="365.8" x2="279.4" y2="498.4" stroke="hsl(193, 100%, 72%)" stroke-opacity="0.06" stroke-width="0.7" /><line x1="151.0" y1="365.8" x2="232.2" y2="256.5" stroke="hsl(193, 100%, 72%)" stroke-opacity="0.13" stroke-width="0.7" /><line x1="151.0" y1="365.8" x2="38.5" y2="339.0" stroke="hsl(193, 100%, 72%)" stroke-opacity="0.17" stroke-width="0.7" /><line x1="151.0" y1="365.8" x2="99.0" y2="387.9" stroke="hsl(193, 100%, 72%)" stroke-opacity="0.26" stroke-width="0.7" /><line x1="84.0" y1="344.0" x2="232.2" y2="256.5" stroke="hsl(193, 100%, 72%)" stroke-opacity="0.08" stroke-width="0.7" /><line x1="84.0" y1="344.0" x2="38.5" y2="339.0" stroke="hsl(193, 100%, 72%)" stroke-opacity="0.28" stroke-width="0.7" /><line x1="84.0" y1="344.0" x2="99.0" y2="387.9" stroke="hsl(193, 100%, 72%)" stroke-opacity="0.28" stroke-width="0.7" /><line x1="1274.2" y1="154.3" x2="1090.4" y2="239.1" stroke="hsl(193, 100%, 72%)" stroke-opacity="0.03" stroke-width="0.7" /><line x1="1274.2" y1="154.3" x2="1397.7" y2="28.8" stroke="hsl(193, 100%, 72%)" stroke-opacity="0.07" stroke-width="0.7" /><line x1="1274.2" y1="154.3" x2="1139.7" y2="321.4" stroke="hsl(193, 100%, 72%)" stroke-opacity="0.01" stroke-width="0.7" /><line x1="434.8" y1="82.4" x2="640.8" y2="47.0" stroke="hsl(193, 100%, 72%)" stroke-opacity="0.02" stroke-width="0.7" /><line x1="434.8" y1="82.4" x2="425.8" y2="94.3" stroke="hsl(193, 100%, 72%)" stroke-opacity="0.33" stroke-width="0.7" /><line x1="434.8" y1="82.4" x2="318.5" y2="52.7" stroke="hsl(193, 100%, 72%)" stroke-opacity="0.16" stroke-width="0.7" /><line x1="434.8" y1="82.4" x2="397.0" y2="32.8" stroke="hsl(193, 100%, 72%)" stroke-opacity="0.25" stroke-width="0.7" /><line x1="279.4" y1="498.4" x2="99.0" y2="387.9" stroke="hsl(193, 100%, 72%)" stroke-opacity="0.01" stroke-width="0.7" /><line x1="43.5" y1="595.9" x2="99.0" y2="387.9" stroke="hsl(193, 100%, 72%)" stroke-opacity="0.01" stroke-width="0.7" /><line x1="201.9" y1="66.8" x2="232.2" y2="256.5" stroke="hsl(193, 100%, 72%)" stroke-opacity="0.04" stroke-width="0.7" /><line x1="201.9" y1="66.8" x2="318.5" y2="52.7" stroke="hsl(193, 100%, 72%)" stroke-opacity="0.16" stroke-width="0.7" /><line x1="201.9" y1="66.8" x2="397.0" y2="32.8" stroke="hsl(193, 100%, 72%)" stroke-opacity="0.03" stroke-width="0.7" /><line x1="201.9" y1="66.8" x2="115.2" y2="63.3" stroke="hsl(193, 100%, 72%)" stroke-opacity="0.21" stroke-width="0.7" /><line x1="1090.4" y1="239.1" x2="1139.7" y2="321.4" stroke="hsl(193, 100%, 72%)" stroke-opacity="0.20" stroke-width="0.7" /><line x1="1090.4" y1="239.1" x2="1073.9" y2="270.0" stroke="hsl(193, 100%, 72%)" stroke-opacity="0.29" stroke-width="0.7" /><line x1="640.8" y1="47.0" x2="734.2" y2="22.0" stroke="hsl(193, 100%, 72%)" stroke-opacity="0.20" stroke-width="0.7" /><line x1="1429.9" y1="358.2" x2="1437.4" y2="455.3" stroke="hsl(193, 100%, 72%)" stroke-opacity="0.20" stroke-width="0.7" /><line x1="1139.7" y1="321.4" x2="1073.9" y2="270.0" stroke="hsl(193, 100%, 72%)" stroke-opacity="0.22" stroke-width="0.7" /><line x1="425.8" y1="94.3" x2="318.5" y2="52.7" stroke="hsl(193, 100%, 72%)" stroke-opacity="0.17" stroke-width="0.7" /><line x1="425.8" y1="94.3" x2="397.0" y2="32.8" stroke="hsl(193, 100%, 72%)" stroke-opacity="0.24" stroke-width="0.7" /><line x1="458.9" y1="369.7" x2="477.9" y2="324.6" stroke="hsl(193, 100%, 72%)" stroke-opacity="0.27" stroke-width="0.7" /><line x1="232.2" y1="256.5" x2="38.5" y2="339.0" stroke="hsl(193, 100%, 72%)" stroke-opacity="0.02" stroke-width="0.7" /><line x1="232.2" y1="256.5" x2="99.0" y2="387.9" stroke="hsl(193, 100%, 72%)" stroke-opacity="0.05" stroke-width="0.7" /><line x1="318.5" y1="52.7" x2="397.0" y2="32.8" stroke="hsl(193, 100%, 72%)" stroke-opacity="0.22" stroke-width="0.7" /><line x1="318.5" y1="52.7" x2="115.2" y2="63.3" stroke="hsl(193, 100%, 72%)" stroke-opacity="0.03" stroke-width="0.7" /><line x1="38.5" y1="339.0" x2="99.0" y2="387.9" stroke="hsl(193, 100%, 72%)" stroke-opacity="0.23" stroke-width="0.7" /><circle cx="1321.8" cy="503.0" r="2.5" fill="hsl(308, 100%, 70%)" fill-opacity="0.85" /><circle cx="112.1" cy="281.7" r="2.5" fill="hsl(308, 100%, 70%)" fill-opacity="0.85" /><circle cx="1049.3" cy="403.9" r="2.5" fill="hsl(308, 100%, 70%)" fill-opacity="0.85" /><circle cx="992.2" cy="100.0" r="2.5" fill="hsl(308, 100%, 70%)" fill-opacity="0.85" /><circle cx="256.6" cy="97.3" r="2.5" fill="hsl(308, 100%, 70%)" fill-opacity="0.85" /><circle cx="1577.3" cy="83.9" r="2.5" fill="hsl(308, 100%, 70%)" fill-opacity="0.85" /><circle cx="372.3" cy="69.8" r="2.5" fill="hsl(308, 100%, 70%)" fill-opacity="0.85" /><circle cx="1402.5" cy="247.8" r="2.5" fill="hsl(308, 100%, 70%)" fill-opacity="0.85" /><circle cx="786.8" cy="399.3" r="2.5" fill="hsl(308, 100%, 70%)" fill-opacity="0.85" /><circle cx="261.6" cy="239.7" r="2.5" fill="hsl(308, 100%, 70%)" fill-opacity="0.85" /><circle cx="918.0" cy="346.1" r="2.5" fill="hsl(308, 100%, 70%)" fill-opacity="0.85" /><circle cx="1408.0" cy="477.1" r="2.5" fill="hsl(308, 100%, 70%)" fill-opacity="0.85" /><circle cx="151.0" cy="365.8" r="2.5" fill="hsl(308, 100%, 70%)" fill-opacity="0.85" /><circle cx="84.0" cy="344.0" r="2.5" fill="hsl(308, 100%, 70%)" fill-opacity="0.85" /><circle cx="1274.2" cy="154.3" r="2.5" fill="hsl(308, 100%, 70%)" fill-opacity="0.85" /><circle cx="434.8" cy="82.4" r="2.5" fill="hsl(308, 100%, 70%)" fill-opacity="0.85" /><circle cx="279.4" cy="498.4" r="2.5" fill="hsl(308, 100%, 70%)" fill-opacity="0.85" /><circle cx="43.5" cy="595.9" r="2.5" fill="hsl(308, 100%, 70%)" fill-opacity="0.85" /><circle cx="201.9" cy="66.8" r="2.5" fill="hsl(308, 100%, 70%)" fill-opacity="0.85" /><circle cx="1090.4" cy="239.1" r="2.5" fill="hsl(308, 100%, 70%)" fill-opacity="0.85" /><circle cx="640.8" cy="47.0" r="2.5" fill="hsl(308, 100%, 70%)" fill-opacity="0.85" /><circle cx="1429.9" cy="358.2" r="2.5" fill="hsl(308, 100%, 70%)" fill-opacity="0.85" /><circle cx="666.3" cy="573.8" r="2.5" fill="hsl(308, 100%, 70%)" fill-opacity="0.85" /><circle cx="1397.7" cy="28.8" r="2.5" fill="hsl(308, 100%, 70%)" fill-opacity="0.85" /><circle cx="1139.7" cy="321.4" r="2.5" fill="hsl(308, 100%, 70%)" fill-opacity="0.85" /><circle cx="425.8" cy="94.3" r="2.5" fill="hsl(308, 100%, 70%)" fill-opacity="0.85" /><circle cx="458.9" cy="369.7" r="2.5" fill="hsl(308, 100%, 70%)" fill-opacity="0.85" /><circle cx="1437.4" cy="455.3" r="2.5" fill="hsl(308, 100%, 70%)" fill-opacity="0.85" /><circle cx="232.2" cy="256.5" r="2.5" fill="hsl(308, 100%, 70%)" fill-opacity="0.85" /><circle cx="318.5" cy="52.7" r="2.5" fill="hsl(308, 100%, 70%)" fill-opacity="0.85" /><circle cx="38.5" cy="339.0" r="2.5" fill="hsl(308, 100%, 70%)" fill-opacity="0.85" /><circle cx="1073.9" cy="270.0" r="2.5" fill="hsl(308, 100%, 70%)" fill-opacity="0.85" /><circle cx="734.2" cy="22.0" r="2.5" fill="hsl(308, 100%, 70%)" fill-opacity="0.85" /><circle cx="397.0" cy="32.8" r="2.5" fill="hsl(308, 100%, 70%)" fill-opacity="0.85" /><circle cx="477.9" cy="324.6" r="2.5" fill="hsl(308, 100%, 70%)" fill-opacity="0.85" /><circle cx="760.9" cy="365.1" r="2.5" fill="hsl(308, 100%, 70%)" fill-opacity="0.85" /><circle cx="99.0" cy="387.9" r="2.5" fill="hsl(308, 100%, 70%)" fill-opacity="0.85" /><circle cx="115.2" cy="63.3" r="2.5" fill="hsl(308, 100%, 70%)" fill-opacity="0.85" /></g>
  <rect width="100%" height="100%" fill="url(#vignette)" />
  <text x="1540" y="550" text-anchor="end" font-family="Inter, sans-serif" font-weight="700" font-size="160" fill="hsl(193, 100%, 72%)" fill-opacity="0.18">02</text>
  <text x="60" y="565" font-family="Inter, sans-serif" font-weight="500" font-size="20" fill="hsl(193, 100%, 72%)" fill-opacity="0.45" letter-spacing="3">CHAPTER 2 · ETHICAL RELATIVISM</text>
</svg>
