<?xml version="1.0" encoding="UTF-8"?>
<svg xmlns="http://www.w3.org/2000/svg" viewBox="0 0 1600 600" width="1600" height="600" preserveAspectRatio="xMidYMid slice" role="img">
  <defs>
    <linearGradient id="bg-grad" x1="0" y1="0" x2="0" y2="1">
      <stop offset="0%" stop-color="hsl(243.60000000000002, 50%, 14%)" />
      <stop offset="100%" stop-color="hsl(243.60000000000002, 60%, 8%)" />
    </linearGradient>
    <radialGradient id="glow" cx="40.0%" cy="35%" r="55%">
      <stop offset="0%" stop-color="hsl(199, 100%, 72%)" stop-opacity="0.5" />
      <stop offset="50%" stop-color="hsl(312, 100%, 70%)" stop-opacity="0.18" />
      <stop offset="100%" stop-color="hsl(243.60000000000002, 60%, 8%)" stop-opacity="0" />
    </radialGradient>
    <linearGradient id="vignette" x1="0" y1="1" x2="0" y2="0">
      <stop offset="0%" stop-color="hsl(243.60000000000002, 60%, 8%)" stop-opacity="0.85" />
      <stop offset="65%" stop-color="hsl(243.60000000000002, 60%, 8%)" stop-opacity="0" />
    </linearGradient>
  </defs>
  <rect width="100%" height="100%" fill="url(#bg-grad)" />
  <rect width="100%" height="100%" fill="url(#glow)" />
  <g><path d="M 1120 440 L 1120 320 L 1120 240 L 1120 280 L 1120 360 L 1280 360 L 1440 360 L 1560 360 L 1560 480" fill="none" stroke="hsl(199, 100%, 72%)" stroke-opacity="0.36" stroke-width="1.4" stroke-linecap="round" stroke-linejoin="round" /><circle cx="1560" cy="480" r="3.2" fill="hsl(312, 100%, 70%)" fill-opacity="0.85" /><path d="M 1600 600 L 1720 600 L 1720 480 L 1600 480 L 1560 480" fill="none" stroke="hsl(199, 100%, 72%)" stroke-opacity="0.30" stroke-width="1.4" stroke-linecap="round" stroke-linejoin="round" /><circle cx="1560" cy="480" r="3.2" fill="hsl(312, 100%, 70%)" fill-opacity="0.85" /><path d="M 840 240 L 840 360 L 800 360 L 800 400 L 800 360 L 800 440" fill="none" stroke="hsl(199, 100%, 72%)" stroke-opacity="0.30" stroke-width="1.4" stroke-linecap="round" stroke-linejoin="round" /><circle cx="800" cy="440" r="3.2" fill="hsl(312, 100%, 70%)" fill-opacity="0.85" /><path d="M 320 280 L 320 400 L 280 400 L 280 320 L 280 240" fill="none" stroke="hsl(199, 100%, 72%)" stroke-opacity="0.39" stroke-width="1.4" stroke-linecap="round" stroke-linejoin="round" /><circle cx="280" cy="240" r="3.2" fill="hsl(312, 100%, 70%)" fill-opacity="0.85" /><path d="M 720 280 L 800 280 L 640 280 L 640 160 L 640 240 L 680 240" fill="none" stroke="hsl(199, 100%, 72%)" stroke-opacity="0.30" stroke-width="1.4" stroke-linecap="round" stroke-linejoin="round" /><circle cx="680" cy="240" r="3.2" fill="hsl(312, 100%, 70%)" fill-opacity="0.85" /><path d="M 360 440 L 280 440 L 280 480 L 280 640 L 120 640 L 280 640" fill="none" stroke="hsl(199, 100%, 72%)" stroke-opacity="0.20" stroke-width="1.4" stroke-linecap="round" stroke-linejoin="round" /><circle cx="280" cy="640" r="3.2" fill="hsl(312, 100%, 70%)" fill-opacity="0.85" /><path d="M 320 200 L 320 280 L 320 160 L 240 160 L 160 160 L 160 40" fill="none" stroke="hsl(199, 100%, 72%)" stroke-opacity="0.33" stroke-width="1.4" stroke-linecap="round" stroke-linejoin="round" /><circle cx="160" cy="40" r="3.2" fill="hsl(312, 100%, 70%)" fill-opacity="0.85" /><path d="M 200 240 L 200 200 L 280 200 L 120 200 L 280 200 L 400 200" fill="none" stroke="hsl(199, 100%, 72%)" stroke-opacity="0.28" stroke-width="1.4" stroke-linecap="round" stroke-linejoin="round" /><circle cx="400" cy="200" r="3.2" fill="hsl(312, 100%, 70%)" fill-opacity="0.85" /><path d="M 1360 240 L 1360 200 L 1360 240 L 1360 360 L 1400 360 L 1440 360 L 1560 360 L 1720 360" fill="none" stroke="hsl(199, 100%, 72%)" stroke-opacity="0.24" stroke-width="1.4" stroke-linecap="round" stroke-linejoin="round" /><circle cx="1720" cy="360" r="3.2" fill="hsl(312, 100%, 70%)" fill-opacity="0.85" /><path d="M 800 200 L 800 240 L 880 240 L 880 400 L 840 400 L 840 240" fill="none" stroke="hsl(199, 100%, 72%)" stroke-opacity="0.36" stroke-width="1.4" stroke-linecap="round" stroke-linejoin="round" /><circle cx="840" cy="240" r="3.2" fill="hsl(312, 100%, 70%)" fill-opacity="0.85" /><path d="M 200 520 L 200 360 L 360 360 L 200 360 L 200 200 L 320 200" fill="none" stroke="hsl(199, 100%, 72%)" stroke-opacity="0.39" stroke-width="1.4" stroke-linecap="round" stroke-linejoin="round" /><circle cx="320" cy="200" r="3.2" fill="hsl(312, 100%, 70%)" fill-opacity="0.85" /><path d="M 320 200 L 320 240 L 320 80 L 440 80 L 440 240 L 320 240" fill="none" stroke="hsl(199, 100%, 72%)" stroke-opacity="0.43" stroke-width="1.4" stroke-linecap="round" stroke-linejoin="round" /><circle cx="320" cy="240" r="3.2" fill="hsl(312, 100%, 70%)" fill-opacity="0.85" /><path d="M 1360 400 L 1360 360 L 1360 280 L 1360 440 L 1200 440 L 1320 440" fill="none" stroke="hsl(199, 100%, 72%)" stroke-opacity="0.47" stroke-width="1.4" stroke-linecap="round" stroke-linejoin="round" /><circle cx="1320" cy="440" r="3.2" fill="hsl(312, 100%, 70%)" fill-opacity="0.85" /><path d="M 520 440 L 360 440 L 360 600 L 360 640 L 360 760 L 360 920 L 240 920" fill="none" stroke="hsl(199, 100%, 72%)" stroke-opacity="0.29" stroke-width="1.4" stroke-linecap="round" stroke-linejoin="round" /><circle cx="240" cy="920" r="3.2" fill="hsl(312, 100%, 70%)" fill-opacity="0.85" /><path d="M 560 240 L 560 320 L 600 320 L 480 320 L 560 320 L 560 400 L 400 400 L 400 240" fill="none" stroke="hsl(199, 100%, 72%)" stroke-opacity="0.27" stroke-width="1.4" stroke-linecap="round" stroke-linejoin="round" /><circle cx="400" cy="240" r="3.2" fill="hsl(312, 100%, 70%)" fill-opacity="0.85" /><path d="M 600 200 L 600 240 L 480 240 L 360 240 L 360 280" fill="none" stroke="hsl(199, 100%, 72%)" stroke-opacity="0.26" stroke-width="1.4" stroke-linecap="round" stroke-linejoin="round" /><circle cx="360" cy="280" r="3.2" fill="hsl(312, 100%, 70%)" fill-opacity="0.85" /><path d="M 1480 240 L 1480 320 L 1440 320 L 1560 320 L 1560 160 L 1720 160 L 1840 160 L 1920 160 L 2000 160" fill="none" stroke="hsl(199, 100%, 72%)" stroke-opacity="0.36" stroke-width="1.4" stroke-linecap="round" stroke-linejoin="round" /><circle cx="2000" cy="160" r="3.2" fill="hsl(312, 100%, 70%)" fill-opacity="0.85" /><path d="M 880 40 L 880 160 L 880 200 L 840 200 L 680 200 L 680 120 L 680 -40" fill="none" stroke="hsl(199, 100%, 72%)" stroke-opacity="0.30" stroke-width="1.4" stroke-linecap="round" stroke-linejoin="round" /><circle cx="680" cy="-40" r="3.2" fill="hsl(312, 100%, 70%)" fill-opacity="0.85" /><path d="M 80 400 L 80 280 L 80 160 L 240 160 L 240 280 L 320 280 L 320 320" fill="none" stroke="hsl(199, 100%, 72%)" stroke-opacity="0.30" stroke-width="1.4" stroke-linecap="round" stroke-linejoin="round" /><circle cx="320" cy="320" r="3.2" fill="hsl(312, 100%, 70%)" fill-opacity="0.85" /><path d="M 1080 0 L 1080 -120 L 1080 -200 L 1080 -360 L 1080 -440 L 1080 -480" fill="none" stroke="hsl(199, 100%, 72%)" stroke-opacity="0.27" stroke-width="1.4" stroke-linecap="round" stroke-linejoin="round" /><circle cx="1080" cy="-480" r="3.2" fill="hsl(312, 100%, 70%)" fill-opacity="0.85" /><path d="M 1520 480 L 1680 480 L 1640 480 L 1640 520 L 1640 680" fill="none" stroke="hsl(199, 100%, 72%)" stroke-opacity="0.46" stroke-width="1.4" stroke-linecap="round" stroke-linejoin="round" /><circle cx="1640" cy="680" r="3.2" fill="hsl(312, 100%, 70%)" fill-opacity="0.85" /><path d="M 480 80 L 560 80 L 400 80 L 520 80 L 520 0 L 520 -120 L 360 -120 L 360 0 L 400 0" fill="none" stroke="hsl(199, 100%, 72%)" stroke-opacity="0.26" stroke-width="1.4" stroke-linecap="round" stroke-linejoin="round" /><circle cx="400" cy="0" r="3.2" fill="hsl(312, 100%, 70%)" fill-opacity="0.85" /><path d="M 320 520 L 320 600 L 320 440 L 360 440 L 480 440 L 560 440 L 560 560 L 640 560" fill="none" stroke="hsl(199, 100%, 72%)" stroke-opacity="0.42" stroke-width="1.4" stroke-linecap="round" stroke-linejoin="round" /><circle cx="640" cy="560" r="3.2" fill="hsl(312, 100%, 70%)" fill-opacity="0.85" /><path d="M 80 240 L 80 200 L 80 240 L 40 240 L 40 80 L 40 40 L 80 40" fill="none" stroke="hsl(199, 100%, 72%)" stroke-opacity="0.44" stroke-width="1.4" stroke-linecap="round" stroke-linejoin="round" /><circle cx="80" cy="40" r="3.2" fill="hsl(312, 100%, 70%)" fill-opacity="0.85" /><path d="M 320 80 L 320 240 L 320 120 L 400 120 L 400 40 L 520 40 L 640 40 L 640 160" fill="none" stroke="hsl(199, 100%, 72%)" stroke-opacity="0.32" stroke-width="1.4" stroke-linecap="round" stroke-linejoin="round" /><circle cx="640" cy="160" r="3.2" fill="hsl(312, 100%, 70%)" fill-opacity="0.85" /><path d="M 1280 80 L 1280 40 L 1120 40 L 1000 40 L 920 40 L 760 40 L 760 120 L 760 -40" fill="none" stroke="hsl(199, 100%, 72%)" stroke-opacity="0.44" stroke-width="1.4" stroke-linecap="round" stroke-linejoin="round" /><circle cx="760" cy="-40" r="3.2" fill="hsl(312, 100%, 70%)" fill-opacity="0.85" /></g>
  <rect width="100%" height="100%" fill="url(#vignette)" />
  <text x="1540" y="550" text-anchor="end" font-family="Inter, sans-serif" font-weight="700" font-size="160" fill="hsl(199, 100%, 72%)" fill-opacity="0.18">12</text>
  <text x="60" y="565" font-family="Inter, sans-serif" font-weight="500" font-size="20" fill="hsl(199, 100%, 72%)" fill-opacity="0.45" letter-spacing="3">CHAPTER 12 · AI & CARE ETHICS</text>
</svg>
