<?xml version="1.0" encoding="UTF-8"?>
<svg xmlns="http://www.w3.org/2000/svg" viewBox="0 0 1600 600" width="1600" height="600" preserveAspectRatio="xMidYMid slice" role="img">
  <defs>
    <linearGradient id="bg-grad" x1="0" y1="0" x2="0" y2="1">
      <stop offset="0%" stop-color="hsl(236.39999999999998, 50%, 14%)" />
      <stop offset="100%" stop-color="hsl(236.39999999999998, 60%, 8%)" />
    </linearGradient>
    <radialGradient id="glow" cx="70.0%" cy="35%" r="55%">
      <stop offset="0%" stop-color="hsl(163, 100%, 72%)" stop-opacity="0.5" />
      <stop offset="50%" stop-color="hsl(287, 100%, 70%)" stop-opacity="0.18" />
      <stop offset="100%" stop-color="hsl(236.39999999999998, 60%, 8%)" stop-opacity="0" />
    </radialGradient>
    <linearGradient id="vignette" x1="0" y1="1" x2="0" y2="0">
      <stop offset="0%" stop-color="hsl(236.39999999999998, 60%, 8%)" stop-opacity="0.85" />
      <stop offset="65%" stop-color="hsl(236.39999999999998, 60%, 8%)" stop-opacity="0" />
    </linearGradient>
  </defs>
  <rect width="100%" height="100%" fill="url(#bg-grad)" />
  <rect width="100%" height="100%" fill="url(#glow)" />
  <g><circle cx="1016.3" cy="371.3" r="2.6" fill="hsl(163, 100%, 72%)" fill-opacity="0.64" /><circle cx="1041.3" cy="286.1" r="2.1" fill="hsl(163, 100%, 72%)" fill-opacity="0.68" /><circle cx="889.9" cy="385.2" r="3.7" fill="hsl(163, 100%, 72%)" fill-opacity="0.45" /><circle cx="1313.4" cy="397.3" r="4.1" fill="hsl(163, 100%, 72%)" fill-opacity="0.69" /><circle cx="896.5" cy="177.5" r="5.5" fill="hsl(163, 100%, 72%)" fill-opacity="0.57" /><circle cx="1193.4" cy="373.8" r="2.5" fill="hsl(163, 100%, 72%)" fill-opacity="0.66" /><circle cx="850.9" cy="433.2" r="2.3" fill="hsl(163, 100%, 72%)" fill-opacity="0.50" /><circle cx="1027.2" cy="333.8" r="4.5" fill="hsl(163, 100%, 72%)" fill-opacity="0.55" /><circle cx="892.3" cy="339.2" r="2.7" fill="hsl(163, 100%, 72%)" fill-opacity="0.68" /><circle cx="1019.7" cy="331.5" r="5.5" fill="hsl(163, 100%, 72%)" fill-opacity="0.66" /><circle cx="1112.2" cy="436.3" r="3.9" fill="hsl(163, 100%, 72%)" fill-opacity="0.28" /><circle cx="1094.8" cy="291.1" r="2.1" fill="hsl(163, 100%, 72%)" fill-opacity="0.32" /><circle cx="943.4" cy="305.1" r="4.3" fill="hsl(163, 100%, 72%)" fill-opacity="0.33" /><circle cx="986.5" cy="229.7" r="5.7" fill="hsl(163, 100%, 72%)" fill-opacity="0.65" /><circle cx="890.7" cy="485.3" r="3.9" fill="hsl(163, 100%, 72%)" fill-opacity="0.36" /><circle cx="898.6" cy="262.4" r="3.9" fill="hsl(163, 100%, 72%)" fill-opacity="0.69" /><circle cx="989.5" cy="380.4" r="5.6" fill="hsl(163, 100%, 72%)" fill-opacity="0.32" /><line x1="960" y1="360" x2="989.5" y2="380.4" stroke="hsl(163, 100%, 72%)" stroke-opacity="0.08" stroke-width="0.6" /><circle cx="1056.5" cy="390.7" r="2.0" fill="hsl(163, 100%, 72%)" fill-opacity="0.69" /><circle cx="812.2" cy="307.0" r="5.2" fill="hsl(163, 100%, 72%)" fill-opacity="0.65" /><line x1="960" y1="360" x2="812.2" y2="307.0" stroke="hsl(163, 100%, 72%)" stroke-opacity="0.08" stroke-width="0.6" /><circle cx="1021.5" cy="297.2" r="2.0" fill="hsl(163, 100%, 72%)" fill-opacity="0.57" /><circle cx="1134.1" cy="231.6" r="4.9" fill="hsl(163, 100%, 72%)" fill-opacity="0.45" /><circle cx="1196.6" cy="365.0" r="3.7" fill="hsl(163, 100%, 72%)" fill-opacity="0.60" /><circle cx="866.6" cy="352.7" r="5.2" fill="hsl(163, 100%, 72%)" fill-opacity="0.45" /><circle cx="1201.6" cy="350.2" r="3.5" fill="hsl(163, 100%, 72%)" fill-opacity="0.26" /><circle cx="819.3" cy="314.6" r="2.7" fill="hsl(163, 100%, 72%)" fill-opacity="0.59" /><circle cx="908.0" cy="400.0" r="3.0" fill="hsl(163, 100%, 72%)" fill-opacity="0.54" /><line x1="960" y1="360" x2="908.0" y2="400.0" stroke="hsl(163, 100%, 72%)" stroke-opacity="0.08" stroke-width="0.6" /><circle cx="957.4" cy="476.1" r="2.9" fill="hsl(163, 100%, 72%)" fill-opacity="0.45" /><circle cx="1100.8" cy="202.0" r="2.7" fill="hsl(163, 100%, 72%)" fill-opacity="0.66" /><line x1="960" y1="360" x2="1100.8" y2="202.0" stroke="hsl(163, 100%, 72%)" stroke-opacity="0.08" stroke-width="0.6" /><circle cx="678.4" cy="284.1" r="4.7" fill="hsl(163, 100%, 72%)" fill-opacity="0.61" /><circle cx="893.3" cy="403.5" r="3.8" fill="hsl(163, 100%, 72%)" fill-opacity="0.68" /><circle cx="1007.0" cy="421.3" r="5.3" fill="hsl(163, 100%, 72%)" fill-opacity="0.46" /><circle cx="615.6" cy="376.0" r="4.2" fill="hsl(163, 100%, 72%)" fill-opacity="0.33" /><circle cx="1091.3" cy="243.4" r="4.8" fill="hsl(163, 100%, 72%)" fill-opacity="0.44" /><circle cx="704.6" cy="359.0" r="5.6" fill="hsl(163, 100%, 72%)" fill-opacity="0.67" /><circle cx="1082.1" cy="194.5" r="2.1" fill="hsl(163, 100%, 72%)" fill-opacity="0.35" /><circle cx="971.2" cy="419.4" r="2.6" fill="hsl(163, 100%, 72%)" fill-opacity="0.30" /><line x1="960" y1="360" x2="971.2" y2="419.4" stroke="hsl(163, 100%, 72%)" stroke-opacity="0.08" stroke-width="0.6" /><circle cx="737.3" cy="424.8" r="5.6" fill="hsl(163, 100%, 72%)" fill-opacity="0.30" /><circle cx="896.9" cy="393.7" r="5.4" fill="hsl(163, 100%, 72%)" fill-opacity="0.35" /><circle cx="882.6" cy="503.4" r="2.7" fill="hsl(163, 100%, 72%)" fill-opacity="0.43" /><circle cx="973.0" cy="415.4" r="2.7" fill="hsl(163, 100%, 72%)" fill-opacity="0.69" /><circle cx="1092.6" cy="405.5" r="5.4" fill="hsl(163, 100%, 72%)" fill-opacity="0.72" /><circle cx="1141.3" cy="270.5" r="3.7" fill="hsl(163, 100%, 72%)" fill-opacity="0.49" /><line x1="960" y1="360" x2="1141.3" y2="270.5" stroke="hsl(163, 100%, 72%)" stroke-opacity="0.08" stroke-width="0.6" /><circle cx="970.1" cy="439.5" r="3.7" fill="hsl(163, 100%, 72%)" fill-opacity="0.49" /><circle cx="1010.2" cy="454.1" r="2.5" fill="hsl(163, 100%, 72%)" fill-opacity="0.40" /><circle cx="938.0" cy="329.3" r="2.8" fill="hsl(163, 100%, 72%)" fill-opacity="0.49" /><circle cx="753.9" cy="422.0" r="2.7" fill="hsl(163, 100%, 72%)" fill-opacity="0.47" /><line x1="960" y1="360" x2="753.9" y2="422.0" stroke="hsl(163, 100%, 72%)" stroke-opacity="0.08" stroke-width="0.6" /><circle cx="649.4" cy="328.1" r="2.5" fill="hsl(163, 100%, 72%)" fill-opacity="0.61" /><circle cx="689.6" cy="454.8" r="4.5" fill="hsl(163, 100%, 72%)" fill-opacity="0.52" /><circle cx="911.8" cy="214.1" r="2.7" fill="hsl(163, 100%, 72%)" fill-opacity="0.50" /><circle cx="936.2" cy="269.2" r="3.4" fill="hsl(163, 100%, 72%)" fill-opacity="0.25" /><circle cx="1003.3" cy="364.8" r="2.5" fill="hsl(163, 100%, 72%)" fill-opacity="0.49" /><line x1="960" y1="360" x2="1003.3" y2="364.8" stroke="hsl(163, 100%, 72%)" stroke-opacity="0.08" stroke-width="0.6" /><circle cx="1099.6" cy="438.8" r="4.0" fill="hsl(163, 100%, 72%)" fill-opacity="0.37" /><circle cx="1020.9" cy="433.5" r="3.5" fill="hsl(163, 100%, 72%)" fill-opacity="0.37" /><line x1="960" y1="360" x2="1020.9" y2="433.5" stroke="hsl(163, 100%, 72%)" stroke-opacity="0.08" stroke-width="0.6" /><circle cx="811.4" cy="244.2" r="4.3" fill="hsl(163, 100%, 72%)" fill-opacity="0.36" /><line x1="960" y1="360" x2="811.4" y2="244.2" stroke="hsl(163, 100%, 72%)" stroke-opacity="0.08" stroke-width="0.6" /><circle cx="1009.0" cy="181.3" r="5.5" fill="hsl(163, 100%, 72%)" fill-opacity="0.70" /><circle cx="842.2" cy="264.7" r="5.3" fill="hsl(163, 100%, 72%)" fill-opacity="0.74" /><circle cx="955.3" cy="292.4" r="2.9" fill="hsl(163, 100%, 72%)" fill-opacity="0.54" /><line x1="960" y1="360" x2="955.3" y2="292.4" stroke="hsl(163, 100%, 72%)" stroke-opacity="0.08" stroke-width="0.6" /><circle cx="1017.0" cy="435.2" r="2.6" fill="hsl(163, 100%, 72%)" fill-opacity="0.26" /><line x1="960" y1="360" x2="1017.0" y2="435.2" stroke="hsl(163, 100%, 72%)" stroke-opacity="0.08" stroke-width="0.6" /><circle cx="929.0" cy="274.7" r="4.8" fill="hsl(163, 100%, 72%)" fill-opacity="0.50" /><circle cx="803.1" cy="306.8" r="3.1" fill="hsl(163, 100%, 72%)" fill-opacity="0.74" /><line x1="960" y1="360" x2="803.1" y2="306.8" stroke="hsl(163, 100%, 72%)" stroke-opacity="0.08" stroke-width="0.6" /><circle cx="854.7" cy="518.8" r="3.3" fill="hsl(163, 100%, 72%)" fill-opacity="0.57" /><line x1="960" y1="360" x2="854.7" y2="518.8" stroke="hsl(163, 100%, 72%)" stroke-opacity="0.08" stroke-width="0.6" /><circle cx="1128.8" cy="492.4" r="3.0" fill="hsl(163, 100%, 72%)" fill-opacity="0.59" /><circle cx="688.0" cy="429.2" r="3.9" fill="hsl(163, 100%, 72%)" fill-opacity="0.65" /><circle cx="1282.8" cy="412.6" r="4.3" fill="hsl(163, 100%, 72%)" fill-opacity="0.68" /><circle cx="736.2" cy="303.4" r="5.2" fill="hsl(163, 100%, 72%)" fill-opacity="0.74" /><line x1="960" y1="360" x2="736.2" y2="303.4" stroke="hsl(163, 100%, 72%)" stroke-opacity="0.08" stroke-width="0.6" /><circle cx="1078.5" cy="377.5" r="3.3" fill="hsl(163, 100%, 72%)" fill-opacity="0.29" /><circle cx="761.9" cy="305.5" r="4.8" fill="hsl(163, 100%, 72%)" fill-opacity="0.28" /><line x1="960" y1="360" x2="761.9" y2="305.5" stroke="hsl(163, 100%, 72%)" stroke-opacity="0.08" stroke-width="0.6" /><circle cx="753.1" cy="265.1" r="4.7" fill="hsl(163, 100%, 72%)" fill-opacity="0.56" /><line x1="960" y1="360" x2="753.1" y2="265.1" stroke="hsl(163, 100%, 72%)" stroke-opacity="0.08" stroke-width="0.6" /><circle cx="1286.4" cy="311.9" r="4.3" fill="hsl(163, 100%, 72%)" fill-opacity="0.43" /><circle cx="1038.7" cy="262.8" r="5.6" fill="hsl(163, 100%, 72%)" fill-opacity="0.74" /><circle cx="819.8" cy="507.8" r="2.1" fill="hsl(163, 100%, 72%)" fill-opacity="0.69" /><circle cx="907.2" cy="321.7" r="3.3" fill="hsl(163, 100%, 72%)" fill-opacity="0.75" /><circle cx="940.4" cy="321.1" r="5.4" fill="hsl(163, 100%, 72%)" fill-opacity="0.36" /><circle cx="1080.7" cy="301.0" r="2.5" fill="hsl(163, 100%, 72%)" fill-opacity="0.66" /><circle cx="1227.0" cy="344.0" r="3.9" fill="hsl(163, 100%, 72%)" fill-opacity="0.37" /><circle cx="770.1" cy="456.5" r="4.1" fill="hsl(163, 100%, 72%)" fill-opacity="0.29" /><circle cx="918.0" cy="293.9" r="5.8" fill="hsl(163, 100%, 72%)" fill-opacity="0.69" /><circle cx="1050.2" cy="490.6" r="3.2" fill="hsl(163, 100%, 72%)" fill-opacity="0.50" /><line x1="960" y1="360" x2="1050.2" y2="490.6" stroke="hsl(163, 100%, 72%)" stroke-opacity="0.08" stroke-width="0.6" /><circle cx="956.2" cy="485.3" r="5.6" fill="hsl(163, 100%, 72%)" fill-opacity="0.51" /><line x1="960" y1="360" x2="956.2" y2="485.3" stroke="hsl(163, 100%, 72%)" stroke-opacity="0.08" stroke-width="0.6" /><circle cx="732.5" cy="496.9" r="4.7" fill="hsl(163, 100%, 72%)" fill-opacity="0.59" /><circle cx="960" cy="360" r="14" fill="hsl(287, 100%, 70%)" fill-opacity="0.85" /><circle cx="960" cy="360" r="22" fill="none" stroke="hsl(287, 100%, 70%)" stroke-opacity="0.5" stroke-width="1.2" /></g>
  <rect width="100%" height="100%" fill="url(#vignette)" />
  <text x="1540" y="550" text-anchor="end" font-family="Inter, sans-serif" font-weight="700" font-size="160" fill="hsl(163, 100%, 72%)" fill-opacity="0.18">04</text>
  <text x="60" y="565" font-family="Inter, sans-serif" font-weight="500" font-size="20" fill="hsl(163, 100%, 72%)" fill-opacity="0.45" letter-spacing="3">CHAPTER 4 · SOCIAL MEDIA & ETHICAL EGOISM</text>
</svg>
