<?xml version="1.0" encoding="UTF-8"?>
<svg xmlns="http://www.w3.org/2000/svg" viewBox="0 0 1600 600" width="1600" height="600" preserveAspectRatio="xMidYMid slice" role="img">
  <defs>
    <linearGradient id="bg-grad" x1="0" y1="0" x2="0" y2="1">
      <stop offset="0%" stop-color="hsl(264, 50%, 14%)" />
      <stop offset="100%" stop-color="hsl(264, 60%, 8%)" />
    </linearGradient>
    <radialGradient id="glow" cx="50.0%" cy="35%" r="55%">
      <stop offset="0%" stop-color="hsl(301, 100%, 72%)" stop-opacity="0.5" />
      <stop offset="50%" stop-color="hsl(24, 100%, 70%)" stop-opacity="0.18" />
      <stop offset="100%" stop-color="hsl(264, 60%, 8%)" stop-opacity="0" />
    </radialGradient>
    <linearGradient id="vignette" x1="0" y1="1" x2="0" y2="0">
      <stop offset="0%" stop-color="hsl(264, 60%, 8%)" stop-opacity="0.85" />
      <stop offset="65%" stop-color="hsl(264, 60%, 8%)" stop-opacity="0" />
    </linearGradient>
  </defs>
  <rect width="100%" height="100%" fill="url(#bg-grad)" />
  <rect width="100%" height="100%" fill="url(#glow)" />
  <g><line x1="273.9" y1="401.7" x2="368.7" y2="493.8" stroke="hsl(301, 100%, 72%)" stroke-opacity="0.14" stroke-width="0.7" /><line x1="273.9" y1="401.7" x2="108.6" y2="279.9" stroke="hsl(301, 100%, 72%)" stroke-opacity="0.02" stroke-width="0.7" /><line x1="273.9" y1="401.7" x2="202.8" y2="501.3" stroke="hsl(301, 100%, 72%)" stroke-opacity="0.16" stroke-width="0.7" /><line x1="273.9" y1="401.7" x2="415.8" y2="564.6" stroke="hsl(301, 100%, 72%)" stroke-opacity="0.01" stroke-width="0.7" /><line x1="273.9" y1="401.7" x2="184.5" y2="576.2" stroke="hsl(301, 100%, 72%)" stroke-opacity="0.04" stroke-width="0.7" /><line x1="273.9" y1="401.7" x2="103.1" y2="278.2" stroke="hsl(301, 100%, 72%)" stroke-opacity="0.01" stroke-width="0.7" /><line x1="368.7" y1="493.8" x2="202.8" y2="501.3" stroke="hsl(301, 100%, 72%)" stroke-opacity="0.09" stroke-width="0.7" /><line x1="368.7" y1="493.8" x2="507.0" y2="479.5" stroke="hsl(301, 100%, 72%)" stroke-opacity="0.13" stroke-width="0.7" /><line x1="368.7" y1="493.8" x2="496.7" y2="331.4" stroke="hsl(301, 100%, 72%)" stroke-opacity="0.02" stroke-width="0.7" /><line x1="368.7" y1="493.8" x2="415.8" y2="564.6" stroke="hsl(301, 100%, 72%)" stroke-opacity="0.21" stroke-width="0.7" /><line x1="368.7" y1="493.8" x2="424.8" y2="568.5" stroke="hsl(301, 100%, 72%)" stroke-opacity="0.20" stroke-width="0.7" /><line x1="368.7" y1="493.8" x2="184.5" y2="576.2" stroke="hsl(301, 100%, 72%)" stroke-opacity="0.03" stroke-width="0.7" /><line x1="1200.8" y1="73.6" x2="1045.9" y2="204.7" stroke="hsl(301, 100%, 72%)" stroke-opacity="0.03" stroke-width="0.7" /><line x1="1200.8" y1="73.6" x2="1273.0" y2="29.7" stroke="hsl(301, 100%, 72%)" stroke-opacity="0.22" stroke-width="0.7" /><line x1="1200.8" y1="73.6" x2="1168.7" y2="8.5" stroke="hsl(301, 100%, 72%)" stroke-opacity="0.23" stroke-width="0.7" /><line x1="1200.8" y1="73.6" x2="1028.3" y2="83.2" stroke="hsl(301, 100%, 72%)" stroke-opacity="0.08" stroke-width="0.7" /><line x1="1200.8" y1="73.6" x2="1207.4" y2="108.8" stroke="hsl(301, 100%, 72%)" stroke-opacity="0.29" stroke-width="0.7" /><line x1="878.8" y1="150.3" x2="1045.9" y2="204.7" stroke="hsl(301, 100%, 72%)" stroke-opacity="0.07" stroke-width="0.7" /><line x1="878.8" y1="150.3" x2="1028.3" y2="83.2" stroke="hsl(301, 100%, 72%)" stroke-opacity="0.09" stroke-width="0.7" /><line x1="878.8" y1="150.3" x2="717.9" y2="114.8" stroke="hsl(301, 100%, 72%)" stroke-opacity="0.09" stroke-width="0.7" /><line x1="878.8" y1="150.3" x2="855.1" y2="98.9" stroke="hsl(301, 100%, 72%)" stroke-opacity="0.26" stroke-width="0.7" /><line x1="1162.2" y1="291.3" x2="1045.9" y2="204.7" stroke="hsl(301, 100%, 72%)" stroke-opacity="0.12" stroke-width="0.7" /><line x1="1162.2" y1="291.3" x2="1207.4" y2="108.8" stroke="hsl(301, 100%, 72%)" stroke-opacity="0.05" stroke-width="0.7" /><line x1="1045.9" y1="204.7" x2="1028.3" y2="83.2" stroke="hsl(301, 100%, 72%)" stroke-opacity="0.15" stroke-width="0.7" /><line x1="1045.9" y1="204.7" x2="1207.4" y2="108.8" stroke="hsl(301, 100%, 72%)" stroke-opacity="0.05" stroke-width="0.7" /><line x1="1045.9" y1="204.7" x2="855.1" y2="98.9" stroke="hsl(301, 100%, 72%)" stroke-opacity="0.00" stroke-width="0.7" /><line x1="1335.8" y1="517.5" x2="1355.3" y2="409.9" stroke="hsl(301, 100%, 72%)" stroke-opacity="0.18" stroke-width="0.7" /><line x1="1335.8" y1="517.5" x2="1451.7" y2="510.1" stroke="hsl(301, 100%, 72%)" stroke-opacity="0.17" stroke-width="0.7" /><line x1="1335.8" y1="517.5" x2="1410.2" y2="425.5" stroke="hsl(301, 100%, 72%)" stroke-opacity="0.16" stroke-width="0.7" /><line x1="1335.8" y1="517.5" x2="1388.3" y2="347.9" stroke="hsl(301, 100%, 72%)" stroke-opacity="0.07" stroke-width="0.7" /><line x1="1335.8" y1="517.5" x2="1164.6" y2="592.4" stroke="hsl(301, 100%, 72%)" stroke-opacity="0.05" stroke-width="0.7" /><line x1="1335.8" y1="517.5" x2="1388.7" y2="382.9" stroke="hsl(301, 100%, 72%)" stroke-opacity="0.12" stroke-width="0.7" /><line x1="1355.3" y1="409.9" x2="1451.7" y2="510.1" stroke="hsl(301, 100%, 72%)" stroke-opacity="0.13" stroke-width="0.7" /><line x1="1355.3" y1="409.9" x2="1410.2" y2="425.5" stroke="hsl(301, 100%, 72%)" stroke-opacity="0.26" stroke-width="0.7" /><line x1="1355.3" y1="409.9" x2="1481.3" y2="314.6" stroke="hsl(301, 100%, 72%)" stroke-opacity="0.10" stroke-width="0.7" /><line x1="1355.3" y1="409.9" x2="1388.3" y2="347.9" stroke="hsl(301, 100%, 72%)" stroke-opacity="0.24" stroke-width="0.7" /><line x1="1355.3" y1="409.9" x2="1388.7" y2="382.9" stroke="hsl(301, 100%, 72%)" stroke-opacity="0.28" stroke-width="0.7" /><line x1="1355.3" y1="409.9" x2="1392.3" y2="283.7" stroke="hsl(301, 100%, 72%)" stroke-opacity="0.14" stroke-width="0.7" /><line x1="1355.3" y1="409.9" x2="1540.3" y2="339.2" stroke="hsl(301, 100%, 72%)" stroke-opacity="0.04" stroke-width="0.7" /><line x1="108.6" y1="279.9" x2="103.1" y2="278.2" stroke="hsl(301, 100%, 72%)" stroke-opacity="0.34" stroke-width="0.7" /><line x1="202.8" y1="501.3" x2="184.5" y2="576.2" stroke="hsl(301, 100%, 72%)" stroke-opacity="0.23" stroke-width="0.7" /><line x1="1442.7" y1="163.3" x2="1596.6" y2="87.4" stroke="hsl(301, 100%, 72%)" stroke-opacity="0.08" stroke-width="0.7" /><line x1="1442.7" y1="163.3" x2="1273.0" y2="29.7" stroke="hsl(301, 100%, 72%)" stroke-opacity="0.01" stroke-width="0.7" /><line x1="1442.7" y1="163.3" x2="1481.3" y2="314.6" stroke="hsl(301, 100%, 72%)" stroke-opacity="0.10" stroke-width="0.7" /><line x1="1442.7" y1="163.3" x2="1388.3" y2="347.9" stroke="hsl(301, 100%, 72%)" stroke-opacity="0.04" stroke-width="0.7" /><line x1="1442.7" y1="163.3" x2="1392.3" y2="283.7" stroke="hsl(301, 100%, 72%)" stroke-opacity="0.14" stroke-width="0.7" /><line x1="1442.7" y1="163.3" x2="1540.3" y2="339.2" stroke="hsl(301, 100%, 72%)" stroke-opacity="0.03" stroke-width="0.7" /><line x1="507.0" y1="479.5" x2="496.7" y2="331.4" stroke="hsl(301, 100%, 72%)" stroke-opacity="0.11" stroke-width="0.7" /><line x1="507.0" y1="479.5" x2="613.4" y2="456.7" stroke="hsl(301, 100%, 72%)" stroke-opacity="0.18" stroke-width="0.7" /><line x1="507.0" y1="479.5" x2="415.8" y2="564.6" stroke="hsl(301, 100%, 72%)" stroke-opacity="0.15" stroke-width="0.7" /><line x1="507.0" y1="479.5" x2="424.8" y2="568.5" stroke="hsl(301, 100%, 72%)" stroke-opacity="0.16" stroke-width="0.7" /><line x1="1273.0" y1="29.7" x2="1168.7" y2="8.5" stroke="hsl(301, 100%, 72%)" stroke-opacity="0.18" stroke-width="0.7" /><line x1="1273.0" y1="29.7" x2="1207.4" y2="108.8" stroke="hsl(301, 100%, 72%)" stroke-opacity="0.19" stroke-width="0.7" /><line x1="615.1" y1="61.8" x2="717.9" y2="114.8" stroke="hsl(301, 100%, 72%)" stroke-opacity="0.17" stroke-width="0.7" /><line x1="615.1" y1="61.8" x2="645.4" y2="77.9" stroke="hsl(301, 100%, 72%)" stroke-opacity="0.30" stroke-width="0.7" /><line x1="615.1" y1="61.8" x2="414.1" y2="23.5" stroke="hsl(301, 100%, 72%)" stroke-opacity="0.02" stroke-width="0.7" /><line x1="496.7" y1="331.4" x2="613.4" y2="456.7" stroke="hsl(301, 100%, 72%)" stroke-opacity="0.08" stroke-width="0.7" /><line x1="1168.7" y1="8.5" x2="1028.3" y2="83.2" stroke="hsl(301, 100%, 72%)" stroke-opacity="0.10" stroke-width="0.7" /><line x1="1168.7" y1="8.5" x2="1207.4" y2="108.8" stroke="hsl(301, 100%, 72%)" stroke-opacity="0.18" stroke-width="0.7" /><line x1="1028.3" y1="83.2" x2="1207.4" y2="108.8" stroke="hsl(301, 100%, 72%)" stroke-opacity="0.06" stroke-width="0.7" /><line x1="1028.3" y1="83.2" x2="855.1" y2="98.9" stroke="hsl(301, 100%, 72%)" stroke-opacity="0.07" stroke-width="0.7" /><line x1="1451.7" y1="510.1" x2="1410.2" y2="425.5" stroke="hsl(301, 100%, 72%)" stroke-opacity="0.20" stroke-width="0.7" /><line x1="1451.7" y1="510.1" x2="1481.3" y2="314.6" stroke="hsl(301, 100%, 72%)" stroke-opacity="0.04" stroke-width="0.7" /><line x1="1451.7" y1="510.1" x2="1388.3" y2="347.9" stroke="hsl(301, 100%, 72%)" stroke-opacity="0.07" stroke-width="0.7" /><line x1="1451.7" y1="510.1" x2="1388.7" y2="382.9" stroke="hsl(301, 100%, 72%)" stroke-opacity="0.12" stroke-width="0.7" /><line x1="1451.7" y1="510.1" x2="1540.3" y2="339.2" stroke="hsl(301, 100%, 72%)" stroke-opacity="0.04" stroke-width="0.7" /><line x1="830.9" y1="512.7" x2="964.5" y2="585.5" stroke="hsl(301, 100%, 72%)" stroke-opacity="0.11" stroke-width="0.7" /><line x1="1410.2" y1="425.5" x2="1481.3" y2="314.6" stroke="hsl(301, 100%, 72%)" stroke-opacity="0.14" stroke-width="0.7" /><line x1="1410.2" y1="425.5" x2="1388.3" y2="347.9" stroke="hsl(301, 100%, 72%)" stroke-opacity="0.22" stroke-width="0.7" /><line x1="1410.2" y1="425.5" x2="1388.7" y2="382.9" stroke="hsl(301, 100%, 72%)" stroke-opacity="0.27" stroke-width="0.7" /><line x1="1410.2" y1="425.5" x2="1392.3" y2="283.7" stroke="hsl(301, 100%, 72%)" stroke-opacity="0.12" stroke-width="0.7" /><line x1="1410.2" y1="425.5" x2="1540.3" y2="339.2" stroke="hsl(301, 100%, 72%)" stroke-opacity="0.10" stroke-width="0.7" /><line x1="613.4" y1="456.7" x2="424.8" y2="568.5" stroke="hsl(301, 100%, 72%)" stroke-opacity="0.00" stroke-width="0.7" /><line x1="1481.3" y1="314.6" x2="1388.3" y2="347.9" stroke="hsl(301, 100%, 72%)" stroke-opacity="0.19" stroke-width="0.7" /><line x1="1481.3" y1="314.6" x2="1388.7" y2="382.9" stroke="hsl(301, 100%, 72%)" stroke-opacity="0.17" stroke-width="0.7" /><line x1="1481.3" y1="314.6" x2="1392.3" y2="283.7" stroke="hsl(301, 100%, 72%)" stroke-opacity="0.20" stroke-width="0.7" /><line x1="1481.3" y1="314.6" x2="1540.3" y2="339.2" stroke="hsl(301, 100%, 72%)" stroke-opacity="0.25" stroke-width="0.7" /><line x1="717.9" y1="114.8" x2="645.4" y2="77.9" stroke="hsl(301, 100%, 72%)" stroke-opacity="0.22" stroke-width="0.7" /><line x1="717.9" y1="114.8" x2="855.1" y2="98.9" stroke="hsl(301, 100%, 72%)" stroke-opacity="0.13" stroke-width="0.7" /><line x1="645.4" y1="77.9" x2="855.1" y2="98.9" stroke="hsl(301, 100%, 72%)" stroke-opacity="0.01" stroke-width="0.7" /><line x1="964.5" y1="585.5" x2="1164.6" y2="592.4" stroke="hsl(301, 100%, 72%)" stroke-opacity="0.03" stroke-width="0.7" /><line x1="415.8" y1="564.6" x2="424.8" y2="568.5" stroke="hsl(301, 100%, 72%)" stroke-opacity="0.33" stroke-width="0.7" /><line x1="1388.3" y1="347.9" x2="1388.7" y2="382.9" stroke="hsl(301, 100%, 72%)" stroke-opacity="0.29" stroke-width="0.7" /><line x1="1388.3" y1="347.9" x2="1392.3" y2="283.7" stroke="hsl(301, 100%, 72%)" stroke-opacity="0.25" stroke-width="0.7" /><line x1="1388.3" y1="347.9" x2="1540.3" y2="339.2" stroke="hsl(301, 100%, 72%)" stroke-opacity="0.11" stroke-width="0.7" /><line x1="1388.7" y1="382.9" x2="1392.3" y2="283.7" stroke="hsl(301, 100%, 72%)" stroke-opacity="0.19" stroke-width="0.7" /><line x1="1388.7" y1="382.9" x2="1540.3" y2="339.2" stroke="hsl(301, 100%, 72%)" stroke-opacity="0.10" stroke-width="0.7" /><line x1="1392.3" y1="283.7" x2="1540.3" y2="339.2" stroke="hsl(301, 100%, 72%)" stroke-opacity="0.10" stroke-width="0.7" /><circle cx="273.9" cy="401.7" r="2.5" fill="hsl(24, 100%, 70%)" fill-opacity="0.85" /><circle cx="368.7" cy="493.8" r="2.5" fill="hsl(24, 100%, 70%)" fill-opacity="0.85" /><circle cx="1200.8" cy="73.6" r="2.5" fill="hsl(24, 100%, 70%)" fill-opacity="0.85" /><circle cx="878.8" cy="150.3" r="2.5" fill="hsl(24, 100%, 70%)" fill-opacity="0.85" /><circle cx="1162.2" cy="291.3" r="2.5" fill="hsl(24, 100%, 70%)" fill-opacity="0.85" /><circle cx="1045.9" cy="204.7" r="2.5" fill="hsl(24, 100%, 70%)" fill-opacity="0.85" /><circle cx="1335.8" cy="517.5" r="2.5" fill="hsl(24, 100%, 70%)" fill-opacity="0.85" /><circle cx="1355.3" cy="409.9" r="2.5" fill="hsl(24, 100%, 70%)" fill-opacity="0.85" /><circle cx="108.6" cy="279.9" r="2.5" fill="hsl(24, 100%, 70%)" fill-opacity="0.85" /><circle cx="202.8" cy="501.3" r="2.5" fill="hsl(24, 100%, 70%)" fill-opacity="0.85" /><circle cx="1442.7" cy="163.3" r="2.5" fill="hsl(24, 100%, 70%)" fill-opacity="0.85" /><circle cx="1596.6" cy="87.4" r="2.5" fill="hsl(24, 100%, 70%)" fill-opacity="0.85" /><circle cx="507.0" cy="479.5" r="2.5" fill="hsl(24, 100%, 70%)" fill-opacity="0.85" /><circle cx="1273.0" cy="29.7" r="2.5" fill="hsl(24, 100%, 70%)" fill-opacity="0.85" /><circle cx="615.1" cy="61.8" r="2.5" fill="hsl(24, 100%, 70%)" fill-opacity="0.85" /><circle cx="496.7" cy="331.4" r="2.5" fill="hsl(24, 100%, 70%)" fill-opacity="0.85" /><circle cx="1168.7" cy="8.5" r="2.5" fill="hsl(24, 100%, 70%)" fill-opacity="0.85" /><circle cx="1028.3" cy="83.2" r="2.5" fill="hsl(24, 100%, 70%)" fill-opacity="0.85" /><circle cx="1451.7" cy="510.1" r="2.5" fill="hsl(24, 100%, 70%)" fill-opacity="0.85" /><circle cx="830.9" cy="512.7" r="2.5" fill="hsl(24, 100%, 70%)" fill-opacity="0.85" /><circle cx="1410.2" cy="425.5" r="2.5" fill="hsl(24, 100%, 70%)" fill-opacity="0.85" /><circle cx="613.4" cy="456.7" r="2.5" fill="hsl(24, 100%, 70%)" fill-opacity="0.85" /><circle cx="1481.3" cy="314.6" r="2.5" fill="hsl(24, 100%, 70%)" fill-opacity="0.85" /><circle cx="717.9" cy="114.8" r="2.5" fill="hsl(24, 100%, 70%)" fill-opacity="0.85" /><circle cx="645.4" cy="77.9" r="2.5" fill="hsl(24, 100%, 70%)" fill-opacity="0.85" /><circle cx="964.5" cy="585.5" r="2.5" fill="hsl(24, 100%, 70%)" fill-opacity="0.85" /><circle cx="415.8" cy="564.6" r="2.5" fill="hsl(24, 100%, 70%)" fill-opacity="0.85" /><circle cx="1388.3" cy="347.9" r="2.5" fill="hsl(24, 100%, 70%)" fill-opacity="0.85" /><circle cx="424.8" cy="568.5" r="2.5" fill="hsl(24, 100%, 70%)" fill-opacity="0.85" /><circle cx="1164.6" cy="592.4" r="2.5" fill="hsl(24, 100%, 70%)" fill-opacity="0.85" /><circle cx="1388.7" cy="382.9" r="2.5" fill="hsl(24, 100%, 70%)" fill-opacity="0.85" /><circle cx="1207.4" cy="108.8" r="2.5" fill="hsl(24, 100%, 70%)" fill-opacity="0.85" /><circle cx="1392.3" cy="283.7" r="2.5" fill="hsl(24, 100%, 70%)" fill-opacity="0.85" /><circle cx="184.5" cy="576.2" r="2.5" fill="hsl(24, 100%, 70%)" fill-opacity="0.85" /><circle cx="414.1" cy="23.5" r="2.5" fill="hsl(24, 100%, 70%)" fill-opacity="0.85" /><circle cx="103.1" cy="278.2" r="2.5" fill="hsl(24, 100%, 70%)" fill-opacity="0.85" /><circle cx="1540.3" cy="339.2" r="2.5" fill="hsl(24, 100%, 70%)" fill-opacity="0.85" /><circle cx="855.1" cy="98.9" r="2.5" fill="hsl(24, 100%, 70%)" fill-opacity="0.85" /></g>
  <rect width="100%" height="100%" fill="url(#vignette)" />
  <text x="1540" y="550" text-anchor="end" font-family="Inter, sans-serif" font-weight="700" font-size="160" fill="hsl(301, 100%, 72%)" fill-opacity="0.18">11</text>
  <text x="60" y="565" font-family="Inter, sans-serif" font-weight="500" font-size="20" fill="hsl(301, 100%, 72%)" fill-opacity="0.45" letter-spacing="3">CHAPTER 11 · VIRTUAL REALITY & PERSONHOOD</text>
</svg>
