<?xml version="1.0" encoding="UTF-8"?>
<svg xmlns="http://www.w3.org/2000/svg" viewBox="0 0 1600 600" width="1600" height="600" preserveAspectRatio="xMidYMid slice" role="img">
  <defs>
    <linearGradient id="bg-grad" x1="0" y1="0" x2="0" y2="1">
      <stop offset="0%" stop-color="hsl(234, 50%, 14%)" />
      <stop offset="100%" stop-color="hsl(234, 60%, 8%)" />
    </linearGradient>
    <radialGradient id="glow" cx="40.0%" cy="35%" r="55%">
      <stop offset="0%" stop-color="hsl(151, 100%, 72%)" stop-opacity="0.5" />
      <stop offset="50%" stop-color="hsl(279, 100%, 70%)" stop-opacity="0.18" />
      <stop offset="100%" stop-color="hsl(234, 60%, 8%)" stop-opacity="0" />
    </radialGradient>
    <linearGradient id="vignette" x1="0" y1="1" x2="0" y2="0">
      <stop offset="0%" stop-color="hsl(234, 60%, 8%)" stop-opacity="0.85" />
      <stop offset="65%" stop-color="hsl(234, 60%, 8%)" stop-opacity="0" />
    </linearGradient>
  </defs>
  <rect width="100%" height="100%" fill="url(#bg-grad)" />
  <rect width="100%" height="100%" fill="url(#glow)" />
  <g><polyline points="0,66.7 8,94.7 16,116.5 24,127.3 32,125.3 40,111.4 48,89.9 56,66.4 64,47.1 72,37.1 80,38.8 88,51.6 96,72.0 104,94.4 112,112.7 120,121.5 128,117.9 136,102.1 144,77.2 152,48.6 160,22.8 168,5.5 176,0.5 184,8.5 192,27.1 200,51.4 208,75.3 216,92.7 224,99.5 232,94.4 240,79.0 248,58.0 256,37.2 264,22.5 272,18.6 280,27.2 288,46.8 296,73.4 304,101.0 312,123.2 320,134.9 328,133.5 336,119.6 344,96.8 352,70.6 360,47.4 368,32.7 376,29.5 384,38.2 392,55.8 400,77.1 408,96.0 416,106.9 424,106.3 432,93.6 440,71.4 448,44.6 456,19.5 464,2.2 472,-3.3 480,4.5 488,23.7 496,49.9 504,76.7 512,98.1 520,109.3 528,108.2 536,95.9 544,76.3 552,55.0 560,38.3 568,31.0 576,35.6 584,51.5 592,75.1 600,100.8 608,122.2 616,134.0 624,132.9 632,119.1 640,95.4 648,67.3 656,41.2 664,22.8 672,16.1 680,21.8 688,37.8 696,59.3 704,80.1 712,94.4 720,98.2 728,90.1 736,71.8 744,48.0 752,24.5 760,7.6 768,1.8 776,9.1 784,28.2 792,55.0 800,83.6 808,107.5 816,121.6 824,123.1 832,112.4 840,92.9 848,70.0 856,50.0 864,38.3 872,37.9 880,49.1 888,68.9 896,92.1 904,112.6 912,124.5 920,124.4 928,111.6 936,88.5 944,60.0 952,32.7 960,12.4 968,3.6 976,7.9 984,23.5 992,46.2 1000,69.8 1008,88.4 1016,97.2 1024,94.2 1032,80.3 1040,59.6 1048,37.7 1056,20.8 1064,13.8 1072,19.3 1080,36.8 1088,62.5 1096,90.9 1104,115.6 1112,130.9 1120,133.6 1128,123.4 1136,103.1 1144,78.0 1152,54.4 1160,37.9 1168,32.5 1176,39.0 1184,55.2 1192,76.4 1200,96.6 1208,109.8 1216,112.0 1224,101.7 1232,80.9 1240,54.0 1248,27.2 1256,6.7 1264,-2.8 1272,1.0 1280,16.9 1288,41.1 1296,67.6 1304,90.2 1312,103.7 1320,105.2 1328,95.2 1336,76.8 1344,55.5 1352,37.4 1360,27.9 1368,30.1 1376,44.1 1384,67.1 1392,93.7 1400,117.5 1408,132.9 1416,135.9 1424,125.8 1432,104.8 1440,77.9 1448,51.1 1456,30.8 1464,21.2 1472,24.0 1480,37.7 1488,58.0 1496,79.1 1504,95.0 1512,100.9 1520,94.8 1528,77.8 1536,54.0 1544,29.0 1552,9.1 1560,-0.4 1568,3.0 1576,18.9 1584,43.9 1592,72.3 1600,97.7" fill="none" stroke="hsl(151, 100%, 72%)" stroke-opacity="0.18" stroke-width="1" /><polyline points="0,168.8 8,186.4 16,195.1 24,194.0 32,183.7 40,166.5 48,145.8 56,125.6 64,109.7 72,101.2 80,101.6 88,111.0 96,127.6 104,148.4 112,169.5 120,187.0 128,197.4 136,198.4 144,189.6 152,171.9 160,147.9 168,121.4 176,96.5 184,77.1 192,66.1 200,65.1 208,73.7 216,90.2 224,111.3 232,133.1 240,151.7 248,163.7 256,167.1 264,161.3 272,147.6 280,128.6 288,108.1 296,90.0 304,78.0 312,74.7 320,81.1 328,96.7 336,119.2 344,145.2 352,170.5 360,191.2 368,204.0 376,207.1 384,200.0 392,184.4 400,163.0 408,139.8 416,118.7 424,103.4 432,96.4 440,98.6 448,109.4 456,126.4 464,146.2 472,164.9 480,178.6 488,184.4 496,180.7 504,167.8 512,147.3 520,122.5 528,97.3 536,75.8 544,61.5 552,56.7 560,62.2 568,76.8 576,98.1 584,122.4 592,145.6 600,163.9 608,174.4 616,175.5 624,167.6 632,152.6 640,133.5 648,114.3 656,98.8 664,90.4 672,90.9 680,100.8 688,118.7 696,141.8 704,166.4 712,188.2 720,203.7 728,210.0 736,206.2 744,192.8 752,171.9 760,147.0 768,122.1 776,101.3 784,87.7 792,83.4 800,88.5 808,101.7 816,120.0 824,139.8 832,157.1 840,168.3 848,171.1 856,164.6 864,149.7 872,128.8 880,105.4 888,83.6 896,67.2 904,59.3 912,61.4 920,73.3 928,93.4 936,118.4 944,144.4 952,167.3 960,183.5 968,190.7 976,188.1 984,176.8 992,159.1 1000,138.8 1008,119.7 1016,105.6 1024,99.3 1032,102.2 1040,113.7 1048,132.1 1056,154.0 1064,175.5 1072,192.6 1080,202.1 1088,201.9 1096,191.8 1104,173.0 1112,148.4 1120,121.9 1128,97.6 1136,79.3 1144,69.6 1152,69.8 1160,79.5 1168,96.4 1176,117.2 1184,138.0 1192,154.9 1200,164.7 1208,165.6 1216,157.6 1224,142.0 1232,121.8 1240,100.9 1248,83.1 1256,72.1 1264,70.2 1272,78.2 1280,95.1 1288,118.6 1296,145.0 1304,170.1 1312,190.1 1320,201.9 1328,203.7 1336,195.8 1344,179.6 1352,158.5 1360,136.1 1368,116.6 1376,103.4 1384,98.7 1392,103.1 1400,115.8 1408,134.0 1416,154.3 1424,172.6 1432,185.3 1440,189.5 1448,184.1 1456,169.5 1464,147.7 1472,122.0 1480,96.6 1488,75.5 1496,62.1 1504,58.3 1512,64.7 1520,79.9 1528,101.3 1536,124.9 1544,146.8 1552,163.2 1560,171.5 1568,170.5 1576,160.8 1584,144.5 1592,125.0 1600,106.1" fill="none" stroke="hsl(151, 100%, 72%)" stroke-opacity="0.21" stroke-width="1" /><polyline points="0,230.6 8,232.1 16,228.9 24,221.8 32,212.0 40,201.3 48,191.5 56,184.3 64,180.8 72,181.8 80,187.1 88,196.0 96,207.2 104,218.9 112,229.2 120,236.6 128,239.6 136,237.8 144,231.3 152,220.7 160,207.6 168,193.7 176,180.9 184,170.9 192,165.0 200,163.9 208,167.5 216,175.1 224,185.3 232,196.5 240,206.7 248,214.4 256,218.3 264,217.7 272,212.9 280,204.4 288,193.8 296,182.7 304,173.0 312,166.3 320,163.8 328,166.2 336,173.2 344,184.0 352,197.3 360,211.2 368,223.8 376,233.4 384,238.9 392,239.4 400,235.2 408,226.9 416,216.1 424,204.3 432,193.5 440,185.4 448,181.1 456,181.2 464,185.7 472,193.7 480,203.9 488,214.5 496,223.7 504,230.0 512,232.0 520,229.3 528,222.1 536,211.2 544,198.0 552,184.4 560,172.2 568,163.1 576,158.3 584,158.5 592,163.5 600,172.5 608,184.0 616,196.4 624,207.7 632,216.3 640,221.0 648,221.2 656,217.1 664,209.3 672,199.4 680,189.1 688,180.1 696,174.1 704,172.3 712,175.1 720,182.3 728,193.1 736,206.0 744,219.2 752,230.8 760,239.2 768,243.2 776,242.1 784,236.3 792,226.6 800,214.3 808,201.4 816,189.6 824,180.6 832,175.6 840,175.3 848,179.3 856,186.9 864,196.8 872,207.0 880,215.9 888,221.9 896,223.8 904,221.1 912,214.0 920,203.6 928,191.1 936,178.5 944,167.6 952,160.0 960,156.9 968,158.8 976,165.4 984,175.9 992,188.7 1000,202.2 1008,214.3 1016,223.5 1024,228.5 1032,228.9 1040,224.7 1048,217.0 1056,207.0 1064,196.6 1072,187.5 1080,181.4 1088,179.3 1096,181.7 1104,188.4 1112,198.4 1120,210.3 1128,222.2 1136,232.4 1144,239.2 1152,241.5 1160,238.8 1168,231.5 1176,220.4 1184,207.1 1192,193.4 1200,181.1 1208,172.0 1216,167.1 1224,167.0 1232,171.4 1240,179.5 1248,189.8 1256,200.6 1264,210.0 1272,216.5 1280,219.0 1288,216.9 1296,210.7 1304,201.2 1312,189.9 1320,178.6 1328,169.1 1336,163.1 1344,161.5 1352,164.8 1360,172.6 1368,184.1 1376,197.7 1384,211.5 1392,223.7 1400,232.6 1408,237.1 1416,236.8 1424,231.8 1432,223.1 1440,212.3 1448,201.0 1456,191.1 1464,184.2 1472,181.3 1480,182.9 1488,188.7 1496,197.7 1504,208.5 1512,219.2 1520,228.1 1528,233.6 1536,234.7 1544,230.9 1552,222.7 1560,211.0 1568,197.4 1576,183.7 1584,171.9 1592,163.4 1600,159.5" fill="none" stroke="hsl(151, 100%, 72%)" stroke-opacity="0.24" stroke-width="1" /><polyline points="0,302.1 8,291.6 16,276.2 24,259.7 32,246.4 40,239.5 48,240.9 56,250.8 64,267.0 72,286.2 80,304.3 88,317.1 96,321.7 104,316.9 112,303.5 120,283.8 128,262.0 136,242.2 144,228.2 152,222.7 160,226.3 168,237.6 176,253.7 184,270.7 192,284.3 200,291.3 208,290.0 216,280.5 224,264.8 232,246.5 240,229.7 248,218.4 256,215.4 264,221.7 272,236.5 280,256.8 288,278.9 296,298.4 304,311.5 312,316.0 320,311.2 328,298.7 336,281.6 344,263.9 352,249.9 360,242.6 368,243.7 376,252.9 384,268.0 392,285.4 400,301.1 408,311.0 416,312.7 424,305.2 432,289.6 440,268.8 448,246.9 456,228.2 464,216.2 472,213.3 480,219.6 488,233.5 496,251.7 504,270.2 512,284.7 520,292.3 528,291.4 536,282.4 544,267.7 552,250.9 560,236.2 568,227.2 576,226.6 584,235.0 592,251.0 600,271.7 608,293.0 616,310.7 624,321.2 632,322.4 640,314.4 648,299.0 656,279.5 664,260.3 672,245.3 680,237.6 688,238.5 696,247.4 704,262.0 712,278.4 720,292.6 728,300.8 736,300.8 744,292.0 752,275.9 760,255.6 768,235.2 776,218.9 784,210.1 792,210.7 800,220.5 808,237.4 816,258.0 824,277.8 832,293.1 840,300.7 848,299.5 856,290.3 864,275.6 872,259.2 880,245.2 888,237.3 896,237.6 904,246.5 912,262.4 920,282.0 928,301.3 936,316.0 944,323.0 952,320.6 960,309.1 968,290.8 976,269.4 984,249.2 992,234.1 1000,226.9 1008,228.7 1016,238.5 1024,253.7 1032,270.4 1040,284.5 1048,292.4 1056,292.1 1064,283.3 1072,267.9 1080,249.1 1088,231.1 1096,217.9 1104,212.7 1112,216.8 1120,229.7 1128,249.1 1136,271.1 1144,291.3 1152,306.0 1160,312.3 1168,309.5 1176,298.7 1184,282.7 1192,265.4 1200,251.0 1208,242.9 1216,243.0 1224,251.5 1232,266.4 1240,284.3 1248,301.1 1256,312.8 1264,316.5 1272,310.9 1280,296.8 1288,276.8 1296,254.6 1304,234.8 1312,221.0 1320,215.8 1328,219.9 1336,232.1 1344,249.2 1352,267.2 1360,282.2 1368,290.6 1376,290.6 1384,282.5 1392,268.1 1400,250.9 1408,235.2 1416,224.7 1424,222.2 1432,228.9 1440,243.8 1448,264.2 1456,286.1 1464,305.1 1472,317.7 1480,321.3 1488,315.6 1496,302.0 1504,283.7 1512,264.7 1520,249.3 1528,240.6 1536,240.4 1544,248.4 1552,262.4 1560,279.1 1568,294.1 1576,303.7 1584,305.2 1592,297.7 1600,282.5" fill="none" stroke="hsl(151, 100%, 72%)" stroke-opacity="0.27" stroke-width="1" /><polyline points="0,347.1 8,329.3 16,313.2 24,303.8 32,304.1 40,314.6 48,333.0 56,354.9 64,374.8 72,387.5 80,389.7 88,380.7 96,362.4 104,339.4 112,317.0 120,300.5 128,293.6 136,297.4 144,310.1 152,327.8 160,345.2 168,357.2 176,360.0 184,352.6 192,336.7 200,316.2 208,296.5 216,282.8 224,279.1 232,286.5 240,303.8 248,326.8 256,350.3 264,368.8 272,378.2 280,376.6 288,365.3 296,347.7 304,329.0 312,314.6 320,308.5 328,312.5 336,325.6 344,344.5 352,363.8 360,378.3 368,383.7 376,378.1 384,362.3 392,339.8 400,315.8 408,295.8 416,284.4 424,283.9 432,293.8 440,311.2 448,331.1 456,347.9 464,357.3 472,356.7 480,346.5 488,329.6 496,310.8 504,295.5 512,288.3 520,291.8 528,305.7 536,327.1 544,351.0 552,372.0 560,385.1 568,387.4 576,378.8 584,361.7 592,340.9 600,321.8 608,309.3 616,306.5 624,313.7 632,328.7 640,346.9 648,362.9 656,372.0 664,370.9 672,359.4 680,339.7 688,316.3 696,294.8 704,280.4 712,276.5 720,283.8 728,300.4 736,321.9 744,342.9 752,358.2 760,364.3 768,360.0 776,347.0 784,329.5 792,312.7 800,301.6 808,300.0 816,308.8 824,326.3 832,348.6 840,370.0 848,385.5 856,390.9 864,385.0 872,369.2 880,347.3 888,324.7 896,306.9 904,297.9 912,299.4 920,310.4 928,327.3 936,344.9 944,358.1 952,362.6 960,356.9 968,341.9 976,321.2 984,300.1 992,284.0 1000,277.1 1008,281.5 1016,296.3 1024,318.1 1032,341.7 1040,361.6 1048,373.2 1056,374.2 1064,365.1 1072,348.9 1080,330.5 1088,315.2 1096,307.7 1104,310.1 1112,322.2 1120,340.8 1128,361.2 1136,377.9 1144,386.2 1152,383.5 1160,370.1 1168,348.9 1176,324.8 1184,303.4 1192,289.6 1200,286.2 1208,293.6 1216,309.2 1224,328.3 1232,345.6 1240,356.2 1248,357.2 1256,348.3 1264,331.8 1272,312.3 1280,295.3 1288,285.6 1296,286.4 1304,298.0 1312,318.0 1320,342.1 1328,364.5 1336,380.1 1344,385.4 1352,379.7 1360,364.9 1368,345.1 1376,325.9 1384,312.3 1392,307.9 1400,313.6 1408,327.7 1416,346.1 1424,363.4 1432,374.5 1440,375.9 1448,366.5 1456,348.1 1464,324.7 1472,301.9 1480,284.9 1488,277.8 1496,282.0 1504,296.1 1512,316.2 1520,337.2 1528,353.5 1536,361.2 1544,358.7 1552,347.0 1560,329.8 1568,312.3 1576,299.6 1584,295.8 1592,302.6 1600,318.9" fill="none" stroke="hsl(151, 100%, 72%)" stroke-opacity="0.30" stroke-width="1" /><polyline points="0,388.5 8,376.1 16,372.7 24,380.4 32,397.1 40,417.8 48,435.9 56,445.4 64,443.3 72,430.1 80,410.2 88,389.9 96,375.6 104,371.6 112,378.4 120,392.8 128,409.1 136,420.8 144,423.2 152,414.9 160,398.1 168,378.3 176,362.0 184,355.0 192,359.7 200,374.9 208,396.0 216,416.4 224,429.9 232,432.7 240,424.6 248,409.3 256,392.8 264,381.4 272,379.6 280,388.4 288,405.0 296,423.7 304,438.0 312,442.7 320,435.7 328,418.7 336,396.8 344,376.8 352,364.5 360,363.5 368,373.2 376,389.6 384,406.5 392,417.7 400,419.0 408,410.0 416,393.8 424,376.2 432,363.7 440,361.2 448,370.2 456,388.5 464,410.7 472,429.9 480,440.4 488,439.4 496,427.8 504,410.1 512,392.7 520,381.6 528,380.7 536,390.0 544,405.9 552,422.4 560,433.2 568,433.8 576,423.2 584,404.1 592,382.3 600,364.4 608,356.0 616,359.4 624,373.0 632,392.0 640,409.9 648,420.8 656,421.2 664,411.5 672,395.7 680,380.0 688,370.6 696,371.5 704,383.2 712,402.6 720,423.7 728,439.8 736,445.8 744,440.0 752,424.3 760,404.0 768,385.8 776,375.5 784,375.8 792,386.1 800,402.0 808,417.1 816,425.5 824,423.5 832,411.1 840,391.8 848,371.9 856,357.8 864,354.4 872,362.7 880,380.3 888,401.5 896,419.7 904,429.2 912,427.8 920,416.6 928,400.3 936,385.4 944,377.7 952,380.5 960,393.3 968,412.1 976,430.6 984,442.5 992,443.4 1000,432.7 1008,413.6 1016,391.8 1024,374.1 1032,365.7 1040,368.7 1048,381.2 1056,398.1 1064,413.0 1072,420.2 1080,416.9 1088,404.0 1096,385.8 1104,368.8 1112,359.1 1120,360.6 1128,373.2 1136,393.6 1144,415.4 1152,432.2 1160,438.9 1168,434.1 1176,420.1 1184,402.3 1192,387.3 1200,380.4 1208,384.1 1216,397.0 1224,414.5 1232,430.0 1240,437.7 1248,434.2 1256,419.9 1264,398.9 1272,377.5 1280,362.2 1288,357.6 1296,364.5 1304,380.2 1312,399.0 1320,414.2 1328,420.7 1336,416.6 1344,403.6 1352,386.8 1360,372.5 1368,366.5 1376,371.7 1384,387.1 1392,408.3 1400,428.7 1408,442.1 1416,444.4 1424,435.1 1432,417.6 1440,398.0 1448,382.7 1456,376.7 1464,381.4 1472,394.6 1480,411.1 1488,424.3 1496,428.9 1504,422.5 1512,406.4 1520,385.6 1528,366.5 1536,355.4 1544,355.6 1552,367.3 1560,386.4 1568,406.7 1576,421.8 1584,427.1 1592,421.5 1600,407.8" fill="none" stroke="hsl(151, 100%, 72%)" stroke-opacity="0.34" stroke-width="1" /><polyline points="0,432.6 8,431.3 16,443.8 24,466.6 32,492.4 40,512.8 48,521.0 56,514.3 64,495.3 72,470.7 80,449.0 88,437.4 96,439.2 104,453.0 112,472.7 120,490.1 128,498.0 136,492.4 144,474.5 152,449.9 160,427.0 168,413.6 176,414.5 184,429.4 192,453.5 200,478.6 208,496.5 216,501.7 224,493.4 232,475.6 240,455.9 248,442.2 256,440.5 264,452.1 272,473.3 280,496.9 288,514.5 296,519.5 304,509.7 312,488.1 320,461.7 328,438.9 336,426.9 344,429.0 352,443.4 360,463.8 368,482.0 376,490.8 384,486.4 392,470.2 400,447.9 408,427.7 416,417.3 424,421.1 432,438.5 440,464.2 448,490.0 456,507.8 464,512.2 472,502.5 480,483.3 488,462.0 496,446.9 504,443.7 512,453.5 520,472.7 528,493.9 536,508.8 544,511.3 552,499.4 560,476.5 568,449.6 576,427.4 584,416.9 592,420.9 600,437.4 608,459.9 616,480.0 624,490.6 632,487.9 640,473.5 648,453.2 656,435.0 664,426.6 672,432.0 680,450.3 688,476.1 696,501.0 704,516.9 712,518.8 720,506.5 728,484.7 736,461.2 744,444.2 752,439.4 760,447.8 768,465.6 776,485.3 784,498.9 792,500.3 800,488.0 808,465.5 816,439.9 824,419.9 832,412.1 840,419.1 848,438.5 856,463.4 864,485.5 872,497.4 880,495.8 888,482.2 896,462.5 904,445.0 912,437.0 920,442.3 928,459.8 936,484.0 944,506.6 952,519.6 960,518.3 968,503.0 976,478.6 984,453.3 992,435.1 1000,429.8 1008,438.1 1016,455.9 1024,475.9 1032,489.8 1040,491.8 1048,480.6 1056,459.8 1064,436.6 1072,419.5 1080,414.8 1088,424.9 1096,446.7 1104,473.3 1112,496.2 1120,508.2 1128,506.0 1136,491.5 1144,470.9 1152,452.3 1160,443.1 1168,447.1 1176,462.9 1184,484.8 1192,504.6 1200,514.7 1208,510.7 1216,493.2 1224,467.4 1232,441.5 1240,423.8 1248,419.6 1256,429.5 1264,449.1 1272,470.7 1280,486.2 1288,489.9 1296,480.5 1304,461.7 1312,440.8 1320,426.1 1328,423.8 1336,435.7 1344,458.6 1352,485.4 1360,507.4 1368,517.7 1376,513.3 1384,496.5 1392,473.6 1400,453.1 1408,442.1 1416,444.4 1424,458.5 1432,478.6 1440,496.5 1448,504.9 1456,499.5 1464,481.3 1472,455.8 1480,431.2 1488,415.6 1496,414.0 1504,426.7 1512,448.9 1520,472.8 1528,490.2 1536,495.3 1544,487.2 1552,469.6 1560,449.9 1568,436.3 1576,434.7 1584,446.8 1592,469.0 1600,494.3" fill="none" stroke="hsl(151, 100%, 72%)" stroke-opacity="0.37" stroke-width="1" /><polyline points="0,477.7 8,488.3 16,505.4 24,527.0 32,550.4 40,573.0 48,591.8 56,604.7 64,610.1 72,607.6 80,597.5 88,581.3 96,561.3 104,540.1 112,520.7 120,505.4 128,496.2 136,494.1 144,499.3 152,510.7 160,526.5 168,544.3 176,561.3 184,574.9 192,582.9 200,583.8 208,577.2 216,563.7 224,544.7 232,522.4 240,499.8 248,479.5 256,464.1 264,455.5 272,454.9 280,462.2 288,476.5 296,495.8 304,517.8 312,539.5 320,558.2 328,571.7 336,578.3 344,577.6 352,569.8 360,556.4 368,539.6 376,522.0 384,506.2 392,494.9 400,489.7 408,491.9 416,501.3 424,517.0 432,537.0 440,558.9 448,579.8 456,597.1 464,608.3 472,612.1 480,607.9 488,596.1 496,578.1 504,556.3 512,533.2 520,511.9 528,494.7 536,483.8 544,480.2 552,484.2 560,494.7 568,510.1 576,527.8 584,545.2 592,559.7 600,568.9 608,571.3 616,566.5 624,554.9 632,537.8 640,517.6 648,496.9 656,478.4 664,464.8 672,458.0 680,459.0 688,467.8 696,483.6 704,504.5 712,527.9 720,551.0 728,571.1 736,585.7 744,593.4 752,593.3 760,585.9 768,572.5 776,555.2 784,536.6 792,519.6 800,506.6 808,499.5 816,499.5 824,506.7 832,520.0 840,537.8 848,557.5 856,576.5 864,591.9 872,601.6 880,604.0 888,598.5 896,585.5 904,566.5 912,543.7 920,519.9 928,497.8 936,480.1 944,468.8 952,465.1 960,469.2 968,480.3 976,496.5 984,515.6 992,534.6 1000,551.1 1008,562.5 1016,567.4 1024,565.0 1032,555.9 1040,541.2 1048,523.1 1056,504.4 1064,487.6 1072,475.4 1080,469.6 1088,471.5 1096,481.0 1104,497.3 1112,518.5 1120,542.1 1128,565.2 1136,585.2 1144,599.6 1152,606.8 1160,606.0 1168,597.7 1176,583.0 1184,564.1 1192,543.7 1200,524.5 1208,509.1 1216,499.5 1224,497.0 1232,501.7 1240,512.7 1248,528.4 1256,546.4 1264,564.0 1272,578.4 1280,587.4 1288,589.4 1296,583.7 1304,570.9 1312,552.3 1320,529.9 1328,506.7 1336,485.3 1344,468.4 1352,458.1 1360,455.5 1368,461.0 1376,473.6 1384,491.6 1392,512.6 1400,533.9 1408,552.6 1416,566.5 1424,573.7 1432,573.6 1440,566.5 1448,553.7 1456,537.0 1464,519.3 1472,503.1 1480,491.1 1488,485.2 1496,486.6 1504,495.4 1512,510.7 1520,530.8 1528,553.2 1536,575.1 1544,593.8 1552,606.8 1560,612.5 1568,610.2 1576,600.1 1584,583.6 1592,562.8 1600,540.3" fill="none" stroke="hsl(151, 100%, 72%)" stroke-opacity="0.40" stroke-width="1" /><circle cx="913.5" cy="186.6" r="3.0" fill="hsl(279, 100%, 70%)" fill-opacity="0.7" /><circle cx="60.4" cy="36.6" r="1.4" fill="hsl(279, 100%, 70%)" fill-opacity="0.7" /><circle cx="1447.3" cy="416.7" r="3.2" fill="hsl(279, 100%, 70%)" fill-opacity="0.7" /><circle cx="1357.2" cy="229.2" r="1.2" fill="hsl(279, 100%, 70%)" fill-opacity="0.7" /><circle cx="915.3" cy="519.8" r="1.5" fill="hsl(279, 100%, 70%)" fill-opacity="0.7" /><circle cx="995.2" cy="564.1" r="3.2" fill="hsl(279, 100%, 70%)" fill-opacity="0.7" /><circle cx="292.8" cy="294.1" r="3.2" fill="hsl(279, 100%, 70%)" fill-opacity="0.7" /><circle cx="1306.7" cy="128.4" r="2.5" fill="hsl(279, 100%, 70%)" fill-opacity="0.7" /><circle cx="428.6" cy="578.6" r="3.4" fill="hsl(279, 100%, 70%)" fill-opacity="0.7" /><circle cx="665.3" cy="541.1" r="1.2" fill="hsl(279, 100%, 70%)" fill-opacity="0.7" /><circle cx="1027.6" cy="9.1" r="2.9" fill="hsl(279, 100%, 70%)" fill-opacity="0.7" /><circle cx="1305.5" cy="383.4" r="1.1" fill="hsl(279, 100%, 70%)" fill-opacity="0.7" /><circle cx="853.3" cy="67.6" r="3.0" fill="hsl(279, 100%, 70%)" fill-opacity="0.7" /><circle cx="1158.5" cy="431.8" r="2.7" fill="hsl(279, 100%, 70%)" fill-opacity="0.7" /><circle cx="494.5" cy="154.9" r="2.8" fill="hsl(279, 100%, 70%)" fill-opacity="0.7" /><circle cx="504.1" cy="342.7" r="1.7" fill="hsl(279, 100%, 70%)" fill-opacity="0.7" /><circle cx="1519.4" cy="441.3" r="1.3" fill="hsl(279, 100%, 70%)" fill-opacity="0.7" /><circle cx="426.1" cy="203.2" r="2.7" fill="hsl(279, 100%, 70%)" fill-opacity="0.7" /></g>
  <rect width="100%" height="100%" fill="url(#vignette)" />
  <text x="1540" y="550" text-anchor="end" font-family="Inter, sans-serif" font-weight="700" font-size="160" fill="hsl(151, 100%, 72%)" fill-opacity="0.18">06</text>
  <text x="60" y="565" font-family="Inter, sans-serif" font-weight="500" font-size="20" fill="hsl(151, 100%, 72%)" fill-opacity="0.45" letter-spacing="3">CHAPTER 6 · ANIMALS & TECHNOLOGY</text>
</svg>
