<?xml version="1.0" encoding="UTF-8"?>
<svg xmlns="http://www.w3.org/2000/svg" viewBox="0 0 1600 600" width="1600" height="600" preserveAspectRatio="xMidYMid slice" role="img">
  <defs>
    <linearGradient id="bg-grad" x1="0" y1="0" x2="0" y2="1">
      <stop offset="0%" stop-color="hsl(247.20000000000005, 50%, 14%)" />
      <stop offset="100%" stop-color="hsl(247.20000000000005, 60%, 8%)" />
    </linearGradient>
    <radialGradient id="glow" cx="50.0%" cy="35%" r="55%">
      <stop offset="0%" stop-color="hsl(217, 100%, 72%)" stop-opacity="0.5" />
      <stop offset="50%" stop-color="hsl(325, 100%, 70%)" stop-opacity="0.18" />
      <stop offset="100%" stop-color="hsl(247.20000000000005, 60%, 8%)" stop-opacity="0" />
    </radialGradient>
    <linearGradient id="vignette" x1="0" y1="1" x2="0" y2="0">
      <stop offset="0%" stop-color="hsl(247.20000000000005, 60%, 8%)" stop-opacity="0.85" />
      <stop offset="65%" stop-color="hsl(247.20000000000005, 60%, 8%)" stop-opacity="0" />
    </linearGradient>
  </defs>
  <rect width="100%" height="100%" fill="url(#bg-grad)" />
  <rect width="100%" height="100%" fill="url(#glow)" />
  <g><path d="M 800 48 L 1010 199.2 L 947 426 L 800 552 L 653 426 L 590 199.2 Z" fill="none" stroke="hsl(217, 100%, 72%)" stroke-opacity="0.55" stroke-width="2.5" stroke-linejoin="round" /><path d="M 800 93.35999999999999 L 972.2 217.344 L 920.54 403.32 L 800 506.64 L 679.46 403.32 L 627.8 217.344 Z" fill="none" stroke="hsl(217, 100%, 72%)" stroke-opacity="0.33" stroke-width="0.9" stroke-linejoin="round" /><path d="M 800 138.72 L 934.4 235.488 L 894.08 380.64 L 800 461.28 L 705.92 380.64 L 665.6 235.488 Z" fill="none" stroke="hsl(217, 100%, 72%)" stroke-opacity="0.26" stroke-width="0.9" stroke-linejoin="round" /><path d="M 800 184.08 L 896.6 253.632 L 867.62 357.96 L 800 415.91999999999996 L 732.38 357.96 L 703.4 253.632 Z" fill="none" stroke="hsl(217, 100%, 72%)" stroke-opacity="0.19" stroke-width="0.9" stroke-linejoin="round" /><path d="M 800 229.44 L 858.8 271.776 L 841.16 335.28 L 800 370.56 L 758.84 335.28 L 741.2 271.776 Z" fill="none" stroke="hsl(217, 100%, 72%)" stroke-opacity="0.12" stroke-width="0.9" stroke-linejoin="round" /><circle cx="1351.4" cy="263.3" r="1.2" fill="hsl(325, 100%, 70%)" fill-opacity="0.48" /><circle cx="586.7" cy="35.5" r="2.5" fill="hsl(325, 100%, 70%)" fill-opacity="0.44" /><circle cx="1589.9" cy="109.0" r="2.3" fill="hsl(325, 100%, 70%)" fill-opacity="0.24" /><circle cx="20.3" cy="20.7" r="2.6" fill="hsl(325, 100%, 70%)" fill-opacity="0.33" /><circle cx="408.0" cy="438.3" r="1.8" fill="hsl(325, 100%, 70%)" fill-opacity="0.45" /><circle cx="48.6" cy="396.7" r="1.7" fill="hsl(325, 100%, 70%)" fill-opacity="0.29" /><circle cx="865.9" cy="296.3" r="0.7" fill="hsl(325, 100%, 70%)" fill-opacity="0.43" /><circle cx="1027.6" cy="559.6" r="1.2" fill="hsl(325, 100%, 70%)" fill-opacity="0.27" /><circle cx="1596.2" cy="293.5" r="0.8" fill="hsl(325, 100%, 70%)" fill-opacity="0.35" /><circle cx="159.2" cy="263.0" r="1.3" fill="hsl(325, 100%, 70%)" fill-opacity="0.43" /><circle cx="535.7" cy="75.6" r="1.4" fill="hsl(325, 100%, 70%)" fill-opacity="0.32" /><circle cx="380.2" cy="168.7" r="1.3" fill="hsl(325, 100%, 70%)" fill-opacity="0.32" /><circle cx="1068.4" cy="592.6" r="1.9" fill="hsl(325, 100%, 70%)" fill-opacity="0.47" /><circle cx="318.8" cy="141.5" r="1.9" fill="hsl(325, 100%, 70%)" fill-opacity="0.29" /><circle cx="362.1" cy="291.6" r="2.4" fill="hsl(325, 100%, 70%)" fill-opacity="0.24" /><circle cx="793.4" cy="531.9" r="1.7" fill="hsl(325, 100%, 70%)" fill-opacity="0.18" /><circle cx="843.5" cy="19.1" r="2.1" fill="hsl(325, 100%, 70%)" fill-opacity="0.30" /><circle cx="843.4" cy="70.1" r="1.7" fill="hsl(325, 100%, 70%)" fill-opacity="0.41" /><circle cx="1162.2" cy="347.3" r="0.8" fill="hsl(325, 100%, 70%)" fill-opacity="0.20" /><circle cx="133.4" cy="120.9" r="1.0" fill="hsl(325, 100%, 70%)" fill-opacity="0.47" /><circle cx="1014.8" cy="412.8" r="2.6" fill="hsl(325, 100%, 70%)" fill-opacity="0.27" /><circle cx="1076.7" cy="57.0" r="2.1" fill="hsl(325, 100%, 70%)" fill-opacity="0.37" /><circle cx="199.5" cy="21.0" r="2.5" fill="hsl(325, 100%, 70%)" fill-opacity="0.43" /><circle cx="991.5" cy="462.4" r="0.6" fill="hsl(325, 100%, 70%)" fill-opacity="0.19" /><circle cx="1467.7" cy="402.2" r="1.0" fill="hsl(325, 100%, 70%)" fill-opacity="0.34" /><circle cx="665.7" cy="572.2" r="1.1" fill="hsl(325, 100%, 70%)" fill-opacity="0.37" /><circle cx="1527.3" cy="403.4" r="2.0" fill="hsl(325, 100%, 70%)" fill-opacity="0.26" /><circle cx="938.5" cy="138.5" r="1.0" fill="hsl(325, 100%, 70%)" fill-opacity="0.43" /><circle cx="1116.9" cy="454.9" r="2.3" fill="hsl(325, 100%, 70%)" fill-opacity="0.44" /><circle cx="569.3" cy="23.1" r="1.5" fill="hsl(325, 100%, 70%)" fill-opacity="0.19" /></g>
  <rect width="100%" height="100%" fill="url(#vignette)" />
  <text x="1540" y="550" text-anchor="end" font-family="Inter, sans-serif" font-weight="700" font-size="160" fill="hsl(217, 100%, 72%)" fill-opacity="0.18">05</text>
  <text x="60" y="565" font-family="Inter, sans-serif" font-weight="500" font-size="20" fill="hsl(217, 100%, 72%)" fill-opacity="0.45" letter-spacing="3">CHAPTER 5 · UTILITARIANISM & WARFARE</text>
</svg>
