<?xml version="1.0" encoding="UTF-8"?>
<svg xmlns="http://www.w3.org/2000/svg" viewBox="0 0 1600 600" width="1600" height="600" preserveAspectRatio="xMidYMid slice" role="img">
  <defs>
    <linearGradient id="bg-grad" x1="0" y1="0" x2="0" y2="1">
      <stop offset="0%" stop-color="hsl(252, 50%, 14%)" />
      <stop offset="100%" stop-color="hsl(252, 60%, 8%)" />
    </linearGradient>
    <radialGradient id="glow" cx="55.0%" cy="35%" r="55%">
      <stop offset="0%" stop-color="hsl(241, 100%, 72%)" stop-opacity="0.5" />
      <stop offset="50%" stop-color="hsl(342, 100%, 70%)" stop-opacity="0.18" />
      <stop offset="100%" stop-color="hsl(252, 60%, 8%)" stop-opacity="0" />
    </radialGradient>
    <linearGradient id="vignette" x1="0" y1="1" x2="0" y2="0">
      <stop offset="0%" stop-color="hsl(252, 60%, 8%)" stop-opacity="0.85" />
      <stop offset="65%" stop-color="hsl(252, 60%, 8%)" stop-opacity="0" />
    </linearGradient>
  </defs>
  <rect width="100%" height="100%" fill="url(#bg-grad)" />
  <rect width="100%" height="100%" fill="url(#glow)" />
  <g><rect x="0" y="0" width="70" height="70" fill="none" stroke="hsl(241, 100%, 72%)" stroke-opacity="0.07" stroke-width="0.6" /><rect x="70" y="0" width="70" height="70" fill="none" stroke="hsl(241, 100%, 72%)" stroke-opacity="0.16" stroke-width="0.6" /><circle cx="105" cy="35" r="5.8" fill="hsl(241, 100%, 72%)" fill-opacity="0.44" /><rect x="140" y="0" width="70" height="70" fill="none" stroke="hsl(241, 100%, 72%)" stroke-opacity="0.13" stroke-width="0.6" /><circle cx="175" cy="35" r="2.9" fill="hsl(241, 100%, 72%)" fill-opacity="0.28" /><rect x="210" y="0" width="70" height="70" fill="none" stroke="hsl(241, 100%, 72%)" stroke-opacity="0.22" stroke-width="0.6" /><rect x="280" y="0" width="70" height="70" fill="none" stroke="hsl(241, 100%, 72%)" stroke-opacity="0.14" stroke-width="0.6" /><rect x="350" y="0" width="70" height="70" fill="none" stroke="hsl(241, 100%, 72%)" stroke-opacity="0.21" stroke-width="0.6" /><circle cx="385" cy="35" r="4.5" fill="hsl(241, 100%, 72%)" fill-opacity="0.21" /><rect x="420" y="0" width="70" height="70" fill="none" stroke="hsl(241, 100%, 72%)" stroke-opacity="0.15" stroke-width="0.6" /><rect x="490" y="0" width="70" height="70" fill="none" stroke="hsl(241, 100%, 72%)" stroke-opacity="0.13" stroke-width="0.6" /><rect x="560" y="0" width="70" height="70" fill="none" stroke="hsl(241, 100%, 72%)" stroke-opacity="0.04" stroke-width="0.6" /><circle cx="595" cy="35" r="2.1" fill="hsl(241, 100%, 72%)" fill-opacity="0.21" /><rect x="630" y="0" width="70" height="70" fill="none" stroke="hsl(241, 100%, 72%)" stroke-opacity="0.21" stroke-width="0.6" /><rect x="700" y="0" width="70" height="70" fill="none" stroke="hsl(241, 100%, 72%)" stroke-opacity="0.12" stroke-width="0.6" /><rect x="770" y="0" width="70" height="70" fill="none" stroke="hsl(241, 100%, 72%)" stroke-opacity="0.08" stroke-width="0.6" /><rect x="840" y="0" width="70" height="70" fill="none" stroke="hsl(241, 100%, 72%)" stroke-opacity="0.08" stroke-width="0.6" /><rect x="910" y="0" width="70" height="70" fill="none" stroke="hsl(241, 100%, 72%)" stroke-opacity="0.11" stroke-width="0.6" /><rect x="980" y="0" width="70" height="70" fill="none" stroke="hsl(241, 100%, 72%)" stroke-opacity="0.13" stroke-width="0.6" /><rect x="1050" y="0" width="70" height="70" fill="none" stroke="hsl(241, 100%, 72%)" stroke-opacity="0.14" stroke-width="0.6" /><circle cx="1085" cy="35" r="2.4" fill="hsl(241, 100%, 72%)" fill-opacity="0.50" /><rect x="1120" y="0" width="70" height="70" fill="none" stroke="hsl(241, 100%, 72%)" stroke-opacity="0.21" stroke-width="0.6" /><circle cx="1155" cy="35" r="4.6" fill="hsl(241, 100%, 72%)" fill-opacity="0.59" /><rect x="1190" y="0" width="70" height="70" fill="none" stroke="hsl(241, 100%, 72%)" stroke-opacity="0.16" stroke-width="0.6" /><rect x="1260" y="0" width="70" height="70" fill="none" stroke="hsl(241, 100%, 72%)" stroke-opacity="0.16" stroke-width="0.6" /><rect x="1330" y="0" width="70" height="70" fill="none" stroke="hsl(241, 100%, 72%)" stroke-opacity="0.12" stroke-width="0.6" /><rect x="1400" y="0" width="70" height="70" fill="none" stroke="hsl(241, 100%, 72%)" stroke-opacity="0.21" stroke-width="0.6" /><rect x="1470" y="0" width="70" height="70" fill="none" stroke="hsl(241, 100%, 72%)" stroke-opacity="0.09" stroke-width="0.6" /><circle cx="1505" cy="35" r="3.3" fill="hsl(241, 100%, 72%)" fill-opacity="0.57" /><rect x="1540" y="0" width="70" height="70" fill="none" stroke="hsl(241, 100%, 72%)" stroke-opacity="0.20" stroke-width="0.6" /><rect x="1610" y="0" width="70" height="70" fill="none" stroke="hsl(241, 100%, 72%)" stroke-opacity="0.21" stroke-width="0.6" /><circle cx="1645" cy="35" r="4.3" fill="hsl(241, 100%, 72%)" fill-opacity="0.36" /><rect x="0" y="70" width="70" height="70" fill="none" stroke="hsl(241, 100%, 72%)" stroke-opacity="0.19" stroke-width="0.6" /><rect x="70" y="70" width="70" height="70" fill="none" stroke="hsl(241, 100%, 72%)" stroke-opacity="0.19" stroke-width="0.6" /><circle cx="105" cy="105" r="2.0" fill="hsl(241, 100%, 72%)" fill-opacity="0.34" /><rect x="140" y="70" width="70" height="70" fill="none" stroke="hsl(241, 100%, 72%)" stroke-opacity="0.08" stroke-width="0.6" /><rect x="210" y="70" width="70" height="70" fill="none" stroke="hsl(241, 100%, 72%)" stroke-opacity="0.17" stroke-width="0.6" /><circle cx="245" cy="105" r="5.2" fill="hsl(241, 100%, 72%)" fill-opacity="0.31" /><rect x="280" y="70" width="70" height="70" fill="none" stroke="hsl(241, 100%, 72%)" stroke-opacity="0.20" stroke-width="0.6" /><rect x="350" y="70" width="70" height="70" fill="none" stroke="hsl(241, 100%, 72%)" stroke-opacity="0.06" stroke-width="0.6" /><rect x="420" y="70" width="70" height="70" fill="none" stroke="hsl(241, 100%, 72%)" stroke-opacity="0.10" stroke-width="0.6" /><rect x="490" y="70" width="70" height="70" fill="none" stroke="hsl(241, 100%, 72%)" stroke-opacity="0.07" stroke-width="0.6" /><rect x="560" y="70" width="70" height="70" fill="none" stroke="hsl(241, 100%, 72%)" stroke-opacity="0.17" stroke-width="0.6" /><rect x="630" y="70" width="70" height="70" fill="none" stroke="hsl(241, 100%, 72%)" stroke-opacity="0.19" stroke-width="0.6" /><rect x="700" y="70" width="70" height="70" fill="none" stroke="hsl(241, 100%, 72%)" stroke-opacity="0.07" stroke-width="0.6" /><rect x="770" y="70" width="70" height="70" fill="none" stroke="hsl(241, 100%, 72%)" stroke-opacity="0.15" stroke-width="0.6" /><circle cx="805" cy="105" r="4.2" fill="hsl(241, 100%, 72%)" fill-opacity="0.32" /><rect x="840" y="70" width="70" height="70" fill="none" stroke="hsl(241, 100%, 72%)" stroke-opacity="0.10" stroke-width="0.6" /><rect x="910" y="70" width="70" height="70" fill="none" stroke="hsl(241, 100%, 72%)" stroke-opacity="0.14" stroke-width="0.6" /><rect x="980" y="70" width="70" height="70" fill="none" stroke="hsl(241, 100%, 72%)" stroke-opacity="0.07" stroke-width="0.6" /><circle cx="1015" cy="105" r="3.9" fill="hsl(241, 100%, 72%)" fill-opacity="0.31" /><rect x="1050" y="70" width="70" height="70" fill="none" stroke="hsl(241, 100%, 72%)" stroke-opacity="0.13" stroke-width="0.6" /><circle cx="1085" cy="105" r="5.6" fill="hsl(241, 100%, 72%)" fill-opacity="0.24" /><rect x="1120" y="70" width="70" height="70" fill="none" stroke="hsl(241, 100%, 72%)" stroke-opacity="0.22" stroke-width="0.6" /><circle cx="1155" cy="105" r="4.6" fill="hsl(241, 100%, 72%)" fill-opacity="0.48" /><rect x="1190" y="70" width="70" height="70" fill="none" stroke="hsl(241, 100%, 72%)" stroke-opacity="0.05" stroke-width="0.6" /><rect x="1260" y="70" width="70" height="70" fill="none" stroke="hsl(241, 100%, 72%)" stroke-opacity="0.13" stroke-width="0.6" /><rect x="1330" y="70" width="70" height="70" fill="none" stroke="hsl(241, 100%, 72%)" stroke-opacity="0.13" stroke-width="0.6" /><rect x="1400" y="70" width="70" height="70" fill="none" stroke="hsl(241, 100%, 72%)" stroke-opacity="0.15" stroke-width="0.6" /><rect x="1470" y="70" width="70" height="70" fill="none" stroke="hsl(241, 100%, 72%)" stroke-opacity="0.15" stroke-width="0.6" /><rect x="1540" y="70" width="70" height="70" fill="none" stroke="hsl(241, 100%, 72%)" stroke-opacity="0.18" stroke-width="0.6" /><rect x="1610" y="70" width="70" height="70" fill="none" stroke="hsl(241, 100%, 72%)" stroke-opacity="0.04" stroke-width="0.6" /><circle cx="1645" cy="105" r="4.6" fill="hsl(241, 100%, 72%)" fill-opacity="0.31" /><rect x="0" y="140" width="70" height="70" fill="none" stroke="hsl(241, 100%, 72%)" stroke-opacity="0.09" stroke-width="0.6" /><rect x="70" y="140" width="70" height="70" fill="none" stroke="hsl(241, 100%, 72%)" stroke-opacity="0.13" stroke-width="0.6" /><rect x="140" y="140" width="70" height="70" fill="none" stroke="hsl(241, 100%, 72%)" stroke-opacity="0.11" stroke-width="0.6" /><rect x="210" y="140" width="70" height="70" fill="none" stroke="hsl(241, 100%, 72%)" stroke-opacity="0.18" stroke-width="0.6" /><circle cx="245" cy="175" r="4.5" fill="hsl(241, 100%, 72%)" fill-opacity="0.58" /><rect x="280" y="140" width="70" height="70" fill="none" stroke="hsl(241, 100%, 72%)" stroke-opacity="0.19" stroke-width="0.6" /><rect x="350" y="140" width="70" height="70" fill="none" stroke="hsl(241, 100%, 72%)" stroke-opacity="0.04" stroke-width="0.6" /><rect x="420" y="140" width="70" height="70" fill="none" stroke="hsl(241, 100%, 72%)" stroke-opacity="0.05" stroke-width="0.6" /><circle cx="455" cy="175" r="5.4" fill="hsl(241, 100%, 72%)" fill-opacity="0.34" /><rect x="490" y="140" width="70" height="70" fill="none" stroke="hsl(241, 100%, 72%)" stroke-opacity="0.11" stroke-width="0.6" /><rect x="560" y="140" width="70" height="70" fill="none" stroke="hsl(241, 100%, 72%)" stroke-opacity="0.19" stroke-width="0.6" /><rect x="630" y="140" width="70" height="70" fill="none" stroke="hsl(241, 100%, 72%)" stroke-opacity="0.10" stroke-width="0.6" /><circle cx="665" cy="175" r="2.9" fill="hsl(241, 100%, 72%)" fill-opacity="0.47" /><rect x="700" y="140" width="70" height="70" fill="none" stroke="hsl(241, 100%, 72%)" stroke-opacity="0.07" stroke-width="0.6" /><rect x="770" y="140" width="70" height="70" fill="none" stroke="hsl(241, 100%, 72%)" stroke-opacity="0.17" stroke-width="0.6" /><circle cx="805" cy="175" r="5.6" fill="hsl(241, 100%, 72%)" fill-opacity="0.34" /><rect x="840" y="140" width="70" height="70" fill="none" stroke="hsl(241, 100%, 72%)" stroke-opacity="0.06" stroke-width="0.6" /><rect x="910" y="140" width="70" height="70" fill="none" stroke="hsl(241, 100%, 72%)" stroke-opacity="0.06" stroke-width="0.6" /><rect x="980" y="140" width="70" height="70" fill="none" stroke="hsl(241, 100%, 72%)" stroke-opacity="0.07" stroke-width="0.6" /><rect x="1050" y="140" width="70" height="70" fill="none" stroke="hsl(241, 100%, 72%)" stroke-opacity="0.13" stroke-width="0.6" /><rect x="1120" y="140" width="70" height="70" fill="none" stroke="hsl(241, 100%, 72%)" stroke-opacity="0.14" stroke-width="0.6" /><rect x="1190" y="140" width="70" height="70" fill="none" stroke="hsl(241, 100%, 72%)" stroke-opacity="0.09" stroke-width="0.6" /><rect x="1260" y="140" width="70" height="70" fill="none" stroke="hsl(241, 100%, 72%)" stroke-opacity="0.21" stroke-width="0.6" /><rect x="1330" y="140" width="70" height="70" fill="none" stroke="hsl(241, 100%, 72%)" stroke-opacity="0.16" stroke-width="0.6" /><rect x="1400" y="140" width="70" height="70" fill="none" stroke="hsl(241, 100%, 72%)" stroke-opacity="0.13" stroke-width="0.6" /><rect x="1470" y="140" width="70" height="70" fill="none" stroke="hsl(241, 100%, 72%)" stroke-opacity="0.09" stroke-width="0.6" /><circle cx="1505" cy="175" r="5.2" fill="hsl(241, 100%, 72%)" fill-opacity="0.45" /><rect x="1540" y="140" width="70" height="70" fill="none" stroke="hsl(241, 100%, 72%)" stroke-opacity="0.08" stroke-width="0.6" /><rect x="1610" y="140" width="70" height="70" fill="none" stroke="hsl(241, 100%, 72%)" stroke-opacity="0.10" stroke-width="0.6" /><circle cx="1645" cy="175" r="4.0" fill="hsl(241, 100%, 72%)" fill-opacity="0.58" /><rect x="0" y="210" width="70" height="70" fill="none" stroke="hsl(241, 100%, 72%)" stroke-opacity="0.06" stroke-width="0.6" /><rect x="70" y="210" width="70" height="70" fill="none" stroke="hsl(241, 100%, 72%)" stroke-opacity="0.10" stroke-width="0.6" /><rect x="140" y="210" width="70" height="70" fill="none" stroke="hsl(241, 100%, 72%)" stroke-opacity="0.08" stroke-width="0.6" /><circle cx="175" cy="245" r="5.9" fill="hsl(241, 100%, 72%)" fill-opacity="0.55" /><rect x="210" y="210" width="70" height="70" fill="none" stroke="hsl(241, 100%, 72%)" stroke-opacity="0.07" stroke-width="0.6" /><rect x="280" y="210" width="70" height="70" fill="none" stroke="hsl(241, 100%, 72%)" stroke-opacity="0.16" stroke-width="0.6" /><rect x="350" y="210" width="70" height="70" fill="none" stroke="hsl(241, 100%, 72%)" stroke-opacity="0.08" stroke-width="0.6" /><circle cx="385" cy="245" r="5.8" fill="hsl(241, 100%, 72%)" fill-opacity="0.32" /><rect x="420" y="210" width="70" height="70" fill="none" stroke="hsl(241, 100%, 72%)" stroke-opacity="0.16" stroke-width="0.6" /><rect x="490" y="210" width="70" height="70" fill="none" stroke="hsl(241, 100%, 72%)" stroke-opacity="0.06" stroke-width="0.6" /><rect x="560" y="210" width="70" height="70" fill="none" stroke="hsl(241, 100%, 72%)" stroke-opacity="0.17" stroke-width="0.6" /><rect x="630" y="210" width="70" height="70" fill="none" stroke="hsl(241, 100%, 72%)" stroke-opacity="0.14" stroke-width="0.6" /><rect x="700" y="210" width="70" height="70" fill="none" stroke="hsl(241, 100%, 72%)" stroke-opacity="0.19" stroke-width="0.6" /><rect x="770" y="210" width="70" height="70" fill="none" stroke="hsl(241, 100%, 72%)" stroke-opacity="0.10" stroke-width="0.6" /><rect x="840" y="210" width="70" height="70" fill="none" stroke="hsl(241, 100%, 72%)" stroke-opacity="0.14" stroke-width="0.6" /><rect x="910" y="210" width="70" height="70" fill="none" stroke="hsl(241, 100%, 72%)" stroke-opacity="0.08" stroke-width="0.6" /><rect x="980" y="210" width="70" height="70" fill="none" stroke="hsl(241, 100%, 72%)" stroke-opacity="0.18" stroke-width="0.6" /><rect x="1050" y="210" width="70" height="70" fill="none" stroke="hsl(241, 100%, 72%)" stroke-opacity="0.04" stroke-width="0.6" /><rect x="1120" y="210" width="70" height="70" fill="none" stroke="hsl(241, 100%, 72%)" stroke-opacity="0.06" stroke-width="0.6" /><rect x="1190" y="210" width="70" height="70" fill="none" stroke="hsl(241, 100%, 72%)" stroke-opacity="0.11" stroke-width="0.6" /><circle cx="1225" cy="245" r="2.1" fill="hsl(241, 100%, 72%)" fill-opacity="0.52" /><rect x="1260" y="210" width="70" height="70" fill="none" stroke="hsl(241, 100%, 72%)" stroke-opacity="0.20" stroke-width="0.6" /><rect x="1330" y="210" width="70" height="70" fill="none" stroke="hsl(241, 100%, 72%)" stroke-opacity="0.12" stroke-width="0.6" /><circle cx="1365" cy="245" r="5.7" fill="hsl(241, 100%, 72%)" fill-opacity="0.45" /><rect x="1400" y="210" width="70" height="70" fill="none" stroke="hsl(241, 100%, 72%)" stroke-opacity="0.08" stroke-width="0.6" /><rect x="1470" y="210" width="70" height="70" fill="none" stroke="hsl(241, 100%, 72%)" stroke-opacity="0.20" stroke-width="0.6" /><rect x="1540" y="210" width="70" height="70" fill="none" stroke="hsl(241, 100%, 72%)" stroke-opacity="0.11" stroke-width="0.6" /><rect x="1610" y="210" width="70" height="70" fill="none" stroke="hsl(241, 100%, 72%)" stroke-opacity="0.06" stroke-width="0.6" /><rect x="0" y="280" width="70" height="70" fill="none" stroke="hsl(241, 100%, 72%)" stroke-opacity="0.06" stroke-width="0.6" /><rect x="70" y="280" width="70" height="70" fill="none" stroke="hsl(241, 100%, 72%)" stroke-opacity="0.20" stroke-width="0.6" /><rect x="140" y="280" width="70" height="70" fill="none" stroke="hsl(241, 100%, 72%)" stroke-opacity="0.20" stroke-width="0.6" /><rect x="210" y="280" width="70" height="70" fill="none" stroke="hsl(241, 100%, 72%)" stroke-opacity="0.06" stroke-width="0.6" /><circle cx="245" cy="315" r="3.4" fill="hsl(241, 100%, 72%)" fill-opacity="0.45" /><rect x="280" y="280" width="70" height="70" fill="none" stroke="hsl(241, 100%, 72%)" stroke-opacity="0.14" stroke-width="0.6" /><rect x="350" y="280" width="70" height="70" fill="none" stroke="hsl(241, 100%, 72%)" stroke-opacity="0.08" stroke-width="0.6" /><circle cx="385" cy="315" r="5.6" fill="hsl(241, 100%, 72%)" fill-opacity="0.43" /><rect x="420" y="280" width="70" height="70" fill="none" stroke="hsl(241, 100%, 72%)" stroke-opacity="0.15" stroke-width="0.6" /><circle cx="455" cy="315" r="4.1" fill="hsl(241, 100%, 72%)" fill-opacity="0.60" /><rect x="490" y="280" width="70" height="70" fill="none" stroke="hsl(241, 100%, 72%)" stroke-opacity="0.20" stroke-width="0.6" /><rect x="560" y="280" width="70" height="70" fill="none" stroke="hsl(241, 100%, 72%)" stroke-opacity="0.09" stroke-width="0.6" /><rect x="630" y="280" width="70" height="70" fill="none" stroke="hsl(241, 100%, 72%)" stroke-opacity="0.16" stroke-width="0.6" /><rect x="700" y="280" width="70" height="70" fill="none" stroke="hsl(241, 100%, 72%)" stroke-opacity="0.22" stroke-width="0.6" /><rect x="770" y="280" width="70" height="70" fill="none" stroke="hsl(241, 100%, 72%)" stroke-opacity="0.10" stroke-width="0.6" /><circle cx="805" cy="315" r="3.4" fill="hsl(241, 100%, 72%)" fill-opacity="0.24" /><rect x="840" y="280" width="70" height="70" fill="none" stroke="hsl(241, 100%, 72%)" stroke-opacity="0.12" stroke-width="0.6" /><rect x="910" y="280" width="70" height="70" fill="none" stroke="hsl(241, 100%, 72%)" stroke-opacity="0.14" stroke-width="0.6" /><rect x="980" y="280" width="70" height="70" fill="none" stroke="hsl(241, 100%, 72%)" stroke-opacity="0.12" stroke-width="0.6" /><rect x="1050" y="280" width="70" height="70" fill="none" stroke="hsl(241, 100%, 72%)" stroke-opacity="0.17" stroke-width="0.6" /><rect x="1120" y="280" width="70" height="70" fill="none" stroke="hsl(241, 100%, 72%)" stroke-opacity="0.12" stroke-width="0.6" /><rect x="1190" y="280" width="70" height="70" fill="none" stroke="hsl(241, 100%, 72%)" stroke-opacity="0.21" stroke-width="0.6" /><rect x="1260" y="280" width="70" height="70" fill="none" stroke="hsl(241, 100%, 72%)" stroke-opacity="0.21" stroke-width="0.6" /><circle cx="1295" cy="315" r="2.3" fill="hsl(241, 100%, 72%)" fill-opacity="0.31" /><rect x="1330" y="280" width="70" height="70" fill="none" stroke="hsl(241, 100%, 72%)" stroke-opacity="0.12" stroke-width="0.6" /><circle cx="1365" cy="315" r="3.8" fill="hsl(241, 100%, 72%)" fill-opacity="0.37" /><rect x="1400" y="280" width="70" height="70" fill="none" stroke="hsl(241, 100%, 72%)" stroke-opacity="0.21" stroke-width="0.6" /><rect x="1470" y="280" width="70" height="70" fill="none" stroke="hsl(241, 100%, 72%)" stroke-opacity="0.20" stroke-width="0.6" /><rect x="1540" y="280" width="70" height="70" fill="none" stroke="hsl(241, 100%, 72%)" stroke-opacity="0.14" stroke-width="0.6" /><circle cx="1575" cy="315" r="3.6" fill="hsl(241, 100%, 72%)" fill-opacity="0.35" /><rect x="1610" y="280" width="70" height="70" fill="none" stroke="hsl(241, 100%, 72%)" stroke-opacity="0.04" stroke-width="0.6" /><rect x="0" y="350" width="70" height="70" fill="none" stroke="hsl(241, 100%, 72%)" stroke-opacity="0.16" stroke-width="0.6" /><rect x="70" y="350" width="70" height="70" fill="none" stroke="hsl(241, 100%, 72%)" stroke-opacity="0.12" stroke-width="0.6" /><rect x="140" y="350" width="70" height="70" fill="none" stroke="hsl(241, 100%, 72%)" stroke-opacity="0.12" stroke-width="0.6" /><rect x="210" y="350" width="70" height="70" fill="none" stroke="hsl(241, 100%, 72%)" stroke-opacity="0.09" stroke-width="0.6" /><rect x="280" y="350" width="70" height="70" fill="none" stroke="hsl(241, 100%, 72%)" stroke-opacity="0.13" stroke-width="0.6" /><rect x="350" y="350" width="70" height="70" fill="none" stroke="hsl(241, 100%, 72%)" stroke-opacity="0.18" stroke-width="0.6" /><circle cx="385" cy="385" r="3.3" fill="hsl(241, 100%, 72%)" fill-opacity="0.51" /><rect x="420" y="350" width="70" height="70" fill="none" stroke="hsl(241, 100%, 72%)" stroke-opacity="0.09" stroke-width="0.6" /><circle cx="455" cy="385" r="3.1" fill="hsl(241, 100%, 72%)" fill-opacity="0.59" /><rect x="490" y="350" width="70" height="70" fill="none" stroke="hsl(241, 100%, 72%)" stroke-opacity="0.12" stroke-width="0.6" /><rect x="560" y="350" width="70" height="70" fill="none" stroke="hsl(241, 100%, 72%)" stroke-opacity="0.20" stroke-width="0.6" /><rect x="630" y="350" width="70" height="70" fill="none" stroke="hsl(241, 100%, 72%)" stroke-opacity="0.14" stroke-width="0.6" /><rect x="700" y="350" width="70" height="70" fill="none" stroke="hsl(241, 100%, 72%)" stroke-opacity="0.15" stroke-width="0.6" /><rect x="770" y="350" width="70" height="70" fill="none" stroke="hsl(241, 100%, 72%)" stroke-opacity="0.09" stroke-width="0.6" /><rect x="840" y="350" width="70" height="70" fill="none" stroke="hsl(241, 100%, 72%)" stroke-opacity="0.22" stroke-width="0.6" /><rect x="910" y="350" width="70" height="70" fill="none" stroke="hsl(241, 100%, 72%)" stroke-opacity="0.09" stroke-width="0.6" /><rect x="980" y="350" width="70" height="70" fill="none" stroke="hsl(241, 100%, 72%)" stroke-opacity="0.19" stroke-width="0.6" /><rect x="1050" y="350" width="70" height="70" fill="none" stroke="hsl(241, 100%, 72%)" stroke-opacity="0.12" stroke-width="0.6" /><rect x="1120" y="350" width="70" height="70" fill="none" stroke="hsl(241, 100%, 72%)" stroke-opacity="0.19" stroke-width="0.6" /><rect x="1190" y="350" width="70" height="70" fill="none" stroke="hsl(241, 100%, 72%)" stroke-opacity="0.12" stroke-width="0.6" /><circle cx="1225" cy="385" r="4.6" fill="hsl(241, 100%, 72%)" fill-opacity="0.24" /><rect x="1260" y="350" width="70" height="70" fill="none" stroke="hsl(241, 100%, 72%)" stroke-opacity="0.10" stroke-width="0.6" /><circle cx="1295" cy="385" r="4.2" fill="hsl(241, 100%, 72%)" fill-opacity="0.45" /><rect x="1330" y="350" width="70" height="70" fill="none" stroke="hsl(241, 100%, 72%)" stroke-opacity="0.04" stroke-width="0.6" /><rect x="1400" y="350" width="70" height="70" fill="none" stroke="hsl(241, 100%, 72%)" stroke-opacity="0.15" stroke-width="0.6" /><circle cx="1435" cy="385" r="3.3" fill="hsl(241, 100%, 72%)" fill-opacity="0.32" /><rect x="1470" y="350" width="70" height="70" fill="none" stroke="hsl(241, 100%, 72%)" stroke-opacity="0.18" stroke-width="0.6" /><circle cx="1505" cy="385" r="5.4" fill="hsl(241, 100%, 72%)" fill-opacity="0.39" /><rect x="1540" y="350" width="70" height="70" fill="none" stroke="hsl(241, 100%, 72%)" stroke-opacity="0.20" stroke-width="0.6" /><rect x="1610" y="350" width="70" height="70" fill="none" stroke="hsl(241, 100%, 72%)" stroke-opacity="0.14" stroke-width="0.6" /><rect x="0" y="420" width="70" height="70" fill="none" stroke="hsl(241, 100%, 72%)" stroke-opacity="0.21" stroke-width="0.6" /><rect x="70" y="420" width="70" height="70" fill="none" stroke="hsl(241, 100%, 72%)" stroke-opacity="0.10" stroke-width="0.6" /><rect x="140" y="420" width="70" height="70" fill="none" stroke="hsl(241, 100%, 72%)" stroke-opacity="0.16" stroke-width="0.6" /><rect x="210" y="420" width="70" height="70" fill="none" stroke="hsl(241, 100%, 72%)" stroke-opacity="0.09" stroke-width="0.6" /><rect x="280" y="420" width="70" height="70" fill="none" stroke="hsl(241, 100%, 72%)" stroke-opacity="0.11" stroke-width="0.6" /><rect x="350" y="420" width="70" height="70" fill="none" stroke="hsl(241, 100%, 72%)" stroke-opacity="0.07" stroke-width="0.6" /><rect x="420" y="420" width="70" height="70" fill="none" stroke="hsl(241, 100%, 72%)" stroke-opacity="0.16" stroke-width="0.6" /><circle cx="455" cy="455" r="2.0" fill="hsl(241, 100%, 72%)" fill-opacity="0.26" /><rect x="490" y="420" width="70" height="70" fill="none" stroke="hsl(241, 100%, 72%)" stroke-opacity="0.07" stroke-width="0.6" /><rect x="560" y="420" width="70" height="70" fill="none" stroke="hsl(241, 100%, 72%)" stroke-opacity="0.14" stroke-width="0.6" /><rect x="630" y="420" width="70" height="70" fill="none" stroke="hsl(241, 100%, 72%)" stroke-opacity="0.11" stroke-width="0.6" /><circle cx="665" cy="455" r="5.4" fill="hsl(241, 100%, 72%)" fill-opacity="0.48" /><rect x="700" y="420" width="70" height="70" fill="none" stroke="hsl(241, 100%, 72%)" stroke-opacity="0.08" stroke-width="0.6" /><rect x="770" y="420" width="70" height="70" fill="none" stroke="hsl(241, 100%, 72%)" stroke-opacity="0.08" stroke-width="0.6" /><rect x="840" y="420" width="70" height="70" fill="none" stroke="hsl(241, 100%, 72%)" stroke-opacity="0.11" stroke-width="0.6" /><rect x="910" y="420" width="70" height="70" fill="none" stroke="hsl(241, 100%, 72%)" stroke-opacity="0.17" stroke-width="0.6" /><rect x="980" y="420" width="70" height="70" fill="none" stroke="hsl(241, 100%, 72%)" stroke-opacity="0.07" stroke-width="0.6" /><rect x="1050" y="420" width="70" height="70" fill="none" stroke="hsl(241, 100%, 72%)" stroke-opacity="0.20" stroke-width="0.6" /><rect x="1120" y="420" width="70" height="70" fill="none" stroke="hsl(241, 100%, 72%)" stroke-opacity="0.06" stroke-width="0.6" /><rect x="1190" y="420" width="70" height="70" fill="none" stroke="hsl(241, 100%, 72%)" stroke-opacity="0.11" stroke-width="0.6" /><rect x="1260" y="420" width="70" height="70" fill="none" stroke="hsl(241, 100%, 72%)" stroke-opacity="0.08" stroke-width="0.6" /><circle cx="1295" cy="455" r="2.0" fill="hsl(241, 100%, 72%)" fill-opacity="0.25" /><rect x="1330" y="420" width="70" height="70" fill="none" stroke="hsl(241, 100%, 72%)" stroke-opacity="0.21" stroke-width="0.6" /><rect x="1400" y="420" width="70" height="70" fill="none" stroke="hsl(241, 100%, 72%)" stroke-opacity="0.10" stroke-width="0.6" /><rect x="1470" y="420" width="70" height="70" fill="none" stroke="hsl(241, 100%, 72%)" stroke-opacity="0.20" stroke-width="0.6" /><rect x="1540" y="420" width="70" height="70" fill="none" stroke="hsl(241, 100%, 72%)" stroke-opacity="0.14" stroke-width="0.6" /><circle cx="1575" cy="455" r="3.7" fill="hsl(241, 100%, 72%)" fill-opacity="0.49" /><rect x="1610" y="420" width="70" height="70" fill="none" stroke="hsl(241, 100%, 72%)" stroke-opacity="0.15" stroke-width="0.6" /><rect x="0" y="490" width="70" height="70" fill="none" stroke="hsl(241, 100%, 72%)" stroke-opacity="0.22" stroke-width="0.6" /><rect x="70" y="490" width="70" height="70" fill="none" stroke="hsl(241, 100%, 72%)" stroke-opacity="0.13" stroke-width="0.6" /><circle cx="105" cy="525" r="5.4" fill="hsl(241, 100%, 72%)" fill-opacity="0.30" /><rect x="140" y="490" width="70" height="70" fill="none" stroke="hsl(241, 100%, 72%)" stroke-opacity="0.18" stroke-width="0.6" /><circle cx="175" cy="525" r="4.8" fill="hsl(241, 100%, 72%)" fill-opacity="0.51" /><rect x="210" y="490" width="70" height="70" fill="none" stroke="hsl(241, 100%, 72%)" stroke-opacity="0.18" stroke-width="0.6" /><rect x="280" y="490" width="70" height="70" fill="none" stroke="hsl(241, 100%, 72%)" stroke-opacity="0.19" stroke-width="0.6" /><rect x="350" y="490" width="70" height="70" fill="none" stroke="hsl(241, 100%, 72%)" stroke-opacity="0.04" stroke-width="0.6" /><rect x="420" y="490" width="70" height="70" fill="none" stroke="hsl(241, 100%, 72%)" stroke-opacity="0.11" stroke-width="0.6" /><circle cx="455" cy="525" r="3.1" fill="hsl(241, 100%, 72%)" fill-opacity="0.55" /><rect x="490" y="490" width="70" height="70" fill="none" stroke="hsl(241, 100%, 72%)" stroke-opacity="0.05" stroke-width="0.6" /><rect x="560" y="490" width="70" height="70" fill="none" stroke="hsl(241, 100%, 72%)" stroke-opacity="0.13" stroke-width="0.6" /><rect x="630" y="490" width="70" height="70" fill="none" stroke="hsl(241, 100%, 72%)" stroke-opacity="0.11" stroke-width="0.6" /><rect x="700" y="490" width="70" height="70" fill="none" stroke="hsl(241, 100%, 72%)" stroke-opacity="0.10" stroke-width="0.6" /><rect x="770" y="490" width="70" height="70" fill="none" stroke="hsl(241, 100%, 72%)" stroke-opacity="0.17" stroke-width="0.6" /><rect x="840" y="490" width="70" height="70" fill="none" stroke="hsl(241, 100%, 72%)" stroke-opacity="0.16" stroke-width="0.6" /><rect x="910" y="490" width="70" height="70" fill="none" stroke="hsl(241, 100%, 72%)" stroke-opacity="0.17" stroke-width="0.6" /><circle cx="945" cy="525" r="3.3" fill="hsl(241, 100%, 72%)" fill-opacity="0.53" /><rect x="980" y="490" width="70" height="70" fill="none" stroke="hsl(241, 100%, 72%)" stroke-opacity="0.17" stroke-width="0.6" /><rect x="1050" y="490" width="70" height="70" fill="none" stroke="hsl(241, 100%, 72%)" stroke-opacity="0.10" stroke-width="0.6" /><circle cx="1085" cy="525" r="4.0" fill="hsl(241, 100%, 72%)" fill-opacity="0.29" /><rect x="1120" y="490" width="70" height="70" fill="none" stroke="hsl(241, 100%, 72%)" stroke-opacity="0.09" stroke-width="0.6" /><rect x="1190" y="490" width="70" height="70" fill="none" stroke="hsl(241, 100%, 72%)" stroke-opacity="0.13" stroke-width="0.6" /><rect x="1260" y="490" width="70" height="70" fill="none" stroke="hsl(241, 100%, 72%)" stroke-opacity="0.18" stroke-width="0.6" /><circle cx="1295" cy="525" r="3.3" fill="hsl(241, 100%, 72%)" fill-opacity="0.58" /><rect x="1330" y="490" width="70" height="70" fill="none" stroke="hsl(241, 100%, 72%)" stroke-opacity="0.13" stroke-width="0.6" /><rect x="1400" y="490" width="70" height="70" fill="none" stroke="hsl(241, 100%, 72%)" stroke-opacity="0.14" stroke-width="0.6" /><rect x="1470" y="490" width="70" height="70" fill="none" stroke="hsl(241, 100%, 72%)" stroke-opacity="0.10" stroke-width="0.6" /><rect x="1540" y="490" width="70" height="70" fill="none" stroke="hsl(241, 100%, 72%)" stroke-opacity="0.20" stroke-width="0.6" /><rect x="1610" y="490" width="70" height="70" fill="none" stroke="hsl(241, 100%, 72%)" stroke-opacity="0.12" stroke-width="0.6" /><rect x="0" y="560" width="70" height="70" fill="none" stroke="hsl(241, 100%, 72%)" stroke-opacity="0.04" stroke-width="0.6" /><rect x="70" y="560" width="70" height="70" fill="none" stroke="hsl(241, 100%, 72%)" stroke-opacity="0.09" stroke-width="0.6" /><rect x="140" y="560" width="70" height="70" fill="none" stroke="hsl(241, 100%, 72%)" stroke-opacity="0.06" stroke-width="0.6" /><rect x="210" y="560" width="70" height="70" fill="none" stroke="hsl(241, 100%, 72%)" stroke-opacity="0.13" stroke-width="0.6" /><circle cx="245" cy="595" r="5.3" fill="hsl(241, 100%, 72%)" fill-opacity="0.34" /><rect x="280" y="560" width="70" height="70" fill="none" stroke="hsl(241, 100%, 72%)" stroke-opacity="0.12" stroke-width="0.6" /><rect x="350" y="560" width="70" height="70" fill="none" stroke="hsl(241, 100%, 72%)" stroke-opacity="0.12" stroke-width="0.6" /><circle cx="385" cy="595" r="5.6" fill="hsl(241, 100%, 72%)" fill-opacity="0.33" /><rect x="420" y="560" width="70" height="70" fill="none" stroke="hsl(241, 100%, 72%)" stroke-opacity="0.13" stroke-width="0.6" /><rect x="490" y="560" width="70" height="70" fill="none" stroke="hsl(241, 100%, 72%)" stroke-opacity="0.12" stroke-width="0.6" /><rect x="560" y="560" width="70" height="70" fill="none" stroke="hsl(241, 100%, 72%)" stroke-opacity="0.08" stroke-width="0.6" /><rect x="630" y="560" width="70" height="70" fill="none" stroke="hsl(241, 100%, 72%)" stroke-opacity="0.14" stroke-width="0.6" /><rect x="700" y="560" width="70" height="70" fill="none" stroke="hsl(241, 100%, 72%)" stroke-opacity="0.06" stroke-width="0.6" /><rect x="770" y="560" width="70" height="70" fill="none" stroke="hsl(241, 100%, 72%)" stroke-opacity="0.22" stroke-width="0.6" /><rect x="840" y="560" width="70" height="70" fill="none" stroke="hsl(241, 100%, 72%)" stroke-opacity="0.05" stroke-width="0.6" /><rect x="910" y="560" width="70" height="70" fill="none" stroke="hsl(241, 100%, 72%)" stroke-opacity="0.14" stroke-width="0.6" /><rect x="980" y="560" width="70" height="70" fill="none" stroke="hsl(241, 100%, 72%)" stroke-opacity="0.10" stroke-width="0.6" /><rect x="1050" y="560" width="70" height="70" fill="none" stroke="hsl(241, 100%, 72%)" stroke-opacity="0.17" stroke-width="0.6" /><rect x="1120" y="560" width="70" height="70" fill="none" stroke="hsl(241, 100%, 72%)" stroke-opacity="0.13" stroke-width="0.6" /><rect x="1190" y="560" width="70" height="70" fill="none" stroke="hsl(241, 100%, 72%)" stroke-opacity="0.13" stroke-width="0.6" /><rect x="1260" y="560" width="70" height="70" fill="none" stroke="hsl(241, 100%, 72%)" stroke-opacity="0.19" stroke-width="0.6" /><rect x="1330" y="560" width="70" height="70" fill="none" stroke="hsl(241, 100%, 72%)" stroke-opacity="0.15" stroke-width="0.6" /><rect x="1400" y="560" width="70" height="70" fill="none" stroke="hsl(241, 100%, 72%)" stroke-opacity="0.17" stroke-width="0.6" /><circle cx="1435" cy="595" r="5.4" fill="hsl(241, 100%, 72%)" fill-opacity="0.28" /><rect x="1470" y="560" width="70" height="70" fill="none" stroke="hsl(241, 100%, 72%)" stroke-opacity="0.05" stroke-width="0.6" /><rect x="1540" y="560" width="70" height="70" fill="none" stroke="hsl(241, 100%, 72%)" stroke-opacity="0.06" stroke-width="0.6" /><rect x="1610" y="560" width="70" height="70" fill="none" stroke="hsl(241, 100%, 72%)" stroke-opacity="0.16" stroke-width="0.6" /><rect x="0" y="630" width="70" height="70" fill="none" stroke="hsl(241, 100%, 72%)" stroke-opacity="0.09" stroke-width="0.6" /><rect x="70" y="630" width="70" height="70" fill="none" stroke="hsl(241, 100%, 72%)" stroke-opacity="0.13" stroke-width="0.6" /><rect x="140" y="630" width="70" height="70" fill="none" stroke="hsl(241, 100%, 72%)" stroke-opacity="0.08" stroke-width="0.6" /><rect x="210" y="630" width="70" height="70" fill="none" stroke="hsl(241, 100%, 72%)" stroke-opacity="0.17" stroke-width="0.6" /><circle cx="245" cy="665" r="2.4" fill="hsl(241, 100%, 72%)" fill-opacity="0.35" /><rect x="280" y="630" width="70" height="70" fill="none" stroke="hsl(241, 100%, 72%)" stroke-opacity="0.12" stroke-width="0.6" /><rect x="350" y="630" width="70" height="70" fill="none" stroke="hsl(241, 100%, 72%)" stroke-opacity="0.05" stroke-width="0.6" /><circle cx="385" cy="665" r="5.3" fill="hsl(241, 100%, 72%)" fill-opacity="0.53" /><rect x="420" y="630" width="70" height="70" fill="none" stroke="hsl(241, 100%, 72%)" stroke-opacity="0.18" stroke-width="0.6" /><rect x="490" y="630" width="70" height="70" fill="none" stroke="hsl(241, 100%, 72%)" stroke-opacity="0.11" stroke-width="0.6" /><rect x="560" y="630" width="70" height="70" fill="none" stroke="hsl(241, 100%, 72%)" stroke-opacity="0.21" stroke-width="0.6" /><circle cx="595" cy="665" r="4.7" fill="hsl(241, 100%, 72%)" fill-opacity="0.37" /><rect x="630" y="630" width="70" height="70" fill="none" stroke="hsl(241, 100%, 72%)" stroke-opacity="0.11" stroke-width="0.6" /><rect x="700" y="630" width="70" height="70" fill="none" stroke="hsl(241, 100%, 72%)" stroke-opacity="0.05" stroke-width="0.6" /><rect x="770" y="630" width="70" height="70" fill="none" stroke="hsl(241, 100%, 72%)" stroke-opacity="0.14" stroke-width="0.6" /><circle cx="805" cy="665" r="4.8" fill="hsl(241, 100%, 72%)" fill-opacity="0.30" /><rect x="840" y="630" width="70" height="70" fill="none" stroke="hsl(241, 100%, 72%)" stroke-opacity="0.16" stroke-width="0.6" /><rect x="910" y="630" width="70" height="70" fill="none" stroke="hsl(241, 100%, 72%)" stroke-opacity="0.18" stroke-width="0.6" /><circle cx="945" cy="665" r="2.0" fill="hsl(241, 100%, 72%)" fill-opacity="0.42" /><rect x="980" y="630" width="70" height="70" fill="none" stroke="hsl(241, 100%, 72%)" stroke-opacity="0.19" stroke-width="0.6" /><rect x="1050" y="630" width="70" height="70" fill="none" stroke="hsl(241, 100%, 72%)" stroke-opacity="0.22" stroke-width="0.6" /><rect x="1120" y="630" width="70" height="70" fill="none" stroke="hsl(241, 100%, 72%)" stroke-opacity="0.05" stroke-width="0.6" /><circle cx="1155" cy="665" r="3.3" fill="hsl(241, 100%, 72%)" fill-opacity="0.46" /><rect x="1190" y="630" width="70" height="70" fill="none" stroke="hsl(241, 100%, 72%)" stroke-opacity="0.19" stroke-width="0.6" /><rect x="1260" y="630" width="70" height="70" fill="none" stroke="hsl(241, 100%, 72%)" stroke-opacity="0.09" stroke-width="0.6" /><circle cx="1295" cy="665" r="3.7" fill="hsl(241, 100%, 72%)" fill-opacity="0.47" /><rect x="1330" y="630" width="70" height="70" fill="none" stroke="hsl(241, 100%, 72%)" stroke-opacity="0.19" stroke-width="0.6" /><rect x="1400" y="630" width="70" height="70" fill="none" stroke="hsl(241, 100%, 72%)" stroke-opacity="0.10" stroke-width="0.6" /><circle cx="1435" cy="665" r="5.3" fill="hsl(241, 100%, 72%)" fill-opacity="0.39" /><rect x="1470" y="630" width="70" height="70" fill="none" stroke="hsl(241, 100%, 72%)" stroke-opacity="0.13" stroke-width="0.6" /><rect x="1540" y="630" width="70" height="70" fill="none" stroke="hsl(241, 100%, 72%)" stroke-opacity="0.14" stroke-width="0.6" /><rect x="1610" y="630" width="70" height="70" fill="none" stroke="hsl(241, 100%, 72%)" stroke-opacity="0.17" stroke-width="0.6" /></g>
  <rect width="100%" height="100%" fill="url(#vignette)" />
  <text x="1540" y="550" text-anchor="end" font-family="Inter, sans-serif" font-weight="700" font-size="160" fill="hsl(241, 100%, 72%)" fill-opacity="0.18">07</text>
  <text x="60" y="565" font-family="Inter, sans-serif" font-weight="500" font-size="20" fill="hsl(241, 100%, 72%)" fill-opacity="0.45" letter-spacing="3">CHAPTER 7 · KANTIANISM, UTOPIAS, DYSTOPIAS</text>
</svg>
