<?xml version="1.0" encoding="UTF-8"?>
<svg xmlns="http://www.w3.org/2000/svg" viewBox="0 0 1600 600" width="1600" height="600" preserveAspectRatio="xMidYMid slice" role="img">
  <defs>
    <linearGradient id="bg-grad" x1="0" y1="0" x2="0" y2="1">
      <stop offset="0%" stop-color="hsl(231, 50%, 14%)" />
      <stop offset="100%" stop-color="hsl(231, 60%, 8%)" />
    </linearGradient>
    <radialGradient id="glow" cx="50.0%" cy="35%" r="55%">
      <stop offset="0%" stop-color="hsl(136, 100%, 72%)" stop-opacity="0.5" />
      <stop offset="50%" stop-color="hsl(268, 100%, 70%)" stop-opacity="0.18" />
      <stop offset="100%" stop-color="hsl(231, 60%, 8%)" stop-opacity="0" />
    </radialGradient>
    <linearGradient id="vignette" x1="0" y1="1" x2="0" y2="0">
      <stop offset="0%" stop-color="hsl(231, 60%, 8%)" stop-opacity="0.85" />
      <stop offset="65%" stop-color="hsl(231, 60%, 8%)" stop-opacity="0" />
    </linearGradient>
  </defs>
  <rect width="100%" height="100%" fill="url(#bg-grad)" />
  <rect width="100%" height="100%" fill="url(#glow)" />
  <g><line x1="908.0" y1="45.0" x2="692.0" y2="45.0" stroke="hsl(136, 100%, 72%)" stroke-opacity="0.24" stroke-width="0.6" /><circle cx="908.0" cy="45.0" r="2.5" fill="hsl(136, 100%, 72%)" fill-opacity="0.60" /><circle cx="692.0" cy="45.0" r="2.5" fill="hsl(268, 100%, 70%)" fill-opacity="0.60" /><circle cx="902.5" cy="53.6" r="2.5" fill="hsl(136, 100%, 72%)" fill-opacity="0.59" /><circle cx="697.5" cy="53.6" r="2.5" fill="hsl(268, 100%, 70%)" fill-opacity="0.59" /><circle cx="886.7" cy="62.3" r="2.5" fill="hsl(136, 100%, 72%)" fill-opacity="0.59" /><circle cx="713.3" cy="62.3" r="2.5" fill="hsl(268, 100%, 70%)" fill-opacity="0.59" /><line x1="862.1" y1="70.9" x2="737.9" y2="70.9" stroke="hsl(136, 100%, 72%)" stroke-opacity="0.23" stroke-width="0.6" /><circle cx="862.1" cy="70.9" r="2.5" fill="hsl(136, 100%, 72%)" fill-opacity="0.58" /><circle cx="737.9" cy="70.9" r="2.5" fill="hsl(268, 100%, 70%)" fill-opacity="0.58" /><circle cx="831.2" cy="79.6" r="2.5" fill="hsl(136, 100%, 72%)" fill-opacity="0.58" /><circle cx="768.8" cy="79.6" r="2.5" fill="hsl(268, 100%, 70%)" fill-opacity="0.58" /><circle cx="797.1" cy="88.2" r="2.5" fill="hsl(136, 100%, 72%)" fill-opacity="0.57" /><circle cx="802.9" cy="88.2" r="2.5" fill="hsl(268, 100%, 70%)" fill-opacity="0.57" /><line x1="763.4" y1="96.9" x2="836.6" y2="96.9" stroke="hsl(136, 100%, 72%)" stroke-opacity="0.23" stroke-width="0.6" /><circle cx="763.4" cy="96.9" r="2.5" fill="hsl(136, 100%, 72%)" fill-opacity="0.57" /><circle cx="836.6" cy="96.9" r="2.5" fill="hsl(268, 100%, 70%)" fill-opacity="0.57" /><circle cx="733.3" cy="105.5" r="2.5" fill="hsl(136, 100%, 72%)" fill-opacity="0.56" /><circle cx="866.7" cy="105.5" r="2.5" fill="hsl(268, 100%, 70%)" fill-opacity="0.56" /><circle cx="710.0" cy="114.2" r="2.5" fill="hsl(136, 100%, 72%)" fill-opacity="0.56" /><circle cx="890.0" cy="114.2" r="2.5" fill="hsl(268, 100%, 70%)" fill-opacity="0.56" /><line x1="695.8" y1="122.8" x2="904.2" y2="122.8" stroke="hsl(136, 100%, 72%)" stroke-opacity="0.22" stroke-width="0.6" /><circle cx="695.8" cy="122.8" r="2.5" fill="hsl(136, 100%, 72%)" fill-opacity="0.55" /><circle cx="904.2" cy="122.8" r="2.5" fill="hsl(268, 100%, 70%)" fill-opacity="0.55" /><circle cx="692.2" cy="131.4" r="2.5" fill="hsl(136, 100%, 72%)" fill-opacity="0.55" /><circle cx="907.8" cy="131.4" r="2.5" fill="hsl(268, 100%, 70%)" fill-opacity="0.55" /><circle cx="699.4" cy="140.1" r="2.5" fill="hsl(136, 100%, 72%)" fill-opacity="0.54" /><circle cx="900.6" cy="140.1" r="2.5" fill="hsl(268, 100%, 70%)" fill-opacity="0.54" /><line x1="716.9" y1="148.7" x2="883.1" y2="148.7" stroke="hsl(136, 100%, 72%)" stroke-opacity="0.22" stroke-width="0.6" /><circle cx="716.9" cy="148.7" r="2.5" fill="hsl(136, 100%, 72%)" fill-opacity="0.54" /><circle cx="883.1" cy="148.7" r="2.5" fill="hsl(268, 100%, 70%)" fill-opacity="0.54" /><circle cx="742.7" cy="157.4" r="2.5" fill="hsl(136, 100%, 72%)" fill-opacity="0.53" /><circle cx="857.3" cy="157.4" r="2.5" fill="hsl(268, 100%, 70%)" fill-opacity="0.53" /><circle cx="774.4" cy="166.0" r="2.5" fill="hsl(136, 100%, 72%)" fill-opacity="0.53" /><circle cx="825.6" cy="166.0" r="2.5" fill="hsl(268, 100%, 70%)" fill-opacity="0.53" /><line x1="808.6" y1="174.7" x2="791.4" y2="174.7" stroke="hsl(136, 100%, 72%)" stroke-opacity="0.21" stroke-width="0.6" /><circle cx="808.6" cy="174.7" r="2.5" fill="hsl(136, 100%, 72%)" fill-opacity="0.52" /><circle cx="791.4" cy="174.7" r="2.5" fill="hsl(268, 100%, 70%)" fill-opacity="0.52" /><circle cx="842.0" cy="183.3" r="2.5" fill="hsl(136, 100%, 72%)" fill-opacity="0.52" /><circle cx="758.0" cy="183.3" r="2.5" fill="hsl(268, 100%, 70%)" fill-opacity="0.52" /><circle cx="871.1" cy="191.9" r="2.5" fill="hsl(136, 100%, 72%)" fill-opacity="0.51" /><circle cx="728.9" cy="191.9" r="2.5" fill="hsl(268, 100%, 70%)" fill-opacity="0.51" /><line x1="893.0" y1="200.6" x2="707.0" y2="200.6" stroke="hsl(136, 100%, 72%)" stroke-opacity="0.20" stroke-width="0.6" /><circle cx="893.0" cy="200.6" r="2.5" fill="hsl(136, 100%, 72%)" fill-opacity="0.51" /><circle cx="707.0" cy="200.6" r="2.5" fill="hsl(268, 100%, 70%)" fill-opacity="0.51" /><circle cx="905.6" cy="209.2" r="2.5" fill="hsl(136, 100%, 72%)" fill-opacity="0.50" /><circle cx="694.4" cy="209.2" r="2.5" fill="hsl(268, 100%, 70%)" fill-opacity="0.50" /><circle cx="907.4" cy="217.9" r="2.5" fill="hsl(136, 100%, 72%)" fill-opacity="0.50" /><circle cx="692.6" cy="217.9" r="2.5" fill="hsl(268, 100%, 70%)" fill-opacity="0.50" /><line x1="898.3" y1="226.5" x2="701.7" y2="226.5" stroke="hsl(136, 100%, 72%)" stroke-opacity="0.20" stroke-width="0.6" /><circle cx="898.3" cy="226.5" r="2.5" fill="hsl(136, 100%, 72%)" fill-opacity="0.49" /><circle cx="701.7" cy="226.5" r="2.5" fill="hsl(268, 100%, 70%)" fill-opacity="0.49" /><circle cx="879.4" cy="235.2" r="2.5" fill="hsl(136, 100%, 72%)" fill-opacity="0.49" /><circle cx="720.6" cy="235.2" r="2.5" fill="hsl(268, 100%, 70%)" fill-opacity="0.49" /><circle cx="852.3" cy="243.8" r="2.5" fill="hsl(136, 100%, 72%)" fill-opacity="0.48" /><circle cx="747.7" cy="243.8" r="2.5" fill="hsl(268, 100%, 70%)" fill-opacity="0.48" /><line x1="820.0" y1="252.5" x2="780.0" y2="252.5" stroke="hsl(136, 100%, 72%)" stroke-opacity="0.19" stroke-width="0.6" /><circle cx="820.0" cy="252.5" r="2.5" fill="hsl(136, 100%, 72%)" fill-opacity="0.48" /><circle cx="780.0" cy="252.5" r="2.5" fill="hsl(268, 100%, 70%)" fill-opacity="0.48" /><circle cx="785.7" cy="261.1" r="2.5" fill="hsl(136, 100%, 72%)" fill-opacity="0.47" /><circle cx="814.3" cy="261.1" r="2.5" fill="hsl(268, 100%, 70%)" fill-opacity="0.47" /><circle cx="752.8" cy="269.7" r="2.5" fill="hsl(136, 100%, 72%)" fill-opacity="0.47" /><circle cx="847.2" cy="269.7" r="2.5" fill="hsl(268, 100%, 70%)" fill-opacity="0.47" /><line x1="724.7" y1="278.4" x2="875.3" y2="278.4" stroke="hsl(136, 100%, 72%)" stroke-opacity="0.19" stroke-width="0.6" /><circle cx="724.7" cy="278.4" r="2.5" fill="hsl(136, 100%, 72%)" fill-opacity="0.46" /><circle cx="875.3" cy="278.4" r="2.5" fill="hsl(268, 100%, 70%)" fill-opacity="0.46" /><circle cx="704.2" cy="287.0" r="2.5" fill="hsl(136, 100%, 72%)" fill-opacity="0.46" /><circle cx="895.8" cy="287.0" r="2.5" fill="hsl(268, 100%, 70%)" fill-opacity="0.46" /><circle cx="693.4" cy="295.7" r="2.5" fill="hsl(136, 100%, 72%)" fill-opacity="0.45" /><circle cx="906.6" cy="295.7" r="2.5" fill="hsl(268, 100%, 70%)" fill-opacity="0.45" /><line x1="693.4" y1="304.3" x2="906.6" y2="304.3" stroke="hsl(136, 100%, 72%)" stroke-opacity="0.18" stroke-width="0.6" /><circle cx="693.4" cy="304.3" r="2.5" fill="hsl(136, 100%, 72%)" fill-opacity="0.45" /><circle cx="906.6" cy="304.3" r="2.5" fill="hsl(268, 100%, 70%)" fill-opacity="0.45" /><circle cx="704.2" cy="313.0" r="2.5" fill="hsl(136, 100%, 72%)" fill-opacity="0.44" /><circle cx="895.8" cy="313.0" r="2.5" fill="hsl(268, 100%, 70%)" fill-opacity="0.44" /><circle cx="724.7" cy="321.6" r="2.5" fill="hsl(136, 100%, 72%)" fill-opacity="0.44" /><circle cx="875.3" cy="321.6" r="2.5" fill="hsl(268, 100%, 70%)" fill-opacity="0.44" /><line x1="752.8" y1="330.3" x2="847.2" y2="330.3" stroke="hsl(136, 100%, 72%)" stroke-opacity="0.17" stroke-width="0.6" /><circle cx="752.8" cy="330.3" r="2.5" fill="hsl(136, 100%, 72%)" fill-opacity="0.43" /><circle cx="847.2" cy="330.3" r="2.5" fill="hsl(268, 100%, 70%)" fill-opacity="0.43" /><circle cx="785.7" cy="338.9" r="2.5" fill="hsl(136, 100%, 72%)" fill-opacity="0.43" /><circle cx="814.3" cy="338.9" r="2.5" fill="hsl(268, 100%, 70%)" fill-opacity="0.43" /><circle cx="820.0" cy="347.5" r="2.5" fill="hsl(136, 100%, 72%)" fill-opacity="0.42" /><circle cx="780.0" cy="347.5" r="2.5" fill="hsl(268, 100%, 70%)" fill-opacity="0.42" /><line x1="852.3" y1="356.2" x2="747.7" y2="356.2" stroke="hsl(136, 100%, 72%)" stroke-opacity="0.17" stroke-width="0.6" /><circle cx="852.3" cy="356.2" r="2.5" fill="hsl(136, 100%, 72%)" fill-opacity="0.42" /><circle cx="747.7" cy="356.2" r="2.5" fill="hsl(268, 100%, 70%)" fill-opacity="0.42" /><circle cx="879.4" cy="364.8" r="2.5" fill="hsl(136, 100%, 72%)" fill-opacity="0.41" /><circle cx="720.6" cy="364.8" r="2.5" fill="hsl(268, 100%, 70%)" fill-opacity="0.41" /><circle cx="898.3" cy="373.5" r="2.5" fill="hsl(136, 100%, 72%)" fill-opacity="0.41" /><circle cx="701.7" cy="373.5" r="2.5" fill="hsl(268, 100%, 70%)" fill-opacity="0.41" /><line x1="907.4" y1="382.1" x2="692.6" y2="382.1" stroke="hsl(136, 100%, 72%)" stroke-opacity="0.16" stroke-width="0.6" /><circle cx="907.4" cy="382.1" r="2.5" fill="hsl(136, 100%, 72%)" fill-opacity="0.40" /><circle cx="692.6" cy="382.1" r="2.5" fill="hsl(268, 100%, 70%)" fill-opacity="0.40" /><circle cx="905.6" cy="390.8" r="2.5" fill="hsl(136, 100%, 72%)" fill-opacity="0.40" /><circle cx="694.4" cy="390.8" r="2.5" fill="hsl(268, 100%, 70%)" fill-opacity="0.40" /><circle cx="893.0" cy="399.4" r="2.5" fill="hsl(136, 100%, 72%)" fill-opacity="0.39" /><circle cx="707.0" cy="399.4" r="2.5" fill="hsl(268, 100%, 70%)" fill-opacity="0.39" /><line x1="871.1" y1="408.1" x2="728.9" y2="408.1" stroke="hsl(136, 100%, 72%)" stroke-opacity="0.15" stroke-width="0.6" /><circle cx="871.1" cy="408.1" r="2.5" fill="hsl(136, 100%, 72%)" fill-opacity="0.39" /><circle cx="728.9" cy="408.1" r="2.5" fill="hsl(268, 100%, 70%)" fill-opacity="0.39" /><circle cx="842.0" cy="416.7" r="2.5" fill="hsl(136, 100%, 72%)" fill-opacity="0.38" /><circle cx="758.0" cy="416.7" r="2.5" fill="hsl(268, 100%, 70%)" fill-opacity="0.38" /><circle cx="808.6" cy="425.3" r="2.5" fill="hsl(136, 100%, 72%)" fill-opacity="0.38" /><circle cx="791.4" cy="425.3" r="2.5" fill="hsl(268, 100%, 70%)" fill-opacity="0.38" /><line x1="774.4" y1="434.0" x2="825.6" y2="434.0" stroke="hsl(136, 100%, 72%)" stroke-opacity="0.15" stroke-width="0.6" /><circle cx="774.4" cy="434.0" r="2.5" fill="hsl(136, 100%, 72%)" fill-opacity="0.37" /><circle cx="825.6" cy="434.0" r="2.5" fill="hsl(268, 100%, 70%)" fill-opacity="0.37" /><circle cx="742.7" cy="442.6" r="2.5" fill="hsl(136, 100%, 72%)" fill-opacity="0.37" /><circle cx="857.3" cy="442.6" r="2.5" fill="hsl(268, 100%, 70%)" fill-opacity="0.37" /><circle cx="716.9" cy="451.3" r="2.5" fill="hsl(136, 100%, 72%)" fill-opacity="0.36" /><circle cx="883.1" cy="451.3" r="2.5" fill="hsl(268, 100%, 70%)" fill-opacity="0.36" /><line x1="699.4" y1="459.9" x2="900.6" y2="459.9" stroke="hsl(136, 100%, 72%)" stroke-opacity="0.14" stroke-width="0.6" /><circle cx="699.4" cy="459.9" r="2.5" fill="hsl(136, 100%, 72%)" fill-opacity="0.36" /><circle cx="900.6" cy="459.9" r="2.5" fill="hsl(268, 100%, 70%)" fill-opacity="0.36" /><circle cx="692.2" cy="468.6" r="2.5" fill="hsl(136, 100%, 72%)" fill-opacity="0.35" /><circle cx="907.8" cy="468.6" r="2.5" fill="hsl(268, 100%, 70%)" fill-opacity="0.35" /><circle cx="695.8" cy="477.2" r="2.5" fill="hsl(136, 100%, 72%)" fill-opacity="0.35" /><circle cx="904.2" cy="477.2" r="2.5" fill="hsl(268, 100%, 70%)" fill-opacity="0.35" /><line x1="710.0" y1="485.8" x2="890.0" y2="485.8" stroke="hsl(136, 100%, 72%)" stroke-opacity="0.14" stroke-width="0.6" /><circle cx="710.0" cy="485.8" r="2.5" fill="hsl(136, 100%, 72%)" fill-opacity="0.34" /><circle cx="890.0" cy="485.8" r="2.5" fill="hsl(268, 100%, 70%)" fill-opacity="0.34" /><circle cx="733.3" cy="494.5" r="2.5" fill="hsl(136, 100%, 72%)" fill-opacity="0.34" /><circle cx="866.7" cy="494.5" r="2.5" fill="hsl(268, 100%, 70%)" fill-opacity="0.34" /><circle cx="763.4" cy="503.1" r="2.5" fill="hsl(136, 100%, 72%)" fill-opacity="0.33" /><circle cx="836.6" cy="503.1" r="2.5" fill="hsl(268, 100%, 70%)" fill-opacity="0.33" /><line x1="797.1" y1="511.8" x2="802.9" y2="511.8" stroke="hsl(136, 100%, 72%)" stroke-opacity="0.13" stroke-width="0.6" /><circle cx="797.1" cy="511.8" r="2.5" fill="hsl(136, 100%, 72%)" fill-opacity="0.33" /><circle cx="802.9" cy="511.8" r="2.5" fill="hsl(268, 100%, 70%)" fill-opacity="0.33" /><circle cx="831.2" cy="520.4" r="2.5" fill="hsl(136, 100%, 72%)" fill-opacity="0.32" /><circle cx="768.8" cy="520.4" r="2.5" fill="hsl(268, 100%, 70%)" fill-opacity="0.32" /><circle cx="862.1" cy="529.1" r="2.5" fill="hsl(136, 100%, 72%)" fill-opacity="0.32" /><circle cx="737.9" cy="529.1" r="2.5" fill="hsl(268, 100%, 70%)" fill-opacity="0.32" /><line x1="886.7" y1="537.7" x2="713.3" y2="537.7" stroke="hsl(136, 100%, 72%)" stroke-opacity="0.12" stroke-width="0.6" /><circle cx="886.7" cy="537.7" r="2.5" fill="hsl(136, 100%, 72%)" fill-opacity="0.31" /><circle cx="713.3" cy="537.7" r="2.5" fill="hsl(268, 100%, 70%)" fill-opacity="0.31" /><circle cx="902.5" cy="546.4" r="2.5" fill="hsl(136, 100%, 72%)" fill-opacity="0.31" /><circle cx="697.5" cy="546.4" r="2.5" fill="hsl(268, 100%, 70%)" fill-opacity="0.31" /><circle cx="908.0" cy="555.0" r="2.5" fill="hsl(136, 100%, 72%)" fill-opacity="0.30" /><circle cx="692.0" cy="555.0" r="2.5" fill="hsl(268, 100%, 70%)" fill-opacity="0.30" /><circle cx="69.5" cy="495.7" r="0.9" fill="#ffffff" fill-opacity="0.41" /><circle cx="640.7" cy="414.3" r="1.1" fill="#ffffff" fill-opacity="0.43" /><circle cx="406.5" cy="578.4" r="0.8" fill="#ffffff" fill-opacity="0.33" /><circle cx="1553.7" cy="118.5" r="1.7" fill="#ffffff" fill-opacity="0.25" /><circle cx="659.8" cy="457.8" r="1.9" fill="#ffffff" fill-opacity="0.21" /><circle cx="1361.5" cy="118.1" r="0.9" fill="#ffffff" fill-opacity="0.36" /><circle cx="1278.3" cy="107.5" r="0.6" fill="#ffffff" fill-opacity="0.49" /><circle cx="1129.3" cy="217.2" r="1.0" fill="#ffffff" fill-opacity="0.22" /><circle cx="240.9" cy="298.0" r="0.7" fill="#ffffff" fill-opacity="0.37" /><circle cx="430.8" cy="335.9" r="1.5" fill="#ffffff" fill-opacity="0.26" /><circle cx="444.9" cy="136.9" r="1.6" fill="#ffffff" fill-opacity="0.28" /><circle cx="432.0" cy="66.0" r="1.3" fill="#ffffff" fill-opacity="0.26" /><circle cx="445.9" cy="78.1" r="0.9" fill="#ffffff" fill-opacity="0.48" /><circle cx="292.4" cy="586.2" r="1.0" fill="#ffffff" fill-opacity="0.52" /><circle cx="552.0" cy="464.2" r="1.9" fill="#ffffff" fill-opacity="0.50" /><circle cx="767.9" cy="443.1" r="2.0" fill="#ffffff" fill-opacity="0.46" /><circle cx="1230.6" cy="202.2" r="1.8" fill="#ffffff" fill-opacity="0.22" /><circle cx="340.7" cy="415.4" r="1.5" fill="#ffffff" fill-opacity="0.54" /><circle cx="1516.0" cy="145.0" r="1.0" fill="#ffffff" fill-opacity="0.52" /><circle cx="1055.8" cy="170.2" r="1.5" fill="#ffffff" fill-opacity="0.55" /><circle cx="1332.1" cy="336.5" r="1.0" fill="#ffffff" fill-opacity="0.38" /><circle cx="546.1" cy="526.4" r="0.7" fill="#ffffff" fill-opacity="0.41" /><circle cx="1388.1" cy="399.9" r="1.6" fill="#ffffff" fill-opacity="0.53" /><circle cx="777.5" cy="206.0" r="1.4" fill="#ffffff" fill-opacity="0.43" /></g>
  <rect width="100%" height="100%" fill="url(#vignette)" />
  <text x="1540" y="550" text-anchor="end" font-family="Inter, sans-serif" font-weight="700" font-size="160" fill="hsl(136, 100%, 72%)" fill-opacity="0.18">08</text>
  <text x="60" y="565" font-family="Inter, sans-serif" font-weight="500" font-size="20" fill="hsl(136, 100%, 72%)" fill-opacity="0.45" letter-spacing="3">CHAPTER 8 · ARISTOTELIAN VIRTUE THEORY</text>
</svg>
