<?xml version="1.0" encoding="UTF-8"?>
<svg xmlns="http://www.w3.org/2000/svg" viewBox="0 0 1600 600" width="1600" height="600" preserveAspectRatio="xMidYMid slice" role="img">
  <defs>
    <linearGradient id="bg-grad" x1="0" y1="0" x2="0" y2="1">
      <stop offset="0%" stop-color="hsl(240, 50%, 14%)" />
      <stop offset="100%" stop-color="hsl(240, 60%, 8%)" />
    </linearGradient>
    <radialGradient id="glow" cx="70.0%" cy="35%" r="55%">
      <stop offset="0%" stop-color="hsl(181, 100%, 74%)" stop-opacity="0.5" />
      <stop offset="50%" stop-color="hsl(300, 100%, 70%)" stop-opacity="0.18" />
      <stop offset="100%" stop-color="hsl(240, 60%, 8%)" stop-opacity="0" />
    </radialGradient>
    <linearGradient id="vignette" x1="0" y1="1" x2="0" y2="0">
      <stop offset="0%" stop-color="hsl(240, 60%, 8%)" stop-opacity="0.85" />
      <stop offset="65%" stop-color="hsl(240, 60%, 8%)" stop-opacity="0" />
    </linearGradient>
  </defs>
  <rect width="100%" height="100%" fill="url(#bg-grad)" />
  <rect width="100%" height="100%" fill="url(#glow)" />
  <g><line x1="18.7" y1="37.2" x2="222.1" y2="80.0" stroke="hsl(181, 100%, 74%)" stroke-opacity="0.02" stroke-width="0.7" /><line x1="1563.1" y1="419.4" x2="1536.8" y2="502.8" stroke="hsl(181, 100%, 74%)" stroke-opacity="0.21" stroke-width="0.7" /><line x1="1563.1" y1="419.4" x2="1548.0" y2="329.1" stroke="hsl(181, 100%, 74%)" stroke-opacity="0.20" stroke-width="0.7" /><line x1="834.3" y1="243.3" x2="746.0" y2="144.0" stroke="hsl(181, 100%, 74%)" stroke-opacity="0.14" stroke-width="0.7" /><line x1="834.3" y1="243.3" x2="885.3" y2="437.9" stroke="hsl(181, 100%, 74%)" stroke-opacity="0.03" stroke-width="0.7" /><line x1="834.3" y1="243.3" x2="876.6" y2="457.1" stroke="hsl(181, 100%, 74%)" stroke-opacity="0.00" stroke-width="0.7" /><line x1="834.3" y1="243.3" x2="885.9" y2="373.0" stroke="hsl(181, 100%, 74%)" stroke-opacity="0.13" stroke-width="0.7" /><line x1="746.0" y1="144.0" x2="680.5" y2="12.1" stroke="hsl(181, 100%, 74%)" stroke-opacity="0.12" stroke-width="0.7" /><line x1="746.0" y1="144.0" x2="590.4" y2="256.0" stroke="hsl(181, 100%, 74%)" stroke-opacity="0.04" stroke-width="0.7" /><line x1="885.3" y1="437.9" x2="876.6" y2="457.1" stroke="hsl(181, 100%, 74%)" stroke-opacity="0.32" stroke-width="0.7" /><line x1="885.3" y1="437.9" x2="885.9" y2="373.0" stroke="hsl(181, 100%, 74%)" stroke-opacity="0.25" stroke-width="0.7" /><line x1="885.3" y1="437.9" x2="999.0" y2="552.7" stroke="hsl(181, 100%, 74%)" stroke-opacity="0.09" stroke-width="0.7" /><line x1="885.3" y1="437.9" x2="749.9" y2="567.7" stroke="hsl(181, 100%, 74%)" stroke-opacity="0.05" stroke-width="0.7" /><line x1="885.3" y1="437.9" x2="876.6" y2="495.9" stroke="hsl(181, 100%, 74%)" stroke-opacity="0.26" stroke-width="0.7" /><line x1="885.3" y1="437.9" x2="1048.4" y2="551.9" stroke="hsl(181, 100%, 74%)" stroke-opacity="0.03" stroke-width="0.7" /><line x1="885.3" y1="437.9" x2="1038.7" y2="534.6" stroke="hsl(181, 100%, 74%)" stroke-opacity="0.06" stroke-width="0.7" /><line x1="885.3" y1="437.9" x2="950.8" y2="578.3" stroke="hsl(181, 100%, 74%)" stroke-opacity="0.10" stroke-width="0.7" /><line x1="412.5" y1="93.6" x2="315.4" y2="220.8" stroke="hsl(181, 100%, 74%)" stroke-opacity="0.10" stroke-width="0.7" /><line x1="412.5" y1="93.6" x2="305.3" y2="86.2" stroke="hsl(181, 100%, 74%)" stroke-opacity="0.18" stroke-width="0.7" /><line x1="412.5" y1="93.6" x2="247.4" y2="174.6" stroke="hsl(181, 100%, 74%)" stroke-opacity="0.06" stroke-width="0.7" /><line x1="412.5" y1="93.6" x2="279.9" y2="214.2" stroke="hsl(181, 100%, 74%)" stroke-opacity="0.06" stroke-width="0.7" /><line x1="412.5" y1="93.6" x2="529.0" y2="213.8" stroke="hsl(181, 100%, 74%)" stroke-opacity="0.08" stroke-width="0.7" /><line x1="412.5" y1="93.6" x2="222.1" y2="80.0" stroke="hsl(181, 100%, 74%)" stroke-opacity="0.05" stroke-width="0.7" /><line x1="412.5" y1="93.6" x2="538.8" y2="26.2" stroke="hsl(181, 100%, 74%)" stroke-opacity="0.12" stroke-width="0.7" /><line x1="1222.5" y1="311.0" x2="1125.2" y2="413.0" stroke="hsl(181, 100%, 74%)" stroke-opacity="0.13" stroke-width="0.7" /><line x1="315.4" y1="220.8" x2="469.2" y2="320.8" stroke="hsl(181, 100%, 74%)" stroke-opacity="0.06" stroke-width="0.7" /><line x1="315.4" y1="220.8" x2="305.3" y2="86.2" stroke="hsl(181, 100%, 74%)" stroke-opacity="0.14" stroke-width="0.7" /><line x1="315.4" y1="220.8" x2="247.4" y2="174.6" stroke="hsl(181, 100%, 74%)" stroke-opacity="0.22" stroke-width="0.7" /><line x1="315.4" y1="220.8" x2="279.9" y2="214.2" stroke="hsl(181, 100%, 74%)" stroke-opacity="0.29" stroke-width="0.7" /><line x1="315.4" y1="220.8" x2="529.0" y2="213.8" stroke="hsl(181, 100%, 74%)" stroke-opacity="0.01" stroke-width="0.7" /><line x1="315.4" y1="220.8" x2="222.1" y2="80.0" stroke="hsl(181, 100%, 74%)" stroke-opacity="0.08" stroke-width="0.7" /><line x1="315.4" y1="220.8" x2="304.6" y2="379.3" stroke="hsl(181, 100%, 74%)" stroke-opacity="0.10" stroke-width="0.7" /><line x1="315.4" y1="220.8" x2="187.3" y2="318.0" stroke="hsl(181, 100%, 74%)" stroke-opacity="0.09" stroke-width="0.7" /><line x1="469.2" y1="320.8" x2="396.1" y2="526.7" stroke="hsl(181, 100%, 74%)" stroke-opacity="0.00" stroke-width="0.7" /><line x1="469.2" y1="320.8" x2="279.9" y2="214.2" stroke="hsl(181, 100%, 74%)" stroke-opacity="0.00" stroke-width="0.7" /><line x1="469.2" y1="320.8" x2="590.4" y2="256.0" stroke="hsl(181, 100%, 74%)" stroke-opacity="0.13" stroke-width="0.7" /><line x1="469.2" y1="320.8" x2="529.0" y2="213.8" stroke="hsl(181, 100%, 74%)" stroke-opacity="0.15" stroke-width="0.7" /><line x1="469.2" y1="320.8" x2="304.6" y2="379.3" stroke="hsl(181, 100%, 74%)" stroke-opacity="0.07" stroke-width="0.7" /><line x1="474.1" y1="586.8" x2="396.1" y2="526.7" stroke="hsl(181, 100%, 74%)" stroke-opacity="0.19" stroke-width="0.7" /><line x1="396.1" y1="526.7" x2="304.6" y2="379.3" stroke="hsl(181, 100%, 74%)" stroke-opacity="0.07" stroke-width="0.7" /><line x1="305.3" y1="86.2" x2="247.4" y2="174.6" stroke="hsl(181, 100%, 74%)" stroke-opacity="0.18" stroke-width="0.7" /><line x1="305.3" y1="86.2" x2="279.9" y2="214.2" stroke="hsl(181, 100%, 74%)" stroke-opacity="0.14" stroke-width="0.7" /><line x1="305.3" y1="86.2" x2="222.1" y2="80.0" stroke="hsl(181, 100%, 74%)" stroke-opacity="0.22" stroke-width="0.7" /><line x1="247.4" y1="174.6" x2="279.9" y2="214.2" stroke="hsl(181, 100%, 74%)" stroke-opacity="0.27" stroke-width="0.7" /><line x1="247.4" y1="174.6" x2="222.1" y2="80.0" stroke="hsl(181, 100%, 74%)" stroke-opacity="0.19" stroke-width="0.7" /><line x1="247.4" y1="174.6" x2="304.6" y2="379.3" stroke="hsl(181, 100%, 74%)" stroke-opacity="0.01" stroke-width="0.7" /><line x1="247.4" y1="174.6" x2="187.3" y2="318.0" stroke="hsl(181, 100%, 74%)" stroke-opacity="0.10" stroke-width="0.7" /><line x1="876.6" y1="457.1" x2="885.9" y2="373.0" stroke="hsl(181, 100%, 74%)" stroke-opacity="0.22" stroke-width="0.7" /><line x1="876.6" y1="457.1" x2="999.0" y2="552.7" stroke="hsl(181, 100%, 74%)" stroke-opacity="0.10" stroke-width="0.7" /><line x1="876.6" y1="457.1" x2="749.9" y2="567.7" stroke="hsl(181, 100%, 74%)" stroke-opacity="0.08" stroke-width="0.7" /><line x1="876.6" y1="457.1" x2="876.6" y2="495.9" stroke="hsl(181, 100%, 74%)" stroke-opacity="0.29" stroke-width="0.7" /><line x1="876.6" y1="457.1" x2="1048.4" y2="551.9" stroke="hsl(181, 100%, 74%)" stroke-opacity="0.04" stroke-width="0.7" /><line x1="876.6" y1="457.1" x2="1038.7" y2="534.6" stroke="hsl(181, 100%, 74%)" stroke-opacity="0.06" stroke-width="0.7" /><line x1="876.6" y1="457.1" x2="950.8" y2="578.3" stroke="hsl(181, 100%, 74%)" stroke-opacity="0.12" stroke-width="0.7" /><line x1="119.2" y1="547.8" x2="141.0" y2="460.8" stroke="hsl(181, 100%, 74%)" stroke-opacity="0.21" stroke-width="0.7" /><line x1="885.9" y1="373.0" x2="999.0" y2="552.7" stroke="hsl(181, 100%, 74%)" stroke-opacity="0.01" stroke-width="0.7" /><line x1="885.9" y1="373.0" x2="876.6" y2="495.9" stroke="hsl(181, 100%, 74%)" stroke-opacity="0.15" stroke-width="0.7" /><line x1="885.9" y1="373.0" x2="950.8" y2="578.3" stroke="hsl(181, 100%, 74%)" stroke-opacity="0.01" stroke-width="0.7" /><line x1="1088.1" y1="579.6" x2="999.0" y2="552.7" stroke="hsl(181, 100%, 74%)" stroke-opacity="0.20" stroke-width="0.7" /><line x1="1088.1" y1="579.6" x2="1125.2" y2="413.0" stroke="hsl(181, 100%, 74%)" stroke-opacity="0.08" stroke-width="0.7" /><line x1="1088.1" y1="579.6" x2="1094.8" y2="552.8" stroke="hsl(181, 100%, 74%)" stroke-opacity="0.31" stroke-width="0.7" /><line x1="1088.1" y1="579.6" x2="1048.4" y2="551.9" stroke="hsl(181, 100%, 74%)" stroke-opacity="0.27" stroke-width="0.7" /><line x1="1088.1" y1="579.6" x2="1038.7" y2="534.6" stroke="hsl(181, 100%, 74%)" stroke-opacity="0.24" stroke-width="0.7" /><line x1="1088.1" y1="579.6" x2="950.8" y2="578.3" stroke="hsl(181, 100%, 74%)" stroke-opacity="0.13" stroke-width="0.7" /><line x1="999.0" y1="552.7" x2="1125.2" y2="413.0" stroke="hsl(181, 100%, 74%)" stroke-opacity="0.05" stroke-width="0.7" /><line x1="999.0" y1="552.7" x2="1094.8" y2="552.8" stroke="hsl(181, 100%, 74%)" stroke-opacity="0.20" stroke-width="0.7" /><line x1="999.0" y1="552.7" x2="876.6" y2="495.9" stroke="hsl(181, 100%, 74%)" stroke-opacity="0.14" stroke-width="0.7" /><line x1="999.0" y1="552.7" x2="1048.4" y2="551.9" stroke="hsl(181, 100%, 74%)" stroke-opacity="0.27" stroke-width="0.7" /><line x1="999.0" y1="552.7" x2="1038.7" y2="534.6" stroke="hsl(181, 100%, 74%)" stroke-opacity="0.28" stroke-width="0.7" /><line x1="999.0" y1="552.7" x2="950.8" y2="578.3" stroke="hsl(181, 100%, 74%)" stroke-opacity="0.26" stroke-width="0.7" /><line x1="1324.2" y1="24.0" x2="1460.9" y2="193.5" stroke="hsl(181, 100%, 74%)" stroke-opacity="0.00" stroke-width="0.7" /><line x1="279.9" y1="214.2" x2="222.1" y2="80.0" stroke="hsl(181, 100%, 74%)" stroke-opacity="0.12" stroke-width="0.7" /><line x1="279.9" y1="214.2" x2="304.6" y2="379.3" stroke="hsl(181, 100%, 74%)" stroke-opacity="0.08" stroke-width="0.7" /><line x1="279.9" y1="214.2" x2="187.3" y2="318.0" stroke="hsl(181, 100%, 74%)" stroke-opacity="0.13" stroke-width="0.7" /><line x1="680.5" y1="12.1" x2="538.8" y2="26.2" stroke="hsl(181, 100%, 74%)" stroke-opacity="0.12" stroke-width="0.7" /><line x1="141.0" y1="460.8" x2="304.6" y2="379.3" stroke="hsl(181, 100%, 74%)" stroke-opacity="0.06" stroke-width="0.7" /><line x1="141.0" y1="460.8" x2="187.3" y2="318.0" stroke="hsl(181, 100%, 74%)" stroke-opacity="0.11" stroke-width="0.7" /><line x1="590.4" y1="256.0" x2="529.0" y2="213.8" stroke="hsl(181, 100%, 74%)" stroke-opacity="0.23" stroke-width="0.7" /><line x1="749.9" y1="567.7" x2="876.6" y2="495.9" stroke="hsl(181, 100%, 74%)" stroke-opacity="0.12" stroke-width="0.7" /><line x1="749.9" y1="567.7" x2="950.8" y2="578.3" stroke="hsl(181, 100%, 74%)" stroke-opacity="0.03" stroke-width="0.7" /><line x1="1125.2" y1="413.0" x2="1094.8" y2="552.8" stroke="hsl(181, 100%, 74%)" stroke-opacity="0.12" stroke-width="0.7" /><line x1="1125.2" y1="413.0" x2="1048.4" y2="551.9" stroke="hsl(181, 100%, 74%)" stroke-opacity="0.10" stroke-width="0.7" /><line x1="1125.2" y1="413.0" x2="1038.7" y2="534.6" stroke="hsl(181, 100%, 74%)" stroke-opacity="0.11" stroke-width="0.7" /><line x1="529.0" y1="213.8" x2="538.8" y2="26.2" stroke="hsl(181, 100%, 74%)" stroke-opacity="0.05" stroke-width="0.7" /><line x1="1460.9" y1="193.5" x2="1548.0" y2="329.1" stroke="hsl(181, 100%, 74%)" stroke-opacity="0.09" stroke-width="0.7" /><line x1="304.6" y1="379.3" x2="187.3" y2="318.0" stroke="hsl(181, 100%, 74%)" stroke-opacity="0.14" stroke-width="0.7" /><line x1="1094.8" y1="552.8" x2="1048.4" y2="551.9" stroke="hsl(181, 100%, 74%)" stroke-opacity="0.28" stroke-width="0.7" /><line x1="1094.8" y1="552.8" x2="1038.7" y2="534.6" stroke="hsl(181, 100%, 74%)" stroke-opacity="0.26" stroke-width="0.7" /><line x1="1094.8" y1="552.8" x2="950.8" y2="578.3" stroke="hsl(181, 100%, 74%)" stroke-opacity="0.12" stroke-width="0.7" /><line x1="876.6" y1="495.9" x2="1048.4" y2="551.9" stroke="hsl(181, 100%, 74%)" stroke-opacity="0.06" stroke-width="0.7" /><line x1="876.6" y1="495.9" x2="1038.7" y2="534.6" stroke="hsl(181, 100%, 74%)" stroke-opacity="0.08" stroke-width="0.7" /><line x1="876.6" y1="495.9" x2="950.8" y2="578.3" stroke="hsl(181, 100%, 74%)" stroke-opacity="0.17" stroke-width="0.7" /><line x1="1048.4" y1="551.9" x2="1038.7" y2="534.6" stroke="hsl(181, 100%, 74%)" stroke-opacity="0.32" stroke-width="0.7" /><line x1="1048.4" y1="551.9" x2="950.8" y2="578.3" stroke="hsl(181, 100%, 74%)" stroke-opacity="0.19" stroke-width="0.7" /><line x1="1038.7" y1="534.6" x2="950.8" y2="578.3" stroke="hsl(181, 100%, 74%)" stroke-opacity="0.19" stroke-width="0.7" /><line x1="1536.8" y1="502.8" x2="1548.0" y2="329.1" stroke="hsl(181, 100%, 74%)" stroke-opacity="0.07" stroke-width="0.7" /><circle cx="18.7" cy="37.2" r="2.5" fill="hsl(300, 100%, 70%)" fill-opacity="0.85" /><circle cx="1563.1" cy="419.4" r="2.5" fill="hsl(300, 100%, 70%)" fill-opacity="0.85" /><circle cx="834.3" cy="243.3" r="2.5" fill="hsl(300, 100%, 70%)" fill-opacity="0.85" /><circle cx="746.0" cy="144.0" r="2.5" fill="hsl(300, 100%, 70%)" fill-opacity="0.85" /><circle cx="885.3" cy="437.9" r="2.5" fill="hsl(300, 100%, 70%)" fill-opacity="0.85" /><circle cx="412.5" cy="93.6" r="2.5" fill="hsl(300, 100%, 70%)" fill-opacity="0.85" /><circle cx="1222.5" cy="311.0" r="2.5" fill="hsl(300, 100%, 70%)" fill-opacity="0.85" /><circle cx="315.4" cy="220.8" r="2.5" fill="hsl(300, 100%, 70%)" fill-opacity="0.85" /><circle cx="469.2" cy="320.8" r="2.5" fill="hsl(300, 100%, 70%)" fill-opacity="0.85" /><circle cx="474.1" cy="586.8" r="2.5" fill="hsl(300, 100%, 70%)" fill-opacity="0.85" /><circle cx="396.1" cy="526.7" r="2.5" fill="hsl(300, 100%, 70%)" fill-opacity="0.85" /><circle cx="305.3" cy="86.2" r="2.5" fill="hsl(300, 100%, 70%)" fill-opacity="0.85" /><circle cx="247.4" cy="174.6" r="2.5" fill="hsl(300, 100%, 70%)" fill-opacity="0.85" /><circle cx="876.6" cy="457.1" r="2.5" fill="hsl(300, 100%, 70%)" fill-opacity="0.85" /><circle cx="119.2" cy="547.8" r="2.5" fill="hsl(300, 100%, 70%)" fill-opacity="0.85" /><circle cx="885.9" cy="373.0" r="2.5" fill="hsl(300, 100%, 70%)" fill-opacity="0.85" /><circle cx="1088.1" cy="579.6" r="2.5" fill="hsl(300, 100%, 70%)" fill-opacity="0.85" /><circle cx="999.0" cy="552.7" r="2.5" fill="hsl(300, 100%, 70%)" fill-opacity="0.85" /><circle cx="1324.2" cy="24.0" r="2.5" fill="hsl(300, 100%, 70%)" fill-opacity="0.85" /><circle cx="279.9" cy="214.2" r="2.5" fill="hsl(300, 100%, 70%)" fill-opacity="0.85" /><circle cx="680.5" cy="12.1" r="2.5" fill="hsl(300, 100%, 70%)" fill-opacity="0.85" /><circle cx="141.0" cy="460.8" r="2.5" fill="hsl(300, 100%, 70%)" fill-opacity="0.85" /><circle cx="590.4" cy="256.0" r="2.5" fill="hsl(300, 100%, 70%)" fill-opacity="0.85" /><circle cx="749.9" cy="567.7" r="2.5" fill="hsl(300, 100%, 70%)" fill-opacity="0.85" /><circle cx="1125.2" cy="413.0" r="2.5" fill="hsl(300, 100%, 70%)" fill-opacity="0.85" /><circle cx="529.0" cy="213.8" r="2.5" fill="hsl(300, 100%, 70%)" fill-opacity="0.85" /><circle cx="222.1" cy="80.0" r="2.5" fill="hsl(300, 100%, 70%)" fill-opacity="0.85" /><circle cx="1460.9" cy="193.5" r="2.5" fill="hsl(300, 100%, 70%)" fill-opacity="0.85" /><circle cx="304.6" cy="379.3" r="2.5" fill="hsl(300, 100%, 70%)" fill-opacity="0.85" /><circle cx="538.8" cy="26.2" r="2.5" fill="hsl(300, 100%, 70%)" fill-opacity="0.85" /><circle cx="1094.8" cy="552.8" r="2.5" fill="hsl(300, 100%, 70%)" fill-opacity="0.85" /><circle cx="876.6" cy="495.9" r="2.5" fill="hsl(300, 100%, 70%)" fill-opacity="0.85" /><circle cx="1048.4" cy="551.9" r="2.5" fill="hsl(300, 100%, 70%)" fill-opacity="0.85" /><circle cx="187.3" cy="318.0" r="2.5" fill="hsl(300, 100%, 70%)" fill-opacity="0.85" /><circle cx="1038.7" cy="534.6" r="2.5" fill="hsl(300, 100%, 70%)" fill-opacity="0.85" /><circle cx="1536.8" cy="502.8" r="2.5" fill="hsl(300, 100%, 70%)" fill-opacity="0.85" /><circle cx="950.8" cy="578.3" r="2.5" fill="hsl(300, 100%, 70%)" fill-opacity="0.85" /><circle cx="1548.0" cy="329.1" r="2.5" fill="hsl(300, 100%, 70%)" fill-opacity="0.85" /></g>
  <rect width="100%" height="100%" fill="url(#vignette)" />
  
  <text x="60" y="565" font-family="Inter, sans-serif" font-weight="500" font-size="20" fill="hsl(181, 100%, 74%)" fill-opacity="0.45" letter-spacing="3">THE ETHICS OF TECHNOLOGY THROUGH SCIENCE FICTION</text>
</svg>
